<?xml version="1.0" encoding="UTF-8" standalone="no"?>
<!-- Created with Inkscape (http://www.inkscape.org/) -->

<svg
   xmlns:dc="http://purl.org/dc/elements/1.1/"
   xmlns:cc="http://creativecommons.org/ns#"
   xmlns:rdf="http://www.w3.org/1999/02/22-rdf-syntax-ns#"
   xmlns:svg="http://www.w3.org/2000/svg"
   xmlns="http://www.w3.org/2000/svg"
   xmlns:sodipodi="http://sodipodi.sourceforge.net/DTD/sodipodi-0.dtd"
   xmlns:inkscape="http://www.inkscape.org/namespaces/inkscape"
   width="27.005491mm"
   height="30.007093mm"
   viewBox="0 0 27.005491 30.007093"
   version="1.1"
   id="svg312"
   inkscape:version="0.92.2 (5c3e80d, 2017-08-06)"
   sodipodi:docname="autocrypt_logo_text.svg">
  <defs
     id="defs306" />
  <sodipodi:namedview
     id="base"
     pagecolor="#ffffff"
     bordercolor="#666666"
     borderopacity="1.0"
     inkscape:pageopacity="0.0"
     inkscape:pageshadow="2"
     inkscape:zoom="0.35"
     inkscape:cx="400"
     inkscape:cy="560"
     inkscape:document-units="mm"
     inkscape:current-layer="layer1"
     showgrid="false"
     fit-margin-top="0"
     fit-margin-left="0"
     fit-margin-right="0"
     fit-margin-bottom="0"
     inkscape:window-width="1366"
     inkscape:window-height="767"
     inkscape:window-x="0"
     inkscape:window-y="1600"
     inkscape:window-maximized="1" />
  <metadata
     id="metadata309">
    <rdf:RDF>
      <cc:Work
         rdf:about="">
        <dc:format>image/svg+xml</dc:format>
        <dc:type
           rdf:resource="http://purl.org/dc/dcmitype/StillImage" />
        <dc:title />
      </cc:Work>
    </rdf:RDF>
  </metadata>
  <g
     inkscape:label="Layer 1"
     inkscape:groupmode="layer"
     id="layer1">
    <path
       style="fill:#0067b4;stroke-width:0.26458332"
       inkscape:connector-curvature="0"
       id="path112"
       d="m 25.43122,27.759986 v -0.75856 h 1.148292 v -0.75856 H 25.43122 v -0.758825 h -0.758031 v 0.758825 0.75856 0.75856 0 c 0,0.8382 0.678921,1.51765 1.517121,1.51765 h 0.389202 V 28.518811 H 26.19031 v 0 c -0.418836,0 -0.75909,-0.339725 -0.75909,-0.758825 z m -1.098021,-0.01773 c 0,-0.833966 -0.67601,-1.509977 -1.509448,-1.509977 -0.275431,0 -0.53287,0.07408 -0.755385,0.202407 v -0.202407 h -0.754592 v 3.774811 h 0.754592 v -0.957527 c 0.222779,0.128587 0.479954,0.202935 0.755385,0.202935 0.833438,-2.65e-4 1.509448,-0.67654 1.509448,-1.510242 z m -0.754856,0 c 0,0.416984 -0.337873,0.754857 -0.754592,0.754857 -0.416983,0 -0.755385,-0.337609 -0.755385,-0.754857 0,-0.417248 0.338402,-0.75512 0.755385,-0.75512 0.416455,0 0.754592,0.338137 0.754592,0.75512 z M 13.931899,6.4366867 V 7.2354638 C 13.127831,6.7319617 12.177447,6.4395971 11.159066,6.4395971 c -2.8895144,0 -5.2321352,2.3426208 -5.2321352,5.2318709 0,2.889779 2.3426208,5.231871 5.2321352,5.231871 1.018646,0 1.968765,-0.2921 2.772833,-0.795867 v 0.799042 h 2.459303 V 6.4366867 Z m -0.106097,5.2321353 c 0,1.473994 -1.195123,2.668852 -2.669117,2.668852 -1.4737292,0 -2.6688521,-1.194858 -2.6688521,-2.668852 0,-1.473994 1.1951229,-2.6693811 2.6688521,-2.6693811 1.474258,0 2.669117,1.1953871 2.669117,2.6693811 z m -2.932907,10.92544 H 22.030531 V 19.864026 H 10.921735 c -4.5238458,0 -8.1912354,-3.667389 -8.1912354,-8.191235 0,-4.523846 3.6673896,-8.1912355 8.1912354,-8.1912355 v 0 H 22.030531 V 0.75158471 H 10.892895 v 5.2916e-4 C 4.8744183,0.76772429 -3.3953998e-7,5.6508742 -3.3953998e-7,11.672791 -3.3953998e-7,17.695237 4.8744183,22.578122 10.892895,22.593468 Z m 11.137636,-5.687748 v -2.551377 c -1.439598,-0.03916 -2.594769,-1.221052 -2.594769,-2.673615 0,-1.453092 1.154906,-2.6347207 2.594769,-2.6741436 V 6.4366867 c -2.868613,0.017462 -5.189273,2.3539979 -5.189273,5.2347813 0,2.880783 2.32066,5.217054 5.189273,5.235046 z M 1.1914184,27.756282 c 0,0.841904 0.6823604,1.524 1.524,1.524 0.2780771,0 0.5378979,-0.07435 0.7622645,-0.203993 v 0.203993 h 0.7622646 v -3.048 H 3.4776829 v 0.204259 C 3.2533163,26.306895 2.9934955,26.232282 2.7154184,26.232282 c -0.8416396,0 -1.524,0.682361 -1.524,1.524 z m 0.7622646,-0.01138 c 0,-0.420952 0.3410479,-0.762264 0.7617354,-0.762264 0.4212166,0 0.7622645,0.341312 0.7622645,0.762264 0,0.420688 -0.3410479,0.762 -0.7622645,0.762 -0.4206875,0 -0.7617354,-0.341312 -0.7617354,-0.762 z m 3.3874603,-1.51262 H 4.5794079 v 1.524 c 0,0.841904 0.6820959,1.524 1.524,1.524 0.2775479,0 0.5378979,-0.07435 0.762,-0.203993 v 0.203993 h 0.762 v -3.048 h -0.762 v 0.204259 1.319477 c 0,0.420952 -0.3410479,0.762 -0.762,0.762 -0.4212166,0 -0.7622646,-0.341048 -0.7622646,-0.762 v 0 0 -1.319477 z M 8.737335,25.484041 H 7.97851 v 0.758825 0.75856 0.75856 0 c 0,0.8382 0.6791854,1.51765 1.5173854,1.51765 H 9.8845683 V 28.518811 H 9.4958954 c -0.4191,0 -0.7585604,-0.339725 -0.7585604,-0.758825 v -0.75856 h 1.1472333 v -0.75856 H 8.737335 Z m 1.379273,2.286264 c 0,0.841904 0.682096,1.524265 1.524,1.524265 0.841904,0 1.524529,-0.682361 1.524529,-1.524265 0,-0.841904 -0.682625,-1.524264 -1.524529,-1.524264 -0.841904,0 -1.524,0.682625 -1.524,1.524264 z m 0.762,0 c 0,-0.420952 0.341312,-0.762 0.762,-0.762 0.420952,0 0.762,0.341048 0.762,0.762 0,0.420688 -0.341048,0.762 -0.762,0.762 -0.420688,0 -0.762,-0.341312 -0.762,-0.762 z m 2.62546,-0.01402 c 0,0.831321 0.671777,1.505744 1.502569,1.509713 v 2.64e-4 h 0.0074 v 0 h 0.373592 v -0.75512 h -0.373592 c -0.416983,0 -0.755121,-0.337873 -0.755121,-0.755121 0,-0.417248 0.338138,-0.754857 0.755121,-0.754857 h 0.373592 v -0.75512 h -0.381 v 2.64e-4 c -0.830792,0.0042 -1.502569,0.678656 -1.502569,1.509977 z m 2.97815,-1.524 h -0.755121 v 1.509977 0 0 1.509977 h 0.755121 v -1.510241 c 0,-0.416719 0.337873,-0.754856 0.754856,-0.754856 h 0.377825 v -0.755121 h -0.428625 v 7.93e-4 c -0.255852,0.0087 -0.495564,0.08123 -0.703791,0.201613 v -0.202142 z m 2.226998,0 h -0.755121 v 1.509977 0 c 0,0.703527 0.481013,1.294607 1.132152,1.462088 v 0.802481 h 0.755121 V 29.20435 c 0.65114,-0.167746 1.132681,-0.758561 1.132681,-1.462088 v -1.509977 h -0.75512 v 1.509977 c 0,0.416984 -0.337873,0.754857 -0.755121,0.754857 -0.417248,0 -0.755121,-0.337609 -0.755121,-0.754857 v 0 -1.30757 -0.202407 z" />
    <path
       id="path114"
       d="m 23.13691,-1.2835612e-6 c 0,0 -0.656291,-1.296458288e-4 -0.656291,0.6557750735612 V 22.686469 c 0,0 2.64e-4,0.656291 0.656291,0.656291 h 3.212724 c 0,2.64e-4 0.655775,-1.25e-4 0.655775,-0.656291 V 0.65577379 c 0,0 1.27e-4,-0.6557750735612 -0.655775,-0.6557750735612 z M 10.673588,0.75137304 11.77223,3.4793727 H 22.030517 V 0.75137304 Z m 7.781954,19.11149396 1.102259,2.730066 2.472716,0.0041 v -2.730574 z"
       style="fill:#5186c5;stroke-width:0.26458332"
       inkscape:connector-curvature="0" />
    <path
       style="fill:#7599d0;stroke-width:0.26458332"
       inkscape:connector-curvature="0"
       id="path118"
       d="m 25.816454,6.4366867 c 0,0 -0.529167,0 -0.529167,0.5291667 v 9.4040856 c 0,0 0,0.529166 0.529167,0.529166 h 1.189037 V 6.4366867 Z" />
  </g>
</svg>
