<?xml version="1.0" encoding="UTF-8" standalone="yes"?><svg xmlns="http://www.w3.org/2000/svg" xmlns:xlink="http://www.w3.org/1999/xlink" height="644px" style="width:654px;height:644px;" version="1.1" viewBox="0 0 654 644" width="654px"><defs><filter height="300%" id="f1" width="300%" x="-1" y="-1"><feGaussianBlur result="blurOut" stdDeviation="2.0"/><feColorMatrix in="blurOut" result="blurOut2" type="matrix" values="0 0 0 0 0 0 0 0 0 0 0 0 0 0 0 0 0 0 .4 0"/><feOffset dx="4.0" dy="4.0" in="blurOut2" result="blurOut3"/><feBlend in="SourceGraphic" in2="blurOut3" mode="normal"/></filter></defs><g><text fill="#000000" font-family="sans-serif" font-size="14" font-weight="bold" lengthAdjust="spacingAndGlyphs" textLength="296" x="180.5" y="22.9951">"happy path" (1:1) sequence diagram</text><rect fill="#FFFFFF" filter="url(#f1)" height="30" style="stroke: #A80036; stroke-width: 1.0;" width="10" x="97" y="190.8594"/><rect fill="#FFFFFF" filter="url(#f1)" height="30" style="stroke: #A80036; stroke-width: 1.0;" width="10" x="97" y="328.2578"/><rect fill="#FFFFFF" filter="url(#f1)" height="30" style="stroke: #A80036; stroke-width: 1.0;" width="10" x="97" y="465.6563"/><rect fill="#FFFFFF" filter="url(#f1)" height="30" style="stroke: #A80036; stroke-width: 1.0;" width="10" x="553" y="190.8594"/><rect fill="#FFFFFF" filter="url(#f1)" height="30" style="stroke: #A80036; stroke-width: 1.0;" width="10" x="553" y="328.2578"/><rect fill="#FFFFFF" filter="url(#f1)" height="30" style="stroke: #A80036; stroke-width: 1.0;" width="10" x="553" y="465.6563"/><line style="stroke: #A80036; stroke-width: 1.0; stroke-dasharray: 5.0,5.0;" x1="102" x2="102" y1="81.5938" y2="592.0547"/><line style="stroke: #A80036; stroke-width: 1.0; stroke-dasharray: 5.0,5.0;" x1="558" x2="558" y1="81.5938" y2="592.0547"/><text fill="#000000" font-family="sans-serif" font-size="14" lengthAdjust="spacingAndGlyphs" textLength="32" x="83" y="78.292">Alice</text><ellipse cx="102" cy="49.2969" fill="#0000FF" filter="url(#f1)" rx="12" ry="12" style="stroke: #A80036; stroke-width: 2.0;"/><polygon fill="#A80036" points="98,37.2969,104,32.2969,102,37.2969,104,42.2969,98,37.2969" style="stroke: #A80036; stroke-width: 1.0;"/><text fill="#000000" font-family="sans-serif" font-size="14" lengthAdjust="spacingAndGlyphs" textLength="32" x="83" y="604.0498">Alice</text><ellipse cx="102" cy="623.3516" fill="#0000FF" filter="url(#f1)" rx="12" ry="12" style="stroke: #A80036; stroke-width: 2.0;"/><polygon fill="#A80036" points="98,611.3516,104,606.3516,102,611.3516,104,616.3516,98,611.3516" style="stroke: #A80036; stroke-width: 1.0;"/><text fill="#000000" font-family="sans-serif" font-size="14" lengthAdjust="spacingAndGlyphs" textLength="28" x="541" y="78.292">Bob</text><ellipse cx="558" cy="49.2969" fill="#FF0000" filter="url(#f1)" rx="12" ry="12" style="stroke: #A80036; stroke-width: 2.0;"/><polygon fill="#A80036" points="554,37.2969,560,32.2969,558,37.2969,560,42.2969,554,37.2969" style="stroke: #A80036; stroke-width: 1.0;"/><text fill="#000000" font-family="sans-serif" font-size="14" lengthAdjust="spacingAndGlyphs" textLength="28" x="541" y="604.0498">Bob</text><ellipse cx="558" cy="623.3516" fill="#FF0000" filter="url(#f1)" rx="12" ry="12" style="stroke: #A80036; stroke-width: 2.0;"/><polygon fill="#A80036" points="554,611.3516,560,606.3516,558,611.3516,560,616.3516,554,611.3516" style="stroke: #A80036; stroke-width: 1.0;"/><rect fill="#FFFFFF" filter="url(#f1)" height="30" style="stroke: #A80036; stroke-width: 1.0;" width="10" x="97" y="190.8594"/><rect fill="#FFFFFF" filter="url(#f1)" height="30" style="stroke: #A80036; stroke-width: 1.0;" width="10" x="97" y="328.2578"/><rect fill="#FFFFFF" filter="url(#f1)" height="30" style="stroke: #A80036; stroke-width: 1.0;" width="10" x="97" y="465.6563"/><rect fill="#FFFFFF" filter="url(#f1)" height="30" style="stroke: #A80036; stroke-width: 1.0;" width="10" x="553" y="190.8594"/><rect fill="#FFFFFF" filter="url(#f1)" height="30" style="stroke: #A80036; stroke-width: 1.0;" width="10" x="553" y="328.2578"/><rect fill="#FFFFFF" filter="url(#f1)" height="30" style="stroke: #A80036; stroke-width: 1.0;" width="10" x="553" y="465.6563"/><polygon fill="#FBFB77" filter="url(#f1)" points="8,96.5938,8,121.5938,192,121.5938,192,106.5938,182,96.5938,8,96.5938" style="stroke: #A80036; stroke-width: 1.0;"/><line style="stroke: #A80036; stroke-width: 1.0;" x1="182" x2="182" y1="96.5938" y2="106.5938"/><line style="stroke: #A80036; stroke-width: 1.0;" x1="192" x2="182" y1="106.5938" y2="106.5938"/><text fill="#000000" font-family="sans-serif" font-size="13" lengthAdjust="spacingAndGlyphs" textLength="163" x="14" y="113.6606">&lt;alice@a.example.com&gt;</text><polygon fill="#FBFB77" filter="url(#f1)" points="466,135.7266,466,160.7266,645,160.7266,645,145.7266,635,135.7266,466,135.7266" style="stroke: #A80036; stroke-width: 1.0;"/><line style="stroke: #A80036; stroke-width: 1.0;" x1="635" x2="635" y1="135.7266" y2="145.7266"/><line style="stroke: #A80036; stroke-width: 1.0;" x1="645" x2="635" y1="145.7266" y2="145.7266"/><text fill="#000000" font-family="sans-serif" font-size="13" lengthAdjust="spacingAndGlyphs" textLength="158" x="472" y="152.7935">&lt;bob@b.example.com&gt;</text><polygon fill="#A80036" points="541,186.8594,551,190.8594,541,194.8594,545,190.8594" style="stroke: #A80036; stroke-width: 1.0;"/><line style="stroke: #A80036; stroke-width: 1.0; stroke-dasharray: 2.0,2.0;" x1="107" x2="547" y1="190.8594" y2="190.8594"/><text fill="#000000" font-family="sans-serif" font-size="13" font-weight="bold" lengthAdjust="spacingAndGlyphs" textLength="9" x="114" y="185.9263">1</text><text fill="#000000" font-family="sans-serif" font-size="13" lengthAdjust="spacingAndGlyphs" textLength="419" x="127" y="185.9263">Autocrypt: to=alice@a.example; prefer-encrypted=yes; key=AAA</text><polygon fill="#FBFB77" filter="url(#f1)" points="500,233.9922,500,258.9922,611,258.9922,611,243.9922,601,233.9922,500,233.9922" style="stroke: #A80036; stroke-width: 1.0;"/><line style="stroke: #A80036; stroke-width: 1.0;" x1="601" x2="601" y1="233.9922" y2="243.9922"/><line style="stroke: #A80036; stroke-width: 1.0;" x1="611" x2="601" y1="243.9922" y2="243.9922"/><text fill="#000000" font-family="sans-serif" font-size="13" lengthAdjust="spacingAndGlyphs" textLength="90" x="506" y="251.0591">save Alice key</text><polygon fill="#FBFB77" filter="url(#f1)" points="504,273.125,504,298.125,608,298.125,608,283.125,598,273.125,504,273.125" style="stroke: #A80036; stroke-width: 1.0;"/><line style="stroke: #A80036; stroke-width: 1.0;" x1="598" x2="598" y1="273.125" y2="283.125"/><line style="stroke: #A80036; stroke-width: 1.0;" x1="608" x2="598" y1="283.125" y2="283.125"/><text fill="#000000" font-family="sans-serif" font-size="13" lengthAdjust="spacingAndGlyphs" textLength="83" x="510" y="290.1919">use Alice key</text><polygon fill="#A80036" points="118,324.2578,108,328.2578,118,332.2578,114,328.2578" style="stroke: #A80036; stroke-width: 1.0;"/><line style="stroke: #A80036; stroke-width: 1.0;" x1="112" x2="552" y1="328.2578" y2="328.2578"/><text fill="#000000" font-family="sans-serif" font-size="13" font-weight="bold" lengthAdjust="spacingAndGlyphs" textLength="9" x="124" y="323.3247">2</text><text fill="#000000" font-family="sans-serif" font-size="13" lengthAdjust="spacingAndGlyphs" textLength="414" x="137" y="323.3247">Autocrypt: to=bob@b.example; prefer-encrypted=yes; key=BBB</text><polygon fill="#FBFB77" filter="url(#f1)" points="47,371.3906,47,396.3906,153,396.3906,153,381.3906,143,371.3906,47,371.3906" style="stroke: #A80036; stroke-width: 1.0;"/><line style="stroke: #A80036; stroke-width: 1.0;" x1="143" x2="143" y1="371.3906" y2="381.3906"/><line style="stroke: #A80036; stroke-width: 1.0;" x1="153" x2="143" y1="381.3906" y2="381.3906"/><text fill="#000000" font-family="sans-serif" font-size="13" lengthAdjust="spacingAndGlyphs" textLength="85" x="53" y="388.4575">save Bob key</text><polygon fill="#FBFB77" filter="url(#f1)" points="50,410.5234,50,435.5234,149,435.5234,149,420.5234,139,410.5234,50,410.5234" style="stroke: #A80036; stroke-width: 1.0;"/><line style="stroke: #A80036; stroke-width: 1.0;" x1="139" x2="139" y1="410.5234" y2="420.5234"/><line style="stroke: #A80036; stroke-width: 1.0;" x1="149" x2="139" y1="420.5234" y2="420.5234"/><text fill="#000000" font-family="sans-serif" font-size="13" lengthAdjust="spacingAndGlyphs" textLength="78" x="56" y="427.5903">use Bob key</text><polygon fill="#A80036" points="541,461.6563,551,465.6563,541,469.6563,545,465.6563" style="stroke: #A80036; stroke-width: 1.0;"/><line style="stroke: #A80036; stroke-width: 1.0;" x1="107" x2="547" y1="465.6563" y2="465.6563"/><text fill="#000000" font-family="sans-serif" font-size="13" font-weight="bold" lengthAdjust="spacingAndGlyphs" textLength="9" x="114" y="460.7231">3</text><text fill="#000000" font-family="sans-serif" font-size="13" lengthAdjust="spacingAndGlyphs" textLength="419" x="127" y="460.7231">Autocrypt: to=alice@a.example; prefer-encrypted=yes; key=AAA</text><polygon fill="#FBFB77" filter="url(#f1)" points="33,508.7891,33,533.7891,166,533.7891,166,518.7891,156,508.7891,33,508.7891" style="stroke: #A80036; stroke-width: 1.0;"/><line style="stroke: #A80036; stroke-width: 1.0;" x1="156" x2="156" y1="508.7891" y2="518.7891"/><line style="stroke: #A80036; stroke-width: 1.0;" x1="166" x2="156" y1="518.7891" y2="518.7891"/><text fill="#000000" font-family="sans-serif" font-size="13" lengthAdjust="spacingAndGlyphs" textLength="112" x="39" y="525.856">Alice has Bob key</text><polygon fill="#FBFB77" filter="url(#f1)" points="489,547.9219,489,572.9219,622,572.9219,622,557.9219,612,547.9219,489,547.9219" style="stroke: #A80036; stroke-width: 1.0;"/><line style="stroke: #A80036; stroke-width: 1.0;" x1="612" x2="612" y1="547.9219" y2="557.9219"/><line style="stroke: #A80036; stroke-width: 1.0;" x1="622" x2="612" y1="557.9219" y2="557.9219"/><text fill="#000000" font-family="sans-serif" font-size="13" lengthAdjust="spacingAndGlyphs" textLength="112" x="495" y="564.9888">Bob has Alice key</text></g></svg>