<?xml version="1.0" encoding="UTF-8" standalone="yes"?><svg xmlns="http://www.w3.org/2000/svg" xmlns:xlink="http://www.w3.org/1999/xlink" height="958px" style="width:1133px;height:958px;" version="1.1" viewBox="0 0 1133 958" width="1133px"><defs><filter height="300%" id="f1" width="300%" x="-1" y="-1"><feGaussianBlur result="blurOut" stdDeviation="2.0"/><feColorMatrix in="blurOut" result="blurOut2" type="matrix" values="0 0 0 0 0 0 0 0 0 0 0 0 0 0 0 0 0 0 .4 0"/><feOffset dx="4.0" dy="4.0" in="blurOut2" result="blurOut3"/><feBlend in="SourceGraphic" in2="blurOut3" mode="normal"/></filter></defs><g><text fill="#000000" font-family="sans-serif" font-size="14" font-weight="bold" lengthAdjust="spacingAndGlyphs" textLength="244" x="446" y="22.9951">Group (1:N) sequence diagram</text><rect fill="#FFFFFF" filter="url(#f1)" height="128.2656" style="stroke: #A80036; stroke-width: 1.0;" width="10" x="107" y="229.9922"/><rect fill="#FFFFFF" filter="url(#f1)" height="30" style="stroke: #A80036; stroke-width: 1.0;" width="10" x="107" y="465.6563"/><rect fill="#FFFFFF" filter="url(#f1)" height="30" style="stroke: #A80036; stroke-width: 1.0;" width="10" x="107" y="701.3203"/><rect fill="#FFFFFF" filter="url(#f1)" height="30" style="stroke: #A80036; stroke-width: 1.0;" width="10" x="563" y="229.9922"/><rect fill="#FFFFFF" filter="url(#f1)" height="128.2656" style="stroke: #A80036; stroke-width: 1.0;" width="10" x="563" y="465.6563"/><rect fill="#FFFFFF" filter="url(#f1)" height="30" style="stroke: #A80036; stroke-width: 1.0;" width="10" x="1019" y="328.2578"/><rect fill="#FFFFFF" filter="url(#f1)" height="30" style="stroke: #A80036; stroke-width: 1.0;" width="10" x="1019" y="563.9219"/><rect fill="#FFFFFF" filter="url(#f1)" height="30" style="stroke: #A80036; stroke-width: 1.0;" width="10" x="1019" y="701.3203"/><line style="stroke: #A80036; stroke-width: 1.0; stroke-dasharray: 5.0,5.0;" x1="112" x2="112" y1="81.5938" y2="905.9844"/><line style="stroke: #A80036; stroke-width: 1.0; stroke-dasharray: 5.0,5.0;" x1="568" x2="568" y1="81.5938" y2="905.9844"/><line style="stroke: #A80036; stroke-width: 1.0; stroke-dasharray: 5.0,5.0;" x1="1023.5" x2="1023.5" y1="81.5938" y2="905.9844"/><text fill="#000000" font-family="sans-serif" font-size="14" lengthAdjust="spacingAndGlyphs" textLength="32" x="93" y="78.292">Alice</text><ellipse cx="112" cy="49.2969" fill="#0000FF" filter="url(#f1)" rx="12" ry="12" style="stroke: #A80036; stroke-width: 2.0;"/><polygon fill="#A80036" points="108,37.2969,114,32.2969,112,37.2969,114,42.2969,108,37.2969" style="stroke: #A80036; stroke-width: 1.0;"/><text fill="#000000" font-family="sans-serif" font-size="14" lengthAdjust="spacingAndGlyphs" textLength="32" x="93" y="917.9795">Alice</text><ellipse cx="112" cy="937.2813" fill="#0000FF" filter="url(#f1)" rx="12" ry="12" style="stroke: #A80036; stroke-width: 2.0;"/><polygon fill="#A80036" points="108,925.2813,114,920.2813,112,925.2813,114,930.2813,108,925.2813" style="stroke: #A80036; stroke-width: 1.0;"/><text fill="#000000" font-family="sans-serif" font-size="14" lengthAdjust="spacingAndGlyphs" textLength="28" x="551" y="78.292">Bob</text><ellipse cx="568" cy="49.2969" fill="#FF0000" filter="url(#f1)" rx="12" ry="12" style="stroke: #A80036; stroke-width: 2.0;"/><polygon fill="#A80036" points="564,37.2969,570,32.2969,568,37.2969,570,42.2969,564,37.2969" style="stroke: #A80036; stroke-width: 1.0;"/><text fill="#000000" font-family="sans-serif" font-size="14" lengthAdjust="spacingAndGlyphs" textLength="28" x="551" y="917.9795">Bob</text><ellipse cx="568" cy="937.2813" fill="#FF0000" filter="url(#f1)" rx="12" ry="12" style="stroke: #A80036; stroke-width: 2.0;"/><polygon fill="#A80036" points="564,925.2813,570,920.2813,568,925.2813,570,930.2813,564,925.2813" style="stroke: #A80036; stroke-width: 1.0;"/><text fill="#000000" font-family="sans-serif" font-size="14" lengthAdjust="spacingAndGlyphs" textLength="35" x="1003.5" y="78.292">Carol</text><ellipse cx="1024" cy="49.2969" fill="#008000" filter="url(#f1)" rx="12" ry="12" style="stroke: #A80036; stroke-width: 2.0;"/><polygon fill="#A80036" points="1020,37.2969,1026,32.2969,1024,37.2969,1026,42.2969,1020,37.2969" style="stroke: #A80036; stroke-width: 1.0;"/><text fill="#000000" font-family="sans-serif" font-size="14" lengthAdjust="spacingAndGlyphs" textLength="35" x="1003.5" y="917.9795">Carol</text><ellipse cx="1024" cy="937.2813" fill="#008000" filter="url(#f1)" rx="12" ry="12" style="stroke: #A80036; stroke-width: 2.0;"/><polygon fill="#A80036" points="1020,925.2813,1026,920.2813,1024,925.2813,1026,930.2813,1020,925.2813" style="stroke: #A80036; stroke-width: 1.0;"/><rect fill="#FFFFFF" filter="url(#f1)" height="128.2656" style="stroke: #A80036; stroke-width: 1.0;" width="10" x="107" y="229.9922"/><rect fill="#FFFFFF" filter="url(#f1)" height="30" style="stroke: #A80036; stroke-width: 1.0;" width="10" x="107" y="465.6563"/><rect fill="#FFFFFF" filter="url(#f1)" height="30" style="stroke: #A80036; stroke-width: 1.0;" width="10" x="107" y="701.3203"/><rect fill="#FFFFFF" filter="url(#f1)" height="30" style="stroke: #A80036; stroke-width: 1.0;" width="10" x="563" y="229.9922"/><rect fill="#FFFFFF" filter="url(#f1)" height="128.2656" style="stroke: #A80036; stroke-width: 1.0;" width="10" x="563" y="465.6563"/><rect fill="#FFFFFF" filter="url(#f1)" height="30" style="stroke: #A80036; stroke-width: 1.0;" width="10" x="1019" y="328.2578"/><rect fill="#FFFFFF" filter="url(#f1)" height="30" style="stroke: #A80036; stroke-width: 1.0;" width="10" x="1019" y="563.9219"/><rect fill="#FFFFFF" filter="url(#f1)" height="30" style="stroke: #A80036; stroke-width: 1.0;" width="10" x="1019" y="701.3203"/><polygon fill="#FBFB77" filter="url(#f1)" points="18,96.5938,18,121.5938,202,121.5938,202,106.5938,192,96.5938,18,96.5938" style="stroke: #A80036; stroke-width: 1.0;"/><line style="stroke: #A80036; stroke-width: 1.0;" x1="192" x2="192" y1="96.5938" y2="106.5938"/><line style="stroke: #A80036; stroke-width: 1.0;" x1="202" x2="192" y1="106.5938" y2="106.5938"/><text fill="#000000" font-family="sans-serif" font-size="13" lengthAdjust="spacingAndGlyphs" textLength="163" x="24" y="113.6606">&lt;alice@a.example.com&gt;</text><polygon fill="#FBFB77" filter="url(#f1)" points="476,135.7266,476,160.7266,655,160.7266,655,145.7266,645,135.7266,476,135.7266" style="stroke: #A80036; stroke-width: 1.0;"/><line style="stroke: #A80036; stroke-width: 1.0;" x1="645" x2="645" y1="135.7266" y2="145.7266"/><line style="stroke: #A80036; stroke-width: 1.0;" x1="655" x2="645" y1="145.7266" y2="145.7266"/><text fill="#000000" font-family="sans-serif" font-size="13" lengthAdjust="spacingAndGlyphs" textLength="158" x="482" y="152.7935">&lt;bob@b.example.com&gt;</text><polygon fill="#FBFB77" filter="url(#f1)" points="929,174.8594,929,199.8594,1114,199.8594,1114,184.8594,1104,174.8594,929,174.8594" style="stroke: #A80036; stroke-width: 1.0;"/><line style="stroke: #A80036; stroke-width: 1.0;" x1="1104" x2="1104" y1="174.8594" y2="184.8594"/><line style="stroke: #A80036; stroke-width: 1.0;" x1="1114" x2="1104" y1="184.8594" y2="184.8594"/><text fill="#000000" font-family="sans-serif" font-size="13" lengthAdjust="spacingAndGlyphs" textLength="164" x="935" y="191.9263">&lt;carol@c.example.com&gt;</text><polygon fill="#A80036" points="551,225.9922,561,229.9922,551,233.9922,555,229.9922" style="stroke: #A80036; stroke-width: 1.0;"/><line style="stroke: #A80036; stroke-width: 1.0; stroke-dasharray: 2.0,2.0;" x1="117" x2="557" y1="229.9922" y2="229.9922"/><text fill="#000000" font-family="sans-serif" font-size="13" font-weight="bold" lengthAdjust="spacingAndGlyphs" textLength="9" x="124" y="225.0591">1</text><text fill="#000000" font-family="sans-serif" font-size="13" lengthAdjust="spacingAndGlyphs" textLength="419" x="137" y="225.0591">Autocrypt: to=alice@a.example; prefer-encrypted=yes; key=AAA</text><polygon fill="#FBFB77" filter="url(#f1)" points="510,273.125,510,298.125,621,298.125,621,283.125,611,273.125,510,273.125" style="stroke: #A80036; stroke-width: 1.0;"/><line style="stroke: #A80036; stroke-width: 1.0;" x1="611" x2="611" y1="273.125" y2="283.125"/><line style="stroke: #A80036; stroke-width: 1.0;" x1="621" x2="611" y1="283.125" y2="283.125"/><text fill="#000000" font-family="sans-serif" font-size="13" lengthAdjust="spacingAndGlyphs" textLength="90" x="516" y="290.1919">save Alice key</text><polygon fill="#A80036" points="1007,324.2578,1017,328.2578,1007,332.2578,1011,328.2578" style="stroke: #A80036; stroke-width: 1.0;"/><line style="stroke: #A80036; stroke-width: 1.0; stroke-dasharray: 2.0,2.0;" x1="117" x2="1013" y1="328.2578" y2="328.2578"/><text fill="#000000" font-family="sans-serif" font-size="13" font-weight="bold" lengthAdjust="spacingAndGlyphs" textLength="9" x="124" y="323.3247">2</text><text fill="#000000" font-family="sans-serif" font-size="13" lengthAdjust="spacingAndGlyphs" textLength="419" x="137" y="323.3247">Autocrypt: to=alice@a.example; prefer-encrypted=yes; key=AAA</text><polygon fill="#FBFB77" filter="url(#f1)" points="966,371.3906,966,396.3906,1077,396.3906,1077,381.3906,1067,371.3906,966,371.3906" style="stroke: #A80036; stroke-width: 1.0;"/><line style="stroke: #A80036; stroke-width: 1.0;" x1="1067" x2="1067" y1="371.3906" y2="381.3906"/><line style="stroke: #A80036; stroke-width: 1.0;" x1="1077" x2="1067" y1="381.3906" y2="381.3906"/><text fill="#000000" font-family="sans-serif" font-size="13" lengthAdjust="spacingAndGlyphs" textLength="90" x="972" y="388.4575">save Alice key</text><polygon fill="#FBFB77" filter="url(#f1)" points="514,410.5234,514,435.5234,618,435.5234,618,420.5234,608,410.5234,514,410.5234" style="stroke: #A80036; stroke-width: 1.0;"/><line style="stroke: #A80036; stroke-width: 1.0;" x1="608" x2="608" y1="410.5234" y2="420.5234"/><line style="stroke: #A80036; stroke-width: 1.0;" x1="618" x2="608" y1="420.5234" y2="420.5234"/><text fill="#000000" font-family="sans-serif" font-size="13" lengthAdjust="spacingAndGlyphs" textLength="83" x="520" y="427.5903">use Alice key</text><polygon fill="#A80036" points="128,461.6563,118,465.6563,128,469.6563,124,465.6563" style="stroke: #A80036; stroke-width: 1.0;"/><line style="stroke: #A80036; stroke-width: 1.0;" x1="122" x2="562" y1="465.6563" y2="465.6563"/><text fill="#000000" font-family="sans-serif" font-size="13" font-weight="bold" lengthAdjust="spacingAndGlyphs" textLength="9" x="134" y="460.7231">3</text><text fill="#000000" font-family="sans-serif" font-size="13" lengthAdjust="spacingAndGlyphs" textLength="414" x="147" y="460.7231">Autocrypt: to=bob@b.example; prefer-encrypted=yes; key=BBB</text><polygon fill="#FBFB77" filter="url(#f1)" points="57,508.7891,57,533.7891,163,533.7891,163,518.7891,153,508.7891,57,508.7891" style="stroke: #A80036; stroke-width: 1.0;"/><line style="stroke: #A80036; stroke-width: 1.0;" x1="153" x2="153" y1="508.7891" y2="518.7891"/><line style="stroke: #A80036; stroke-width: 1.0;" x1="163" x2="153" y1="518.7891" y2="518.7891"/><text fill="#000000" font-family="sans-serif" font-size="13" lengthAdjust="spacingAndGlyphs" textLength="85" x="63" y="525.856">save Bob key</text><polygon fill="#A80036" points="1007,559.9219,1017,563.9219,1007,567.9219,1011,563.9219" style="stroke: #A80036; stroke-width: 1.0;"/><line style="stroke: #A80036; stroke-width: 1.0; stroke-dasharray: 2.0,2.0;" x1="573" x2="1013" y1="563.9219" y2="563.9219"/><text fill="#000000" font-family="sans-serif" font-size="13" font-weight="bold" lengthAdjust="spacingAndGlyphs" textLength="9" x="580" y="558.9888">4</text><text fill="#000000" font-family="sans-serif" font-size="13" lengthAdjust="spacingAndGlyphs" textLength="414" x="593" y="558.9888">Autocrypt: to=bob@b.example; prefer-encrypted=yes; key=BBB</text><polygon fill="#FBFB77" filter="url(#f1)" points="969,607.0547,969,632.0547,1075,632.0547,1075,617.0547,1065,607.0547,969,607.0547" style="stroke: #A80036; stroke-width: 1.0;"/><line style="stroke: #A80036; stroke-width: 1.0;" x1="1065" x2="1065" y1="607.0547" y2="617.0547"/><line style="stroke: #A80036; stroke-width: 1.0;" x1="1075" x2="1065" y1="617.0547" y2="617.0547"/><text fill="#000000" font-family="sans-serif" font-size="13" lengthAdjust="spacingAndGlyphs" textLength="85" x="975" y="624.1216">save Bob key</text><polygon fill="#FBFB77" filter="url(#f1)" points="970,646.1875,970,671.1875,1074,671.1875,1074,656.1875,1064,646.1875,970,646.1875" style="stroke: #A80036; stroke-width: 1.0;"/><line style="stroke: #A80036; stroke-width: 1.0;" x1="1064" x2="1064" y1="646.1875" y2="656.1875"/><line style="stroke: #A80036; stroke-width: 1.0;" x1="1074" x2="1064" y1="656.1875" y2="656.1875"/><text fill="#000000" font-family="sans-serif" font-size="13" lengthAdjust="spacingAndGlyphs" textLength="83" x="976" y="663.2544">use Alice key</text><polygon fill="#A80036" points="128,697.3203,118,701.3203,128,705.3203,124,701.3203" style="stroke: #A80036; stroke-width: 1.0;"/><line style="stroke: #A80036; stroke-width: 1.0;" x1="122" x2="1018" y1="701.3203" y2="701.3203"/><text fill="#000000" font-family="sans-serif" font-size="13" font-weight="bold" lengthAdjust="spacingAndGlyphs" textLength="9" x="134" y="696.3872">5</text><text fill="#000000" font-family="sans-serif" font-size="13" lengthAdjust="spacingAndGlyphs" textLength="420" x="147" y="696.3872">Autocrypt: to=carol@c.example; prefer-encrypted=yes; key=CCC</text><polygon fill="#FBFB77" filter="url(#f1)" points="53,744.4531,53,769.4531,167,769.4531,167,754.4531,157,744.4531,53,744.4531" style="stroke: #A80036; stroke-width: 1.0;"/><line style="stroke: #A80036; stroke-width: 1.0;" x1="157" x2="157" y1="744.4531" y2="754.4531"/><line style="stroke: #A80036; stroke-width: 1.0;" x1="167" x2="157" y1="754.4531" y2="754.4531"/><text fill="#000000" font-family="sans-serif" font-size="13" lengthAdjust="spacingAndGlyphs" textLength="93" x="59" y="761.52">save Carol key</text><polygon fill="#FBFB77" filter="url(#f1)" points="8,783.5859,8,808.5859,213,808.5859,213,793.5859,203,783.5859,8,783.5859" style="stroke: #A80036; stroke-width: 1.0;"/><line style="stroke: #A80036; stroke-width: 1.0;" x1="203" x2="203" y1="783.5859" y2="793.5859"/><line style="stroke: #A80036; stroke-width: 1.0;" x1="213" x2="203" y1="793.5859" y2="793.5859"/><text fill="#000000" font-family="sans-serif" font-size="13" lengthAdjust="spacingAndGlyphs" textLength="184" x="14" y="800.6528">Alice has Bob and Carol keys</text><polygon fill="#FBFB77" filter="url(#f1)" points="499,822.7188,499,847.7188,632,847.7188,632,832.7188,622,822.7188,499,822.7188" style="stroke: #A80036; stroke-width: 1.0;"/><line style="stroke: #A80036; stroke-width: 1.0;" x1="622" x2="622" y1="822.7188" y2="832.7188"/><line style="stroke: #A80036; stroke-width: 1.0;" x1="632" x2="622" y1="832.7188" y2="832.7188"/><text fill="#000000" font-family="sans-serif" font-size="13" lengthAdjust="spacingAndGlyphs" textLength="112" x="505" y="839.7856">Bob has Alice key</text><polygon fill="#FBFB77" filter="url(#f1)" points="919,861.8516,919,886.8516,1124,886.8516,1124,871.8516,1114,861.8516,919,861.8516" style="stroke: #A80036; stroke-width: 1.0;"/><line style="stroke: #A80036; stroke-width: 1.0;" x1="1114" x2="1114" y1="861.8516" y2="871.8516"/><line style="stroke: #A80036; stroke-width: 1.0;" x1="1124" x2="1114" y1="871.8516" y2="871.8516"/><text fill="#000000" font-family="sans-serif" font-size="13" lengthAdjust="spacingAndGlyphs" textLength="184" x="925" y="878.9185">Carol has Alice and Bob keys</text></g></svg>