<?xml version="1.0" encoding="UTF-8" standalone="yes"?><svg xmlns="http://www.w3.org/2000/svg" xmlns:xlink="http://www.w3.org/1999/xlink" height="441px" style="width:651px;height:441px;" version="1.1" viewBox="0 0 651 441" width="651px"><defs><filter height="300%" id="f1" width="300%" x="-1" y="-1"><feGaussianBlur result="blurOut" stdDeviation="2.0"/><feColorMatrix in="blurOut" result="blurOut2" type="matrix" values="0 0 0 0 0 0 0 0 0 0 0 0 0 0 0 0 0 0 .4 0"/><feOffset dx="4.0" dy="4.0" in="blurOut2" result="blurOut3"/><feBlend in="SourceGraphic" in2="blurOut3" mode="normal"/></filter></defs><g><text fill="#000000" font-family="sans-serif" font-size="14" font-weight="bold" lengthAdjust="spacingAndGlyphs" textLength="274" x="190" y="22.9951">"Alice lose key sequence diagram"</text><rect fill="#FFFFFF" filter="url(#f1)" height="28" style="stroke: #A80036; stroke-width: 1.0;" width="10" x="97" y="198.8594"/><rect fill="#FFFFFF" filter="url(#f1)" height="30" style="stroke: #A80036; stroke-width: 1.0;" width="10" x="97" y="302.125"/><rect fill="#FFFFFF" filter="url(#f1)" height="30" style="stroke: #A80036; stroke-width: 1.0;" width="10" x="550" y="302.125"/><line style="stroke: #A80036; stroke-width: 1.0; stroke-dasharray: 5.0,5.0;" x1="102" x2="102" y1="81.5938" y2="389.3906"/><line style="stroke: #A80036; stroke-width: 1.0; stroke-dasharray: 5.0,5.0;" x1="555" x2="555" y1="81.5938" y2="389.3906"/><text fill="#000000" font-family="sans-serif" font-size="14" lengthAdjust="spacingAndGlyphs" textLength="32" x="83" y="78.292">Alice</text><ellipse cx="102" cy="49.2969" fill="#0000FF" filter="url(#f1)" rx="12" ry="12" style="stroke: #A80036; stroke-width: 2.0;"/><polygon fill="#A80036" points="98,37.2969,104,32.2969,102,37.2969,104,42.2969,98,37.2969" style="stroke: #A80036; stroke-width: 1.0;"/><text fill="#000000" font-family="sans-serif" font-size="14" lengthAdjust="spacingAndGlyphs" textLength="32" x="83" y="401.3857">Alice</text><ellipse cx="102" cy="420.6875" fill="#0000FF" filter="url(#f1)" rx="12" ry="12" style="stroke: #A80036; stroke-width: 2.0;"/><polygon fill="#A80036" points="98,408.6875,104,403.6875,102,408.6875,104,413.6875,98,408.6875" style="stroke: #A80036; stroke-width: 1.0;"/><text fill="#000000" font-family="sans-serif" font-size="14" lengthAdjust="spacingAndGlyphs" textLength="28" x="538" y="78.292">Bob</text><ellipse cx="555" cy="49.2969" fill="#FF0000" filter="url(#f1)" rx="12" ry="12" style="stroke: #A80036; stroke-width: 2.0;"/><polygon fill="#A80036" points="551,37.2969,557,32.2969,555,37.2969,557,42.2969,551,37.2969" style="stroke: #A80036; stroke-width: 1.0;"/><text fill="#000000" font-family="sans-serif" font-size="14" lengthAdjust="spacingAndGlyphs" textLength="28" x="538" y="401.3857">Bob</text><ellipse cx="555" cy="420.6875" fill="#FF0000" filter="url(#f1)" rx="12" ry="12" style="stroke: #A80036; stroke-width: 2.0;"/><polygon fill="#A80036" points="551,408.6875,557,403.6875,555,408.6875,557,413.6875,551,408.6875" style="stroke: #A80036; stroke-width: 1.0;"/><rect fill="#FFFFFF" filter="url(#f1)" height="28" style="stroke: #A80036; stroke-width: 1.0;" width="10" x="97" y="198.8594"/><rect fill="#FFFFFF" filter="url(#f1)" height="30" style="stroke: #A80036; stroke-width: 1.0;" width="10" x="97" y="302.125"/><rect fill="#FFFFFF" filter="url(#f1)" height="30" style="stroke: #A80036; stroke-width: 1.0;" width="10" x="550" y="302.125"/><polygon fill="#FBFB77" filter="url(#f1)" points="8,96.5938,8,121.5938,192,121.5938,192,106.5938,182,96.5938,8,96.5938" style="stroke: #A80036; stroke-width: 1.0;"/><line style="stroke: #A80036; stroke-width: 1.0;" x1="182" x2="182" y1="96.5938" y2="106.5938"/><line style="stroke: #A80036; stroke-width: 1.0;" x1="192" x2="182" y1="106.5938" y2="106.5938"/><text fill="#000000" font-family="sans-serif" font-size="13" lengthAdjust="spacingAndGlyphs" textLength="163" x="14" y="113.6606">&lt;alice@a.example.com&gt;</text><polygon fill="#FBFB77" filter="url(#f1)" points="463,135.7266,463,160.7266,642,160.7266,642,145.7266,632,135.7266,463,135.7266" style="stroke: #A80036; stroke-width: 1.0;"/><line style="stroke: #A80036; stroke-width: 1.0;" x1="632" x2="632" y1="135.7266" y2="145.7266"/><line style="stroke: #A80036; stroke-width: 1.0;" x1="642" x2="632" y1="145.7266" y2="145.7266"/><text fill="#000000" font-family="sans-serif" font-size="13" lengthAdjust="spacingAndGlyphs" textLength="158" x="469" y="152.7935">&lt;bob@b.example.com&gt;</text><line style="stroke: #A80036; stroke-width: 1.0; stroke-dasharray: 2.0,2.0;" x1="107" x2="149" y1="190.9922" y2="190.9922"/><line style="stroke: #A80036; stroke-width: 1.0; stroke-dasharray: 2.0,2.0;" x1="149" x2="149" y1="190.9922" y2="203.9922"/><line style="stroke: #A80036; stroke-width: 1.0; stroke-dasharray: 2.0,2.0;" x1="108" x2="149" y1="203.9922" y2="203.9922"/><polygon fill="#A80036" points="118,199.9922,108,203.9922,118,207.9922,114,203.9922" style="stroke: #A80036; stroke-width: 1.0;"/><text fill="#000000" font-family="sans-serif" font-size="13" font-weight="bold" lengthAdjust="spacingAndGlyphs" textLength="9" x="114" y="185.9263">1</text><text fill="#000000" font-family="sans-serif" font-size="13" lengthAdjust="spacingAndGlyphs" textLength="138" x="127" y="185.9263">lost decryption key :-(</text><polygon fill="#FBFB77" filter="url(#f1)" points="12,246.9922,12,271.9922,187,271.9922,187,256.9922,177,246.9922,12,246.9922" style="stroke: #A80036; stroke-width: 1.0;"/><line style="stroke: #A80036; stroke-width: 1.0;" x1="177" x2="177" y1="246.9922" y2="256.9922"/><line style="stroke: #A80036; stroke-width: 1.0;" x1="187" x2="177" y1="256.9922" y2="256.9922"/><text fill="#000000" font-family="sans-serif" font-size="13" lengthAdjust="spacingAndGlyphs" textLength="154" x="18" y="264.0591">generate new Alices key</text><polygon fill="#A80036" points="538,298.125,548,302.125,538,306.125,542,302.125" style="stroke: #A80036; stroke-width: 1.0;"/><line style="stroke: #A80036; stroke-width: 1.0;" x1="107" x2="544" y1="302.125" y2="302.125"/><text fill="#000000" font-family="sans-serif" font-size="13" font-weight="bold" lengthAdjust="spacingAndGlyphs" textLength="9" x="114" y="297.1919">2</text><text fill="#000000" font-family="sans-serif" font-size="13" lengthAdjust="spacingAndGlyphs" textLength="416" x="127" y="297.1919">Autocrypt: to=alice@a.example; prefer-encrypted=yes; key=XXX</text><polygon fill="#FBFB77" filter="url(#f1)" points="479,345.2578,479,370.2578,626,370.2578,626,355.2578,616,345.2578,479,345.2578" style="stroke: #A80036; stroke-width: 1.0;"/><line style="stroke: #A80036; stroke-width: 1.0;" x1="616" x2="616" y1="345.2578" y2="355.2578"/><line style="stroke: #A80036; stroke-width: 1.0;" x1="626" x2="616" y1="355.2578" y2="355.2578"/><text fill="#000000" font-family="sans-serif" font-size="13" lengthAdjust="spacingAndGlyphs" textLength="126" x="485" y="362.3247">save Alices new key</text></g></svg>