<?xml version="1.0" encoding="UTF-8" standalone="yes"?><svg xmlns="http://www.w3.org/2000/svg" xmlns:xlink="http://www.w3.org/1999/xlink" height="1056px" style="width:1139px;height:1056px;" version="1.1" viewBox="0 0 1139 1056" width="1139px"><defs><filter height="300%" id="f1" width="300%" x="-1" y="-1"><feGaussianBlur result="blurOut" stdDeviation="2.0"/><feColorMatrix in="blurOut" result="blurOut2" type="matrix" values="0 0 0 0 0 0 0 0 0 0 0 0 0 0 0 0 0 0 .4 0"/><feOffset dx="4.0" dy="4.0" in="blurOut2" result="blurOut3"/><feBlend in="SourceGraphic" in2="blurOut3" mode="normal"/></filter></defs><g><text fill="#000000" font-family="sans-serif" font-size="14" font-weight="bold" lengthAdjust="spacingAndGlyphs" textLength="244" x="449" y="22.9951">Group (1:N) sequence diagram</text><rect fill="#FFFFFF" filter="url(#f1)" height="128.2656" style="stroke: #A80036; stroke-width: 1.0;" width="10" x="107" y="229.9922"/><rect fill="#FFFFFF" filter="url(#f1)" height="30" style="stroke: #A80036; stroke-width: 1.0;" width="10" x="107" y="465.6563"/><rect fill="#FFFFFF" filter="url(#f1)" height="30" style="stroke: #A80036; stroke-width: 1.0;" width="10" x="107" y="701.3203"/><rect fill="#FFFFFF" filter="url(#f1)" height="30" style="stroke: #A80036; stroke-width: 1.0;" width="10" x="563" y="229.9922"/><rect fill="#FFFFFF" filter="url(#f1)" height="128.2656" style="stroke: #A80036; stroke-width: 1.0;" width="10" x="563" y="465.6563"/><rect fill="#FFFFFF" filter="url(#f1)" height="30" style="stroke: #A80036; stroke-width: 1.0;" width="10" x="563" y="799.5859"/><rect fill="#FFFFFF" filter="url(#f1)" height="30" style="stroke: #A80036; stroke-width: 1.0;" width="10" x="1025" y="328.2578"/><rect fill="#FFFFFF" filter="url(#f1)" height="30" style="stroke: #A80036; stroke-width: 1.0;" width="10" x="1025" y="563.9219"/><rect fill="#FFFFFF" filter="url(#f1)" height="128.2656" style="stroke: #A80036; stroke-width: 1.0;" width="10" x="1025" y="701.3203"/><line style="stroke: #A80036; stroke-width: 1.0; stroke-dasharray: 5.0,5.0;" x1="112" x2="112" y1="81.5938" y2="1004.25"/><line style="stroke: #A80036; stroke-width: 1.0; stroke-dasharray: 5.0,5.0;" x1="568" x2="568" y1="81.5938" y2="1004.25"/><line style="stroke: #A80036; stroke-width: 1.0; stroke-dasharray: 5.0,5.0;" x1="1029.5" x2="1029.5" y1="81.5938" y2="1004.25"/><text fill="#000000" font-family="sans-serif" font-size="14" lengthAdjust="spacingAndGlyphs" textLength="32" x="93" y="78.292">Alice</text><ellipse cx="112" cy="49.2969" fill="#0000FF" filter="url(#f1)" rx="12" ry="12" style="stroke: #A80036; stroke-width: 2.0;"/><polygon fill="#A80036" points="108,37.2969,114,32.2969,112,37.2969,114,42.2969,108,37.2969" style="stroke: #A80036; stroke-width: 1.0;"/><text fill="#000000" font-family="sans-serif" font-size="14" lengthAdjust="spacingAndGlyphs" textLength="32" x="93" y="1016.2451">Alice</text><ellipse cx="112" cy="1035.5469" fill="#0000FF" filter="url(#f1)" rx="12" ry="12" style="stroke: #A80036; stroke-width: 2.0;"/><polygon fill="#A80036" points="108,1023.5469,114,1018.5469,112,1023.5469,114,1028.5469,108,1023.5469" style="stroke: #A80036; stroke-width: 1.0;"/><text fill="#000000" font-family="sans-serif" font-size="14" lengthAdjust="spacingAndGlyphs" textLength="28" x="551" y="78.292">Bob</text><ellipse cx="568" cy="49.2969" fill="#FF0000" filter="url(#f1)" rx="12" ry="12" style="stroke: #A80036; stroke-width: 2.0;"/><polygon fill="#A80036" points="564,37.2969,570,32.2969,568,37.2969,570,42.2969,564,37.2969" style="stroke: #A80036; stroke-width: 1.0;"/><text fill="#000000" font-family="sans-serif" font-size="14" lengthAdjust="spacingAndGlyphs" textLength="28" x="551" y="1016.2451">Bob</text><ellipse cx="568" cy="1035.5469" fill="#FF0000" filter="url(#f1)" rx="12" ry="12" style="stroke: #A80036; stroke-width: 2.0;"/><polygon fill="#A80036" points="564,1023.5469,570,1018.5469,568,1023.5469,570,1028.5469,564,1023.5469" style="stroke: #A80036; stroke-width: 1.0;"/><text fill="#000000" font-family="sans-serif" font-size="14" lengthAdjust="spacingAndGlyphs" textLength="35" x="1009.5" y="78.292">Carol</text><ellipse cx="1030" cy="49.2969" fill="#008000" filter="url(#f1)" rx="12" ry="12" style="stroke: #A80036; stroke-width: 2.0;"/><polygon fill="#A80036" points="1026,37.2969,1032,32.2969,1030,37.2969,1032,42.2969,1026,37.2969" style="stroke: #A80036; stroke-width: 1.0;"/><text fill="#000000" font-family="sans-serif" font-size="14" lengthAdjust="spacingAndGlyphs" textLength="35" x="1009.5" y="1016.2451">Carol</text><ellipse cx="1030" cy="1035.5469" fill="#008000" filter="url(#f1)" rx="12" ry="12" style="stroke: #A80036; stroke-width: 2.0;"/><polygon fill="#A80036" points="1026,1023.5469,1032,1018.5469,1030,1023.5469,1032,1028.5469,1026,1023.5469" style="stroke: #A80036; stroke-width: 1.0;"/><rect fill="#FFFFFF" filter="url(#f1)" height="128.2656" style="stroke: #A80036; stroke-width: 1.0;" width="10" x="107" y="229.9922"/><rect fill="#FFFFFF" filter="url(#f1)" height="30" style="stroke: #A80036; stroke-width: 1.0;" width="10" x="107" y="465.6563"/><rect fill="#FFFFFF" filter="url(#f1)" height="30" style="stroke: #A80036; stroke-width: 1.0;" width="10" x="107" y="701.3203"/><rect fill="#FFFFFF" filter="url(#f1)" height="30" style="stroke: #A80036; stroke-width: 1.0;" width="10" x="563" y="229.9922"/><rect fill="#FFFFFF" filter="url(#f1)" height="128.2656" style="stroke: #A80036; stroke-width: 1.0;" width="10" x="563" y="465.6563"/><rect fill="#FFFFFF" filter="url(#f1)" height="30" style="stroke: #A80036; stroke-width: 1.0;" width="10" x="563" y="799.5859"/><rect fill="#FFFFFF" filter="url(#f1)" height="30" style="stroke: #A80036; stroke-width: 1.0;" width="10" x="1025" y="328.2578"/><rect fill="#FFFFFF" filter="url(#f1)" height="30" style="stroke: #A80036; stroke-width: 1.0;" width="10" x="1025" y="563.9219"/><rect fill="#FFFFFF" filter="url(#f1)" height="128.2656" style="stroke: #A80036; stroke-width: 1.0;" width="10" x="1025" y="701.3203"/><polygon fill="#FBFB77" filter="url(#f1)" points="18,96.5938,18,121.5938,202,121.5938,202,106.5938,192,96.5938,18,96.5938" style="stroke: #A80036; stroke-width: 1.0;"/><line style="stroke: #A80036; stroke-width: 1.0;" x1="192" x2="192" y1="96.5938" y2="106.5938"/><line style="stroke: #A80036; stroke-width: 1.0;" x1="202" x2="192" y1="106.5938" y2="106.5938"/><text fill="#000000" font-family="sans-serif" font-size="13" lengthAdjust="spacingAndGlyphs" textLength="163" x="24" y="113.6606">&lt;alice@a.example.com&gt;</text><polygon fill="#FBFB77" filter="url(#f1)" points="476,135.7266,476,160.7266,655,160.7266,655,145.7266,645,135.7266,476,135.7266" style="stroke: #A80036; stroke-width: 1.0;"/><line style="stroke: #A80036; stroke-width: 1.0;" x1="645" x2="645" y1="135.7266" y2="145.7266"/><line style="stroke: #A80036; stroke-width: 1.0;" x1="655" x2="645" y1="145.7266" y2="145.7266"/><text fill="#000000" font-family="sans-serif" font-size="13" lengthAdjust="spacingAndGlyphs" textLength="158" x="482" y="152.7935">&lt;bob@b.example.com&gt;</text><polygon fill="#FBFB77" filter="url(#f1)" points="935,174.8594,935,199.8594,1120,199.8594,1120,184.8594,1110,174.8594,935,174.8594" style="stroke: #A80036; stroke-width: 1.0;"/><line style="stroke: #A80036; stroke-width: 1.0;" x1="1110" x2="1110" y1="174.8594" y2="184.8594"/><line style="stroke: #A80036; stroke-width: 1.0;" x1="1120" x2="1110" y1="184.8594" y2="184.8594"/><text fill="#000000" font-family="sans-serif" font-size="13" lengthAdjust="spacingAndGlyphs" textLength="164" x="941" y="191.9263">&lt;carol@c.example.com&gt;</text><polygon fill="#A80036" points="551,225.9922,561,229.9922,551,233.9922,555,229.9922" style="stroke: #A80036; stroke-width: 1.0;"/><line style="stroke: #A80036; stroke-width: 1.0; stroke-dasharray: 2.0,2.0;" x1="117" x2="557" y1="229.9922" y2="229.9922"/><text fill="#000000" font-family="sans-serif" font-size="13" font-weight="bold" lengthAdjust="spacingAndGlyphs" textLength="9" x="124" y="225.0591">1</text><text fill="#000000" font-family="sans-serif" font-size="13" lengthAdjust="spacingAndGlyphs" textLength="419" x="137" y="225.0591">Autocrypt: to=alice@a.example; prefer-encrypted=yes; key=AAA</text><polygon fill="#FBFB77" filter="url(#f1)" points="510,273.125,510,298.125,621,298.125,621,283.125,611,273.125,510,273.125" style="stroke: #A80036; stroke-width: 1.0;"/><line style="stroke: #A80036; stroke-width: 1.0;" x1="611" x2="611" y1="273.125" y2="283.125"/><line style="stroke: #A80036; stroke-width: 1.0;" x1="621" x2="611" y1="283.125" y2="283.125"/><text fill="#000000" font-family="sans-serif" font-size="13" lengthAdjust="spacingAndGlyphs" textLength="90" x="516" y="290.1919">save Alice key</text><polygon fill="#A80036" points="1013,324.2578,1023,328.2578,1013,332.2578,1017,328.2578" style="stroke: #A80036; stroke-width: 1.0;"/><line style="stroke: #A80036; stroke-width: 1.0; stroke-dasharray: 2.0,2.0;" x1="117" x2="1019" y1="328.2578" y2="328.2578"/><text fill="#000000" font-family="sans-serif" font-size="13" font-weight="bold" lengthAdjust="spacingAndGlyphs" textLength="9" x="124" y="323.3247">2</text><text fill="#000000" font-family="sans-serif" font-size="13" lengthAdjust="spacingAndGlyphs" textLength="419" x="137" y="323.3247">Autocrypt: to=alice@a.example; prefer-encrypted=yes; key=AAA</text><polygon fill="#FBFB77" filter="url(#f1)" points="972,371.3906,972,396.3906,1083,396.3906,1083,381.3906,1073,371.3906,972,371.3906" style="stroke: #A80036; stroke-width: 1.0;"/><line style="stroke: #A80036; stroke-width: 1.0;" x1="1073" x2="1073" y1="371.3906" y2="381.3906"/><line style="stroke: #A80036; stroke-width: 1.0;" x1="1083" x2="1073" y1="381.3906" y2="381.3906"/><text fill="#000000" font-family="sans-serif" font-size="13" lengthAdjust="spacingAndGlyphs" textLength="90" x="978" y="388.4575">save Alice key</text><polygon fill="#FBFB77" filter="url(#f1)" points="514,410.5234,514,435.5234,618,435.5234,618,420.5234,608,410.5234,514,410.5234" style="stroke: #A80036; stroke-width: 1.0;"/><line style="stroke: #A80036; stroke-width: 1.0;" x1="608" x2="608" y1="410.5234" y2="420.5234"/><line style="stroke: #A80036; stroke-width: 1.0;" x1="618" x2="608" y1="420.5234" y2="420.5234"/><text fill="#000000" font-family="sans-serif" font-size="13" lengthAdjust="spacingAndGlyphs" textLength="83" x="520" y="427.5903">use Alice key</text><polygon fill="#A80036" points="128,461.6563,118,465.6563,128,469.6563,124,465.6563" style="stroke: #A80036; stroke-width: 1.0;"/><line style="stroke: #A80036; stroke-width: 1.0;" x1="122" x2="562" y1="465.6563" y2="465.6563"/><text fill="#000000" font-family="sans-serif" font-size="13" font-weight="bold" lengthAdjust="spacingAndGlyphs" textLength="9" x="134" y="460.7231">3</text><text fill="#000000" font-family="sans-serif" font-size="13" lengthAdjust="spacingAndGlyphs" textLength="414" x="147" y="460.7231">Autocrypt: to=bob@b.example; prefer-encrypted=yes; key=BBB</text><polygon fill="#FBFB77" filter="url(#f1)" points="57,508.7891,57,533.7891,163,533.7891,163,518.7891,153,508.7891,57,508.7891" style="stroke: #A80036; stroke-width: 1.0;"/><line style="stroke: #A80036; stroke-width: 1.0;" x1="153" x2="153" y1="508.7891" y2="518.7891"/><line style="stroke: #A80036; stroke-width: 1.0;" x1="163" x2="153" y1="518.7891" y2="518.7891"/><text fill="#000000" font-family="sans-serif" font-size="13" lengthAdjust="spacingAndGlyphs" textLength="85" x="63" y="525.856">save Bob key</text><polygon fill="#A80036" points="1013,559.9219,1023,563.9219,1013,567.9219,1017,563.9219" style="stroke: #A80036; stroke-width: 1.0;"/><line style="stroke: #A80036; stroke-width: 1.0; stroke-dasharray: 2.0,2.0;" x1="573" x2="1019" y1="563.9219" y2="563.9219"/><text fill="#000000" font-family="sans-serif" font-size="13" font-weight="bold" lengthAdjust="spacingAndGlyphs" textLength="9" x="580" y="558.9888">4</text><text fill="#000000" font-family="sans-serif" font-size="13" lengthAdjust="spacingAndGlyphs" textLength="414" x="593" y="558.9888">Autocrypt: to=bob@b.example; prefer-encrypted=yes; key=BBB</text><polygon fill="#FBFB77" filter="url(#f1)" points="975,607.0547,975,632.0547,1081,632.0547,1081,617.0547,1071,607.0547,975,607.0547" style="stroke: #A80036; stroke-width: 1.0;"/><line style="stroke: #A80036; stroke-width: 1.0;" x1="1071" x2="1071" y1="607.0547" y2="617.0547"/><line style="stroke: #A80036; stroke-width: 1.0;" x1="1081" x2="1071" y1="617.0547" y2="617.0547"/><text fill="#000000" font-family="sans-serif" font-size="13" lengthAdjust="spacingAndGlyphs" textLength="85" x="981" y="624.1216">save Bob key</text><polygon fill="#FBFB77" filter="url(#f1)" points="976,646.1875,976,671.1875,1080,671.1875,1080,656.1875,1070,646.1875,976,646.1875" style="stroke: #A80036; stroke-width: 1.0;"/><line style="stroke: #A80036; stroke-width: 1.0;" x1="1070" x2="1070" y1="646.1875" y2="656.1875"/><line style="stroke: #A80036; stroke-width: 1.0;" x1="1080" x2="1070" y1="656.1875" y2="656.1875"/><text fill="#000000" font-family="sans-serif" font-size="13" lengthAdjust="spacingAndGlyphs" textLength="83" x="982" y="663.2544">use Alice key</text><polygon fill="#A80036" points="128,697.3203,118,701.3203,128,705.3203,124,701.3203" style="stroke: #A80036; stroke-width: 1.0;"/><line style="stroke: #A80036; stroke-width: 1.0;" x1="122" x2="1024" y1="701.3203" y2="701.3203"/><text fill="#000000" font-family="sans-serif" font-size="13" font-weight="bold" lengthAdjust="spacingAndGlyphs" textLength="9" x="134" y="696.3872">5</text><text fill="#000000" font-family="sans-serif" font-size="13" lengthAdjust="spacingAndGlyphs" textLength="420" x="147" y="696.3872">Autocrypt: to=carol@c.example; prefer-encrypted=yes; key=CCC</text><polygon fill="#FBFB77" filter="url(#f1)" points="53,744.4531,53,769.4531,167,769.4531,167,754.4531,157,744.4531,53,744.4531" style="stroke: #A80036; stroke-width: 1.0;"/><line style="stroke: #A80036; stroke-width: 1.0;" x1="157" x2="157" y1="744.4531" y2="754.4531"/><line style="stroke: #A80036; stroke-width: 1.0;" x1="167" x2="157" y1="754.4531" y2="754.4531"/><text fill="#000000" font-family="sans-serif" font-size="13" lengthAdjust="spacingAndGlyphs" textLength="93" x="59" y="761.52">save Carol key</text><polygon fill="#A80036" points="584,795.5859,574,799.5859,584,803.5859,580,799.5859" style="stroke: #A80036; stroke-width: 1.0;"/><line style="stroke: #A80036; stroke-width: 1.0;" x1="578" x2="1024" y1="799.5859" y2="799.5859"/><text fill="#000000" font-family="sans-serif" font-size="13" font-weight="bold" lengthAdjust="spacingAndGlyphs" textLength="9" x="590" y="794.6528">6</text><text fill="#000000" font-family="sans-serif" font-size="13" lengthAdjust="spacingAndGlyphs" textLength="420" x="603" y="794.6528">Autocrypt: to=carol@c.example; prefer-encrypted=yes; key=CCC</text><polygon fill="#FBFB77" filter="url(#f1)" points="509,842.7188,509,867.7188,623,867.7188,623,852.7188,613,842.7188,509,842.7188" style="stroke: #A80036; stroke-width: 1.0;"/><line style="stroke: #A80036; stroke-width: 1.0;" x1="613" x2="613" y1="842.7188" y2="852.7188"/><line style="stroke: #A80036; stroke-width: 1.0;" x1="623" x2="613" y1="852.7188" y2="852.7188"/><text fill="#000000" font-family="sans-serif" font-size="13" lengthAdjust="spacingAndGlyphs" textLength="93" x="515" y="859.7856">save Carol key</text><polygon fill="#FBFB77" filter="url(#f1)" points="8,881.8516,8,906.8516,213,906.8516,213,891.8516,203,881.8516,8,881.8516" style="stroke: #A80036; stroke-width: 1.0;"/><line style="stroke: #A80036; stroke-width: 1.0;" x1="203" x2="203" y1="881.8516" y2="891.8516"/><line style="stroke: #A80036; stroke-width: 1.0;" x1="213" x2="203" y1="891.8516" y2="891.8516"/><text fill="#000000" font-family="sans-serif" font-size="13" lengthAdjust="spacingAndGlyphs" textLength="184" x="14" y="898.9185">Alice has Bob and Carol keys</text><polygon fill="#FBFB77" filter="url(#f1)" points="463,920.9844,463,945.9844,668,945.9844,668,930.9844,658,920.9844,463,920.9844" style="stroke: #A80036; stroke-width: 1.0;"/><line style="stroke: #A80036; stroke-width: 1.0;" x1="658" x2="658" y1="920.9844" y2="930.9844"/><line style="stroke: #A80036; stroke-width: 1.0;" x1="668" x2="658" y1="930.9844" y2="930.9844"/><text fill="#000000" font-family="sans-serif" font-size="13" lengthAdjust="spacingAndGlyphs" textLength="184" x="469" y="938.0513">Bob has Alice and Carol keys</text><polygon fill="#FBFB77" filter="url(#f1)" points="925,960.1172,925,985.1172,1130,985.1172,1130,970.1172,1120,960.1172,925,960.1172" style="stroke: #A80036; stroke-width: 1.0;"/><line style="stroke: #A80036; stroke-width: 1.0;" x1="1120" x2="1120" y1="960.1172" y2="970.1172"/><line style="stroke: #A80036; stroke-width: 1.0;" x1="1130" x2="1120" y1="970.1172" y2="970.1172"/><text fill="#000000" font-family="sans-serif" font-size="13" lengthAdjust="spacingAndGlyphs" textLength="184" x="931" y="977.1841">Carol has Alice and Bob keys</text></g></svg>