<?xml version="1.0" encoding="UTF-8" standalone="yes"?><svg xmlns="http://www.w3.org/2000/svg" xmlns:xlink="http://www.w3.org/1999/xlink" height="402px" style="width:550px;height:402px;" version="1.1" viewBox="0 0 550 402" width="550px"><defs><filter height="300%" id="f1" width="300%" x="-1" y="-1"><feGaussianBlur result="blurOut" stdDeviation="2.0"/><feColorMatrix in="blurOut" result="blurOut2" type="matrix" values="0 0 0 0 0 0 0 0 0 0 0 0 0 0 0 0 0 0 .4 0"/><feOffset dx="4.0" dy="4.0" in="blurOut2" result="blurOut3"/><feBlend in="SourceGraphic" in2="blurOut3" mode="normal"/></filter></defs><g><text fill="#000000" font-family="sans-serif" font-size="14" font-weight="bold" lengthAdjust="spacingAndGlyphs" textLength="274" x="139.5" y="22.9951">"Alice lose key sequence diagram"</text><rect fill="#FFFFFF" filter="url(#f1)" height="28" style="stroke: #A80036; stroke-width: 1.0;" width="10" x="97" y="198.8594"/><rect fill="#FFFFFF" filter="url(#f1)" height="30" style="stroke: #A80036; stroke-width: 1.0;" width="10" x="423" y="262.9922"/><line style="stroke: #A80036; stroke-width: 1.0; stroke-dasharray: 5.0,5.0;" x1="102" x2="102" y1="81.5938" y2="350.2578"/><line style="stroke: #A80036; stroke-width: 1.0; stroke-dasharray: 5.0,5.0;" x1="428" x2="428" y1="81.5938" y2="350.2578"/><text fill="#000000" font-family="sans-serif" font-size="14" lengthAdjust="spacingAndGlyphs" textLength="32" x="83" y="78.292">Alice</text><ellipse cx="102" cy="49.2969" fill="#0000FF" filter="url(#f1)" rx="12" ry="12" style="stroke: #A80036; stroke-width: 2.0;"/><polygon fill="#A80036" points="98,37.2969,104,32.2969,102,37.2969,104,42.2969,98,37.2969" style="stroke: #A80036; stroke-width: 1.0;"/><text fill="#000000" font-family="sans-serif" font-size="14" lengthAdjust="spacingAndGlyphs" textLength="32" x="83" y="362.2529">Alice</text><ellipse cx="102" cy="381.5547" fill="#0000FF" filter="url(#f1)" rx="12" ry="12" style="stroke: #A80036; stroke-width: 2.0;"/><polygon fill="#A80036" points="98,369.5547,104,364.5547,102,369.5547,104,374.5547,98,369.5547" style="stroke: #A80036; stroke-width: 1.0;"/><text fill="#000000" font-family="sans-serif" font-size="14" lengthAdjust="spacingAndGlyphs" textLength="28" x="411" y="78.292">Bob</text><ellipse cx="428" cy="49.2969" fill="#FF0000" filter="url(#f1)" rx="12" ry="12" style="stroke: #A80036; stroke-width: 2.0;"/><polygon fill="#A80036" points="424,37.2969,430,32.2969,428,37.2969,430,42.2969,424,37.2969" style="stroke: #A80036; stroke-width: 1.0;"/><text fill="#000000" font-family="sans-serif" font-size="14" lengthAdjust="spacingAndGlyphs" textLength="28" x="411" y="362.2529">Bob</text><ellipse cx="428" cy="381.5547" fill="#FF0000" filter="url(#f1)" rx="12" ry="12" style="stroke: #A80036; stroke-width: 2.0;"/><polygon fill="#A80036" points="424,369.5547,430,364.5547,428,369.5547,430,374.5547,424,369.5547" style="stroke: #A80036; stroke-width: 1.0;"/><rect fill="#FFFFFF" filter="url(#f1)" height="28" style="stroke: #A80036; stroke-width: 1.0;" width="10" x="97" y="198.8594"/><rect fill="#FFFFFF" filter="url(#f1)" height="30" style="stroke: #A80036; stroke-width: 1.0;" width="10" x="423" y="262.9922"/><polygon fill="#FBFB77" filter="url(#f1)" points="8,96.5938,8,121.5938,192,121.5938,192,106.5938,182,96.5938,8,96.5938" style="stroke: #A80036; stroke-width: 1.0;"/><line style="stroke: #A80036; stroke-width: 1.0;" x1="182" x2="182" y1="96.5938" y2="106.5938"/><line style="stroke: #A80036; stroke-width: 1.0;" x1="192" x2="182" y1="106.5938" y2="106.5938"/><text fill="#000000" font-family="sans-serif" font-size="13" lengthAdjust="spacingAndGlyphs" textLength="163" x="14" y="113.6606">&lt;alice@a.example.com&gt;</text><polygon fill="#FBFB77" filter="url(#f1)" points="336,135.7266,336,160.7266,515,160.7266,515,145.7266,505,135.7266,336,135.7266" style="stroke: #A80036; stroke-width: 1.0;"/><line style="stroke: #A80036; stroke-width: 1.0;" x1="505" x2="505" y1="135.7266" y2="145.7266"/><line style="stroke: #A80036; stroke-width: 1.0;" x1="515" x2="505" y1="145.7266" y2="145.7266"/><text fill="#000000" font-family="sans-serif" font-size="13" lengthAdjust="spacingAndGlyphs" textLength="158" x="342" y="152.7935">&lt;bob@b.example.com&gt;</text><line style="stroke: #A80036; stroke-width: 1.0; stroke-dasharray: 2.0,2.0;" x1="107" x2="149" y1="190.9922" y2="190.9922"/><line style="stroke: #A80036; stroke-width: 1.0; stroke-dasharray: 2.0,2.0;" x1="149" x2="149" y1="190.9922" y2="203.9922"/><line style="stroke: #A80036; stroke-width: 1.0; stroke-dasharray: 2.0,2.0;" x1="108" x2="149" y1="203.9922" y2="203.9922"/><polygon fill="#A80036" points="118,199.9922,108,203.9922,118,207.9922,114,203.9922" style="stroke: #A80036; stroke-width: 1.0;"/><text fill="#000000" font-family="sans-serif" font-size="13" font-weight="bold" lengthAdjust="spacingAndGlyphs" textLength="9" x="114" y="185.9263">1</text><text fill="#000000" font-family="sans-serif" font-size="13" lengthAdjust="spacingAndGlyphs" textLength="299" x="127" y="185.9263">switch to MUA that does not support Autocrypt</text><polygon fill="#A80036" points="411,258.9922,421,262.9922,411,266.9922,415,262.9922" style="stroke: #A80036; stroke-width: 1.0;"/><line style="stroke: #A80036; stroke-width: 1.0; stroke-dasharray: 2.0,2.0;" x1="102" x2="417" y1="262.9922" y2="262.9922"/><text fill="#000000" font-family="sans-serif" font-size="13" font-weight="bold" lengthAdjust="spacingAndGlyphs" textLength="9" x="109" y="258.0591">2</text><text fill="#000000" font-family="sans-serif" font-size="13" lengthAdjust="spacingAndGlyphs" textLength="131" x="122" y="258.0591">no Autocrypt header</text><polygon fill="#FBFB77" filter="url(#f1)" points="310,306.125,310,331.125,541,331.125,541,316.125,531,306.125,310,306.125" style="stroke: #A80036; stroke-width: 1.0;"/><line style="stroke: #A80036; stroke-width: 1.0;" x1="531" x2="531" y1="306.125" y2="316.125"/><line style="stroke: #A80036; stroke-width: 1.0;" x1="541" x2="531" y1="316.125" y2="316.125"/><text fill="#000000" font-family="sans-serif" font-size="13" lengthAdjust="spacingAndGlyphs" textLength="210" x="316" y="323.1919">update to do not encrypt to Alice</text></g></svg>