<?xml version="1.0" encoding="UTF-8" standalone="no"?>
<!-- Created with Inkscape (http://www.inkscape.org/) -->

<svg
   xmlns:dc="http://purl.org/dc/elements/1.1/"
   xmlns:cc="http://creativecommons.org/ns#"
   xmlns:rdf="http://www.w3.org/1999/02/22-rdf-syntax-ns#"
   xmlns:svg="http://www.w3.org/2000/svg"
   xmlns="http://www.w3.org/2000/svg"
   xmlns:xlink="http://www.w3.org/1999/xlink"
   xmlns:sodipodi="http://sodipodi.sourceforge.net/DTD/sodipodi-0.dtd"
   xmlns:inkscape="http://www.inkscape.org/namespaces/inkscape"
   width="508mm"
   height="304.53543mm"
   viewBox="0 0 508 304.53543"
   version="1.1"
   id="svg8"
   inkscape:version="0.91 r13725"
   sodipodi:docname="title_image.svg">
  <defs
     id="defs2">
    <filter
       inkscape:collect="always"
       style="color-interpolation-filters:sRGB"
       id="filter5035"
       x="-0.013940933"
       width="1.0278819"
       y="-0.086191134"
       height="1.1723823">
      <feGaussianBlur
         inkscape:collect="always"
         stdDeviation="1.6141431"
         id="feGaussianBlur5037" />
    </filter>
  </defs>
  <sodipodi:namedview
     id="base"
     pagecolor="#ffffff"
     bordercolor="#666666"
     borderopacity="1.0"
     inkscape:pageopacity="0.0"
     inkscape:pageshadow="2"
     inkscape:zoom="0.35"
     inkscape:cx="400"
     inkscape:cy="560"
     inkscape:document-units="mm"
     inkscape:current-layer="layer1"
     showgrid="false"
     fit-margin-top="0"
     fit-margin-left="0"
     fit-margin-right="0"
     fit-margin-bottom="0"
     inkscape:window-width="1920"
     inkscape:window-height="1056"
     inkscape:window-x="0"
     inkscape:window-y="24"
     inkscape:window-maximized="1" />
  <metadata
     id="metadata5">
    <rdf:RDF>
      <cc:Work
         rdf:about="">
        <dc:format>image/svg+xml</dc:format>
        <dc:type
           rdf:resource="http://purl.org/dc/dcmitype/StillImage" />
        <dc:title />
      </cc:Work>
    </rdf:RDF>
  </metadata>
  <g
     inkscape:label="Layer 1"
     inkscape:groupmode="layer"
     id="layer1"
     transform="translate(65.76786,-46.458473)">
    <image
       sodipodi:absref="/home/hpk/p/autocrypt/doc/images/title_image.jpg"
       xlink:href="title_image.jpg"
       width="508"
       height="304.53543"
       preserveAspectRatio="none"
       id="image990"
       x="-65.76786"
       y="46.458473" />
    <g
       id="g5045"
       transform="matrix(1.3487982,0,0,1.3487982,-14.493424,46.056157)">
      <path
         d="m 2.8671875,124.39258 a 4.0004,4.0004 0 0 0 -3.9648437,3.51367 c -1.2406395,0.21871 -2.3543512,0.73335 -3.3535157,1.51563 -1.3266137,-1.10857 -3.0108814,-1.78907 -4.5449219,-1.78907 -0.5452302,0 -1.0843752,0.28851 -1.6425782,0.41211 a 4.0004,4.0004 0 0 0 -1.224609,-0.19726 l -0.28125,0 A 4.0004,4.0004 0 0 0 -16,124.89062 l -7.480469,0 a 4.0004,4.0004 0 0 0 -4,4 l 0,11.83008 a 4.0004,4.0004 0 0 0 4,4 l 7.623047,0 a 4.0004,4.0004 0 0 0 1.265625,-0.21093 4.0004,4.0004 0 0 0 1.261719,0.21093 l 1.466797,0 a 4.0004,4.0004 0 0 0 2.2578122,-0.69922 4.0004,4.0004 0 0 0 2.25,0.69922 l 1.4589844,0 a 4.0004,4.0004 0 0 0 2.3984375,-0.80664 c 1.1062049,0.61488 2.3149135,1.03711 3.51953128,1.03711 0.68120919,0 1.38974492,-0.11377 2.09375002,-0.30469 a 4.0004,4.0004 0 0 0 0.7519531,0.0742 l 1.4570313,0 a 4.0004,4.0004 0 0 0 3.9921874,-3.79492 l 2.0175778,0 a 4.0004,4.0004 0 0 0 3.990235,3.79492 l 1.609375,0 a 4.0004,4.0004 0 0 0 2.492187,-0.87695 c 1.232592,0.657 2.562784,1.10742 3.876953,1.10742 2.134939,0 4.505234,-0.90225 5.994141,-2.59765 a 4.0004,4.0004 0 0 0 0.0078,-0.008 c 0.366814,-0.42036 0.525044,-0.94385 0.787109,-1.41992 l 1.947265,0 a 4.0004,4.0004 0 0 0 3.990235,3.79492 l 7.623047,0 a 4.0004,4.0004 0 0 0 1.265625,-0.21093 4.0004,4.0004 0 0 0 1.261719,0.21093 l 1.464843,0 a 4.0004,4.0004 0 0 0 2.257813,-0.69922 4.0004,4.0004 0 0 0 2.251953,0.69922 l 1.457031,0 a 4.0004,4.0004 0 0 0 2.400391,-0.80664 c 1.106204,0.61488 2.314913,1.03711 3.519531,1.03711 0.680648,0 1.388358,-0.1141 2.091797,-0.30469 a 4.0004,4.0004 0 0 0 0.751953,0.0742 l 1.458984,0 a 4.0004,4.0004 0 0 0 4,-4 l 0,-12.32812 a 4.0004,4.0004 0 0 0 -4,-4 l -1.458984,0 a 4.0004,4.0004 0 0 0 -3.964844,3.51367 c -1.240005,0.21894 -2.352901,0.73374 -3.351562,1.51563 -1.326615,-1.10857 -3.010882,-1.78907 -4.544922,-1.78907 -0.545561,0 -1.086085,0.28865 -1.644531,0.41211 a 4.0004,4.0004 0 0 0 -1.22461,-0.19726 l -0.279297,0 a 4.0004,4.0004 0 0 0 -3.855468,-2.95704 l -7.480469,0 a 4.0004,4.0004 0 0 0 -4,4 l 0,2.73633 -1.955078,0 c -0.260439,-0.46745 -0.414122,-0.98288 -0.777344,-1.39648 -1.093343,-1.24498 -2.671839,-1.89993 -4.273437,-2.24609 a 4.0004,4.0004 0 0 0 -3.890626,-3.09376 l -10.007812,0 a 4.0004,4.0004 0 0 0 -2.6660156,1.0254 4.0004,4.0004 0 0 0 -3.1347656,-1.52344 l -1.4570313,0 z m 130.6054725,0 a 4.0004,4.0004 0 0 0 -3.04297,1.41211 4.0004,4.0004 0 0 0 -1.88477,-0.47657 l -1.4668,0 a 4.0004,4.0004 0 0 0 -3.82421,2.84376 c -0.73269,-0.24698 -1.46776,-0.53907 -2.20508,-0.53907 -0.6706,0 -1.36593,0.11142 -2.05664,0.29688 a 4.0004,4.0004 0 0 0 -0.7793,-0.082 l -1.4668,0 a 4.0004,4.0004 0 0 0 -0.96875,0.125 4.0004,4.0004 0 0 0 -0.98828,-0.125 l -1.54492,0 a 4.0004,4.0004 0 0 0 -2.77148,1.12304 4.0004,4.0004 0 0 0 -2.77539,-1.12304 l -1.0293,0 a 4.0004,4.0004 0 0 0 -0.32031,-0.0723 c -0.19803,-0.0354 -0.42377,-0.0667 -0.67383,-0.0918 -0.24288,-0.029 -0.49346,-0.0508 -0.76563,-0.0508 -0.70171,0 -1.42756,0.11611 -2.15039,0.3086 a 4.0004,4.0004 0 0 0 -0.83593,-0.0937 l -1.4668,0 a 4.0004,4.0004 0 0 0 -1.738283,0.40429 c -0.385062,-0.1336 -0.759346,-0.29811 -1.158203,-0.38281 -0.708922,-0.15574 -1.434924,-0.23633 -2.158203,-0.23633 -1.822237,0 -3.684104,0.70212 -5.210938,1.85547 -1.334945,-1.15937 -3.070287,-1.85547 -4.638672,-1.85547 -0.54556,0 -1.086085,0.28865 -1.644531,0.41211 a 4.0004,4.0004 0 0 0 -1.224609,-0.19726 l -0.279297,0 a 4.0004,4.0004 0 0 0 -3.855469,-2.95704 l -7.480469,0 a 4.0004,4.0004 0 0 0 -4,4 l 0,11.83008 a 4.0004,4.0004 0 0 0 4,4 l 7.623047,0 a 4.0004,4.0004 0 0 0 1.265625,-0.21093 4.0004,4.0004 0 0 0 1.261719,0.21093 l 1.464844,0 a 4.0004,4.0004 0 0 0 2.257812,-0.69922 4.0004,4.0004 0 0 0 2.251953,0.69922 l 1.457032,0 a 4.0004,4.0004 0 0 0 2.576171,-0.9414 c 1.290091,0.69273 2.685801,1.17187 4.080079,1.17187 0.745759,0 1.494655,-0.0728 2.234374,-0.23437 l 0.0039,-0.002 c 0.403803,-0.0877 0.783274,-0.25718 1.173828,-0.39453 a 4.0004,4.0004 0 0 0 1.738283,0.40039 l 1.4668,0 a 4.0004,4.0004 0 0 0 1.0625,-0.14843 4.0004,4.0004 0 0 0 3.96874,3.52539 l 1.16407,0 c 1.31515,0 2.88085,-0.38254 4.11328,-1.39844 0.41325,-0.34066 0.58795,-0.66505 0.85547,-0.99414 a 4.0004,4.0004 0 0 0 3.66015,2.39258 l 1.4668,0 a 4.0004,4.0004 0 0 0 3.95313,-3.41993 c 1.19688,-0.21039 2.271,-0.69289 3.25195,-1.43359 1.54623,1.23765 3.16882,1.47656 4.63281,1.47656 l 1.4961,0 a 4.0004,4.0004 0 0 0 0.96093,-0.12304 4.0004,4.0004 0 0 0 0.96485,0.12304 l 1.45898,0 a 4.0004,4.0004 0 0 0 2.54492,-0.91797 c 1.24778,0.67944 2.5987,1.14844 3.93555,1.14844 1.32562,0 2.66462,-0.46149 3.9043,-1.13086 a 4.0004,4.0004 0 0 0 2.52343,0.90039 l 1.46485,0 a 4.0004,4.0004 0 0 0 2.25781,-0.69922 4.0004,4.0004 0 0 0 2.25,0.69922 l 1.45898,0 a 4.0004,4.0004 0 0 0 4,-4 l 0,-5.02929 a 4.0004,4.0004 0 0 0 0.32813,0.31836 l 0,4.71093 a 4.0004,4.0004 0 0 0 4,4 l 1.46484,0 a 4.0004,4.0004 0 0 0 2.95117,-1.30664 c 1.37289,0.90968 2.93886,1.53711 4.49024,1.53711 1.32497,0 2.66355,-0.462 3.90234,-1.13086 a 4.0004,4.0004 0 0 0 2.52344,0.90039 l 1.4668,0 a 4.0004,4.0004 0 0 0 4,-4 l 0,-3.52343 a 4.0004,4.0004 0 0 0 2.50586,-1.10938 l 0,4.63281 a 4.0004,4.0004 0 0 0 4,4 l 7.62304,0 a 4.0004,4.0004 0 0 0 3.99219,-3.79492 l 0.52735,0 a 4.0004,4.0004 0 0 0 3.99023,3.79492 l 1.55273,0 a 4.0004,4.0004 0 0 0 3.60352,-2.27343 l 0.50586,0 a 4.0004,4.0004 0 0 0 3.60156,2.27343 l 1.56055,0 a 4.0004,4.0004 0 0 0 2.20898,-0.66992 c 1.08404,0.54045 2.23661,0.90039 3.33008,0.90039 0.61082,0 1.23869,-0.28392 1.86719,-0.41992 a 4.0004,4.0004 0 0 0 1.19922,0.18945 l 1.45703,0 a 4.0004,4.0004 0 0 0 1.50586,-0.29687 4.0004,4.0004 0 0 0 1.50586,0.29687 l 1.45703,0 a 4.0004,4.0004 0 0 0 1.52344,-0.30273 4.0004,4.0004 0 0 0 1.51953,0.30273 l 1.45898,0 a 4.0004,4.0004 0 0 0 4,-4 l 0,-12.32812 a 4.0004,4.0004 0 0 0 -4,-4 l -1.45898,0 a 4.0004,4.0004 0 0 0 -1.52344,0.30273 4.0004,4.0004 0 0 0 -1.51953,-0.30273 l -1.45703,0 a 4.0004,4.0004 0 0 0 -3.99024,3.71289 c -0.94289,-0.30805 -1.92323,-0.47266 -2.84765,-0.47266 -0.76368,0 -1.52438,0.0862 -2.27149,0.24219 -0.0321,0.006 -0.0617,0.0206 -0.0937,0.0273 a 4.0004,4.0004 0 0 0 -3.87109,-3.01172 l -2.38477,0 a 4.0004,4.0004 0 0 0 -3.02734,1.39258 4.0004,4.0004 0 0 0 -3.02734,-1.39258 l -2.38477,0 a 4.0004,4.0004 0 0 0 -4,4 l 0,2.73633 -0.9043,0 a 4.0004,4.0004 0 0 0 0.25196,-1.38867 l 0,-1.34766 a 4.0004,4.0004 0 0 0 -4,-4 l -7.48047,0 a 4.0004,4.0004 0 0 0 -3.99805,3.95118 4.0004,4.0004 0 0 0 -2.08203,-1.06641 c -0.19803,-0.0354 -0.42378,-0.0667 -0.67383,-0.0918 -0.24285,-0.029 -0.49345,-0.0508 -0.76562,-0.0508 -0.70172,0 -1.42757,0.11611 -2.15039,0.3086 a 4.0004,4.0004 0 0 0 -0.83594,-0.0937 l -1.4668,0 a 4.0004,4.0004 0 0 0 -2.5332,0.9082 c -1.23614,-0.66495 -2.57157,-1.12305 -3.89258,-1.12305 -0.23236,0 -0.46856,0.12342 -0.70508,0.14453 a 4.0004,4.0004 0 0 0 -3.94726,-3.38476 l -1.37891,0 c -1.60169,0 -3.50176,0.36807 -4.98633,1.82812 -0.67765,0.66445 -1.07311,1.4367 -1.36328,2.2168 a 4.0004,4.0004 0 0 0 -1.88086,2.89648 c -0.2226,-0.43628 -0.34531,-0.89773 -0.67969,-1.30078 -1.33326,-1.61006 -3.54414,-2.40039 -5.39062,-2.40039 -0.54556,0 -1.08609,0.28865 -1.64453,0.41211 a 4.0004,4.0004 0 0 0 -1.22461,-0.19726 l -1.46485,0 a 4.0004,4.0004 0 0 0 -2.5332,0.9082 c -1.23702,-0.66545 -2.57286,-1.12305 -3.89453,-1.12305 -0.82124,0 -1.66461,0.24962 -2.49219,0.50977 a 4.0004,4.0004 0 0 0 -3.98828,-3.75 l -1.45898,0 z m 172.80078,0 a 4.0004,4.0004 0 0 0 -3.95703,3.45508 l -0.50391,0 a 4.0004,4.0004 0 0 0 -0.78711,0.0781 c -0.69118,-0.18457 -1.38651,-0.29297 -2.05664,-0.29297 -1.6488,0 -3.298,0.7917 -4.63086,1.87696 -1.51778,-1.28031 -3.435,-1.87696 -5.20312,-1.87696 -0.76368,0 -1.52438,0.0862 -2.27149,0.24219 -0.6885,0.13892 -1.35344,0.34824 -2.00781,0.5918 a 4.0004,4.0004 0 0 0 -0.17188,-0.0781 c -0.6849,-0.27037 -1.39776,-0.46082 -2.125,-0.58203 -0.71564,-0.11926 -1.44335,-0.17383 -2.17968,-0.17383 -1.24725,0 -2.54274,0.32689 -3.77735,0.93164 a 4.0004,4.0004 0 0 0 -0.3789,-0.17578 c -0.689,-0.27198 -1.40147,-0.46111 -2.12696,-0.58203 -0.71564,-0.11926 -1.44335,-0.17383 -2.17968,-0.17383 -1.59391,0 -3.30543,0.34762 -4.80274,1.43555 -1.3218,-0.84742 -2.81393,-1.43555 -4.28516,-1.43555 -0.96102,0 -1.9506,0.2404 -2.90039,0.57617 a 4.0004,4.0004 0 0 0 -3.9375,-3.31836 l -2.38476,0 a 4.0004,4.0004 0 0 0 -3.02735,1.39258 4.0004,4.0004 0 0 0 -3.02734,-1.39258 l -2.38476,0 a 4.0004,4.0004 0 0 0 -4,4 l 0,11.83008 a 4.0004,4.0004 0 0 0 4,4 l 1.55273,0 a 4.0004,4.0004 0 0 0 3.60352,-2.27343 l 0.50585,0 a 4.0004,4.0004 0 0 0 3.60157,2.27343 l 1.56054,0 a 4.0004,4.0004 0 0 0 2.69141,-1.04687 c 1.37921,0.76272 2.88731,1.27734 4.40039,1.27734 0.83703,0 1.67663,-0.0856 2.5,-0.25976 0.54882,-0.1161 1.0689,-0.31774 1.59375,-0.50391 a 4.0004,4.0004 0 0 0 0.0371,0.0137 c 0.71863,0.23289 1.43097,0.41629 2.14844,0.54297 0.72799,0.13296 1.46202,0.20703 2.19922,0.20703 1.25584,0 2.54121,-0.32178 3.76757,-0.88476 a 4.0004,4.0004 0 0 0 0.34766,0.13476 c 0.71863,0.23289 1.43097,0.41629 2.14844,0.54297 0.72626,0.13264 1.46008,0.20703 2.19726,0.20703 1.51207,0 3.08693,-0.37387 4.51368,-1.24219 1.22136,0.76818 2.60783,1.24219 3.90234,1.24219 0.61082,0 1.23869,-0.28392 1.86719,-0.41992 a 4.0004,4.0004 0 0 0 1.19922,0.18945 l 1.06054,0 a 4.0004,4.0004 0 0 0 2.45508,2.66016 c 0.66322,0.24563 1.35338,0.42539 2.05859,0.54102 0.69203,0.1186 1.39459,0.17578 2.10352,0.17578 2.09441,0 4.44902,-0.66915 6.03906,-2.41797 0.27253,-0.2989 0.34704,-0.67002 0.55664,-0.99414 a 4.0004,4.0004 0 0 0 0.4961,0.0351 l 1.45898,0 a 4.0004,4.0004 0 0 0 1.49219,-0.29297 4.0004,4.0004 0 0 0 1.49414,0.29297 l 1.4668,0 a 4.0004,4.0004 0 0 0 2.25781,-0.69922 4.0004,4.0004 0 0 0 2.25,0.69922 l 0.97461,0 a 4.0004,4.0004 0 0 0 2.45508,2.66016 c 0.6595,0.24425 1.34966,0.42509 2.05664,0.54102 0.69386,0.11891 1.39652,0.17578 2.10547,0.17578 2.09441,0 4.44903,-0.66919 6.03906,-2.41797 1.58841,-1.74212 2.04883,-3.95874 2.04883,-6.0586 l 0,-7.77343 a 4.0004,4.0004 0 0 0 -4,-4 l -1.45899,0 a 4.0004,4.0004 0 0 0 -0.78711,0.0781 c -0.69117,-0.18457 -1.38651,-0.29297 -2.05664,-0.29297 -1.59349,0 -3.1778,0.75221 -4.49414,1.77344 -1.32445,-1.09698 -2.99734,-1.77344 -4.52344,-1.77344 -0.54495,0 -1.08474,0.28893 -1.64257,0.41211 a 4.0004,4.0004 0 0 0 -1.22461,-0.19726 l -0.49414,0 a 4.0004,4.0004 0 0 0 -3.95899,-3.45508 l -1.45898,0 z m -205.02149,4.09765 c -0.005,0.003 -0.009,0.007 -0.0137,0.01 -0.005,0.003 -0.0106,0.003 -0.0156,0.006 l 0.0293,-0.0156 z m 78.47657,0 c -0.005,0.003 -0.009,0.007 -0.0137,0.01 -0.005,0.003 -0.0106,0.003 -0.0156,0.006 l 0.0293,-0.0156 z M 3.5996094,128.5 c 0.015625,0.009 0.032552,0.0221 0.025391,0.0195 -0.00948,-0.005 -0.015886,-0.0144 -0.025391,-0.0195 z m 58.5097656,0 c 0.01563,0.009 0.03255,0.0221 0.02539,0.0195 -0.0095,-0.005 -0.01587,-0.0144 -0.02539,-0.0195 z m -65.7167969,1.52539 c 0.00391,0.005 0.00651,0.01 0.00391,0.008 -0.00199,-0.002 -0.00191,-0.005 -0.00391,-0.008 z m 58.5097659,0 c 0.0039,0.005 0.0065,0.01 0.0039,0.008 -0.002,-0.002 -0.0019,-0.005 -0.0039,-0.008 z m 36.037109,0 c 0.0039,0.005 0.0065,0.01 0.0039,0.008 -0.002,-0.002 -0.0019,-0.005 -0.0039,-0.008 z m 229.501957,0 c 0.004,0.005 0.007,0.01 0.004,0.008 -0.002,-0.002 -0.002,-0.005 -0.004,-0.008 z m -51.82813,0.0703 c 0.007,0.007 0.0117,0.0163 0.008,0.0137 -0.004,-0.004 -0.004,-0.01 -0.008,-0.0137 z m -6.07226,4.13282 1.28125,1.39648 c -0.0103,0.003 -0.0251,0.011 -0.0352,0.0137 a 4.0004,4.0004 0 0 0 -0.01,0.002 c -0.17864,0.0469 -0.37199,0.0742 -0.60937,0.0742 -0.24885,0 0.19537,0.0336 0.50586,0.33204 l 0.0293,0.0293 c 0.11837,0.11605 0.0652,0.0287 0.10938,0.11524 -0.0622,0.12721 -0.0349,0.13839 -0.17773,0.27343 l -0.0156,0.0156 c -0.31267,0.2925 -0.83534,0.38867 -0.77539,0.38867 -0.16199,0 -0.91182,-0.25599 -1.22266,-0.58984 -0.29286,-0.3321 -0.37792,-0.80743 -0.37695,-0.73438 l 1.29688,-1.3164 z m 36.7832,1.27343 c 0.20156,0 0.98245,0.36148 1.2832,0.67578 -0.30373,0.31686 -1.08802,0.67579 -1.2832,0.67579 -0.1791,0 -0.9303,-0.35211 -1.26172,-0.67579 0.32858,-0.32142 1.07646,-0.67578 1.26172,-0.67578 z m 25.10351,0 c 0.20158,0 0.97814,0.35816 1.28125,0.67578 -0.30609,0.32018 -1.08605,0.67579 -1.28125,0.67579 -0.17909,0 -0.93027,-0.35207 -1.26171,-0.67579 0.3286,-0.32146 1.07646,-0.67578 1.26171,-0.67578 z m -302.124996,0.21289 c 0.19921,0 0.788323,0.3216 1.121094,0.58008 -0.331341,0.25225 -0.901908,0.57422 -1.121094,0.57422 -0.235173,0 -0.796504,-0.32548 -1.126953,-0.57617 0.331517,-0.25361 0.902711,-0.57813 1.126953,-0.57813 z m 119.109376,0 c 0.19921,0 0.78832,0.32159 1.12109,0.58008 -0.33133,0.25223 -0.90191,0.57422 -1.12109,0.57422 -0.23518,0 -0.79651,-0.32549 -1.12695,-0.57617 0.3315,-0.2536 0.9027,-0.57813 1.12695,-0.57813 z m 31.09375,0 c 0.19916,0 0.78558,0.32008 1.11914,0.58008 -0.332,0.25363 -0.90001,0.57422 -1.11914,0.57422 -0.23524,0 -0.79905,-0.32679 -1.12891,-0.57617 0.33085,-0.25222 0.9046,-0.57813 1.12891,-0.57813 z m -172.12695375,0.0156 c 0.2119158,0 0.72556635,0.31089 1.08398435,0.5625 -0.3569694,0.24953 -0.86177477,0.56055 -1.08398435,0.56055 -0.22220954,0 -0.72701489,-0.31102 -1.08398437,-0.56055 0.35841801,-0.25161 0.8720686,-0.5625 1.08398437,-0.5625 z m 58.50781275,0 c 0.211916,0 0.725566,0.31089 1.083984,0.5625 -0.35697,0.24953 -0.861775,0.56055 -1.083984,0.56055 -0.22221,0 -0.727015,-0.31102 -1.083985,-0.56055 0.358419,-0.25161 0.872069,-0.5625 1.083985,-0.5625 z m 61.804691,0 c 0.2119,0 0.72556,0.3109 1.08398,0.5625 -0.35697,0.24953 -0.86179,0.56055 -1.08398,0.56055 -0.21695,0 -0.70841,-0.30959 -1.07422,-0.56055 0.36737,-0.25283 0.86734,-0.5625 1.07422,-0.5625 z m 103.0957,0 c 1.37687,1.96788 4.99406,-0.72081 1.60156,3.45117 l -2.16406,-2.16406 c 0.0726,-0.0285 0.14657,-0.0692 0.2207,-0.0879 0.15528,-0.0392 0.30913,-0.0606 0.5,-0.0606 0.17184,0 -0.23875,-0.0183 -0.6914,-0.37109 -0.1246,-0.10618 -0.10841,-0.24464 -0.20703,-0.39844 0.29865,-0.16457 0.65171,-0.36914 0.74023,-0.36914 z m 65.03906,0 c 1.36861,1.96712 5.00384,-0.7305 1.59961,3.45117 l -2.16406,-2.16406 c 0.0726,-0.0285 0.14657,-0.0692 0.2207,-0.0879 0.15277,-0.0386 0.31108,-0.0606 0.50196,-0.0606 0.17221,0 -0.24483,-0.0189 -0.69532,-0.37109 -0.12382,-0.1057 -0.10692,-0.24369 -0.20508,-0.39649 0.29918,-0.16531 0.65339,-0.37109 0.74219,-0.37109 z"
         inkscape:href="#text995"
         id="path1264"
         style="font-style:normal;font-variant:normal;font-weight:normal;font-stretch:normal;font-size:18.34444427px;line-height:23.93969536px;font-family:'Linux Biolinum O';-inkscape-font-specification:'Linux Biolinum O, Normal';text-align:start;letter-spacing:0px;word-spacing:0px;writing-mode:lr-tb;text-anchor:start;opacity:0.8;fill:#f4f4f4;fill-opacity:1;stroke:none;stroke-width:0.95758778px;stroke-linecap:butt;stroke-linejoin:miter;stroke-opacity:1;filter:url(#filter5035)"
         xlink:href="#text995"
         inkscape:original="M 2.8671875 128.39258 L 2.8671875 133.19336 C 2.5608037 132.66511 2.1713126 132.27504 1.7011719 132.02148 C 1.2363137 131.76264 0.67651185 131.63281 0.021484375 131.63281 C -1.050859 131.63281 -1.9254051 132.06025 -2.6015625 132.91602 C -3.2724374 133.77178 -3.6074219 134.89839 -3.6074219 136.29297 C -3.6074219 137.68754 -3.2724374 138.81221 -2.6015625 139.66797 C -1.9254051 140.52373 -1.050859 140.95117 0.021484375 140.95117 C 0.67651185 140.95117 1.2363137 140.82387 1.7011719 140.57031 C 2.1713126 140.31147 2.5608037 139.91887 2.8671875 139.39062 L 2.8671875 140.7207 L 4.3242188 140.7207 L 4.3242188 128.39258 L 2.8671875 128.39258 z M 61.375 128.39258 L 61.375 133.19336 C 61.068616 132.66511 60.681078 132.27504 60.210938 132.02148 C 59.746079 131.76264 59.186277 131.63281 58.53125 131.63281 C 57.458907 131.63281 56.584361 132.06025 55.908203 132.91602 C 55.237328 133.77178 54.902344 134.89839 54.902344 136.29297 C 54.902344 137.68754 55.237328 138.81221 55.908203 139.66797 C 56.584361 140.52373 57.458907 140.95117 58.53125 140.95117 C 59.186277 140.95117 59.746079 140.82387 60.210938 140.57031 C 60.681078 140.31147 61.068616 139.91887 61.375 139.39062 L 61.375 140.7207 L 62.833984 140.7207 L 62.833984 128.39258 L 61.375 128.39258 z M 133.47266 128.39258 L 133.47266 130.23828 L 134.93164 130.23828 L 134.93164 128.39258 L 133.47266 128.39258 z M 166.47461 128.39258 C 165.47622 128.39258 164.74864 128.61993 164.28906 129.07422 C 163.82949 129.52323 163.59961 130.24069 163.59961 131.22852 L 163.59961 131.84766 L 162.20508 131.84766 L 162.20508 132.98047 L 163.59961 132.98047 L 163.59961 140.7207 L 165.06445 140.7207 L 165.06445 132.98047 L 167.4668 132.98047 L 167.4668 131.84766 L 165.06445 131.84766 L 165.06445 131.0625 C 165.06445 130.51312 165.16645 130.13317 165.36719 129.92188 C 165.5732 129.71058 165.93602 129.60547 166.45898 129.60547 L 167.85352 129.60547 L 167.85352 128.39258 L 166.47461 128.39258 z M 230.93555 128.39258 L 230.93555 130.23828 L 232.39258 130.23828 L 232.39258 128.39258 L 230.93555 128.39258 z M 235.43555 128.39258 L 235.43555 140.7207 L 236.89453 140.7207 L 236.89453 128.39258 L 235.43555 128.39258 z M 306.27344 128.39258 L 306.27344 130.23828 L 307.73242 130.23828 L 307.73242 128.39258 L 306.27344 128.39258 z M -23.480469 128.89062 L -23.480469 140.7207 L -15.857422 140.7207 L -15.857422 139.375 L -21.878906 139.375 L -21.878906 135.08789 L -16.246094 135.08789 L -16.246094 133.74023 L -21.878906 133.74023 L -21.878906 130.23828 L -16 130.23828 L -16 128.89062 L -23.480469 128.89062 z M 10.125 128.89062 L 10.125 130.23828 L 14.324219 130.23828 L 14.324219 140.7207 L 15.933594 140.7207 L 15.933594 130.23828 L 20.132812 130.23828 L 20.132812 128.89062 L 10.125 128.89062 z M 35.029297 128.89062 L 35.029297 140.7207 L 42.652344 140.7207 L 42.652344 139.375 L 36.628906 139.375 L 36.628906 135.08789 L 42.263672 135.08789 L 42.263672 133.74023 L 36.628906 133.74023 L 36.628906 130.23828 L 42.509766 130.23828 L 42.509766 128.89062 L 35.029297 128.89062 z M 71.066406 128.89062 L 71.066406 140.7207 L 78.689453 140.7207 L 78.689453 139.375 L 72.666016 139.375 L 72.666016 135.08789 L 78.300781 135.08789 L 78.300781 133.74023 L 72.666016 133.74023 L 72.666016 130.23828 L 78.546875 130.23828 L 78.546875 128.89062 L 71.066406 128.89062 z M 190.9043 128.89062 L 190.9043 140.7207 L 198.52734 140.7207 L 198.52734 139.375 L 192.50586 139.375 L 192.50586 135.08789 L 198.13867 135.08789 L 198.13867 133.74023 L 192.50586 133.74023 L 192.50586 130.23828 L 198.38477 130.23828 L 198.38477 128.89062 L 190.9043 128.89062 z M 207.03711 128.89062 L 207.03711 140.7207 L 208.58984 140.7207 L 208.58984 130.33398 L 211.64062 138.44727 L 213.25 138.44727 L 216.30078 130.33398 L 216.30078 140.7207 L 217.86133 140.7207 L 217.86133 128.89062 L 215.47656 128.89062 L 212.44141 136.94141 L 209.42188 128.89062 L 207.03711 128.89062 z M 245.16602 128.89062 L 245.16602 140.7207 L 246.71875 140.7207 L 246.71875 130.33398 L 249.76953 138.44727 L 251.37891 138.44727 L 254.42969 130.33398 L 254.42969 140.7207 L 255.99023 140.7207 L 255.99023 128.89062 L 253.60547 128.89062 L 250.57031 136.94141 L 247.55078 128.89062 L 245.16602 128.89062 z M 127.07812 129.32812 L 127.07812 131.84766 L 126.00977 131.84766 L 126.00977 132.98047 L 127.07812 132.98047 L 127.07812 137.79688 C 127.07812 138.9062 127.29282 139.6731 127.7207 140.0957 C 128.14858 140.51302 128.92561 140.7207 130.05078 140.7207 L 131.54688 140.7207 L 131.54688 139.50195 L 130.05078 139.50195 C 129.4433 139.50195 129.03862 139.39742 128.83789 139.19141 C 128.64244 138.98539 128.54492 138.52057 128.54492 137.79688 L 128.54492 132.98047 L 131.54688 132.98047 L 131.54688 131.84766 L 128.54492 131.84766 L 128.54492 129.32812 L 127.07812 129.32812 z M -8.9960938 131.63281 C -9.6141439 131.63281 -10.159342 131.76517 -10.634766 132.0293 C -11.104906 132.29342 -11.514638 132.69303 -11.863281 133.22656 L -11.863281 131.84766 L -13.330078 131.84766 L -13.330078 140.7207 L -11.863281 140.7207 L -11.863281 135.70508 C -11.863281 134.83875 -11.635934 134.15613 -11.181641 133.6543 C -10.727347 133.15246 -10.107402 132.90039 -9.3203125 132.90039 C -8.665285 132.90039 -8.1732169 133.11003 -7.8457031 133.52734 C -7.5181894 133.94466 -7.3554688 134.5722 -7.3554688 135.41211 L -7.3554688 140.7207 L -5.8964844 140.7207 L -5.8964844 135.36523 C -5.8964844 134.1397 -6.1586751 133.2126 -6.6816406 132.58398 C -7.2046061 131.95009 -7.9765752 131.63281 -8.9960938 131.63281 z M 22.302734 131.63281 C 21.029657 131.63281 20.032293 132.04507 19.308594 132.86914 C 18.590177 133.69321 18.230469 134.835 18.230469 136.29297 C 18.230469 137.74565 18.590177 138.88549 19.308594 139.71484 C 20.032293 140.53891 21.029657 140.95117 22.302734 140.95117 C 23.570529 140.95117 24.567316 140.53891 25.291016 139.71484 C 26.014715 138.88549 26.376953 137.74565 26.376953 136.29297 C 26.376953 134.835 26.014715 133.69321 25.291016 132.86914 C 24.567316 132.04507 23.570529 131.63281 22.302734 131.63281 z M 49.513672 131.63281 C 48.895622 131.63281 48.34847 131.76517 47.873047 132.0293 C 47.402906 132.29342 46.993175 132.69303 46.644531 133.22656 L 46.644531 131.84766 L 45.179688 131.84766 L 45.179688 140.7207 L 46.644531 140.7207 L 46.644531 135.70508 C 46.644531 134.83875 46.871879 134.15613 47.326172 133.6543 C 47.780465 133.15246 48.402364 132.90039 49.189453 132.90039 C 49.844481 132.90039 50.334596 133.11003 50.662109 133.52734 C 50.989623 133.94466 51.154297 134.5722 51.154297 135.41211 L 51.154297 140.7207 L 52.611328 140.7207 L 52.611328 135.36523 C 52.611328 134.1397 52.35109 133.2126 51.828125 132.58398 C 51.30516 131.95009 50.53319 131.63281 49.513672 131.63281 z M 85.550781 131.63281 C 84.932731 131.63281 84.385579 131.76517 83.910156 132.0293 C 83.440016 132.29342 83.030284 132.69303 82.681641 133.22656 L 82.681641 131.84766 L 81.216797 131.84766 L 81.216797 140.7207 L 82.681641 140.7207 L 82.681641 135.70508 C 82.681641 134.83875 82.908988 134.15613 83.363281 133.6543 C 83.817574 133.15246 84.439473 132.90039 85.226562 132.90039 C 85.88159 132.90039 86.371705 133.11003 86.699219 133.52734 C 87.026732 133.94466 87.191406 134.5722 87.191406 135.41211 L 87.191406 140.7207 L 88.648438 140.7207 L 88.648438 135.36523 C 88.648438 134.1397 88.3882 133.2126 87.865234 132.58398 C 87.342269 131.95009 86.5703 131.63281 85.550781 131.63281 z M 95.400391 131.63281 C 94.016381 131.63281 92.924608 132.0476 92.126953 132.87695 C 91.334581 133.7063 90.939453 134.84557 90.939453 136.29297 C 90.939453 137.71924 91.332051 138.85149 92.119141 139.69141 C 92.90623 140.53132 93.96822 140.95117 95.304688 140.95117 C 95.795958 140.95117 96.258243 140.90368 96.691406 140.80859 C 97.129852 140.71351 97.552233 140.57103 97.958984 140.38086 L 97.958984 139.0332 C 97.546951 139.26035 97.13216 139.43261 96.714844 139.54883 C 96.30281 139.65976 95.885489 139.71484 95.462891 139.71484 C 94.517327 139.71484 93.782731 139.41723 93.259766 138.82031 C 92.7368 138.21811 92.476562 137.37588 92.476562 136.29297 C 92.476562 135.21006 92.7368 134.37036 93.259766 133.77344 C 93.782731 133.17123 94.517327 132.86914 95.462891 132.86914 C 95.885489 132.86914 96.30281 132.92675 96.714844 133.04297 C 97.13216 133.1539 97.546951 133.32363 97.958984 133.55078 L 97.958984 132.1875 C 97.557516 132.00261 97.142725 131.86519 96.714844 131.77539 C 96.286963 131.68031 95.849401 131.63281 95.400391 131.63281 z M 104.9082 131.63281 C 104.20563 131.63281 103.60846 131.76517 103.11719 132.0293 C 102.62592 132.28814 102.22826 132.68775 101.92188 133.22656 L 101.92188 131.84766 L 100.45508 131.84766 L 100.45508 140.7207 L 101.92188 140.7207 L 101.92188 136.04688 C 101.92188 135.0432 102.13968 134.27376 102.57812 133.74023 C 103.02185 133.20142 103.6564 132.93164 104.48047 132.93164 C 104.7129 132.93164 104.92507 132.95636 105.11523 133.00391 C 105.31069 133.04617 105.48859 133.1139 105.65234 133.20898 L 105.64453 131.71289 C 105.49662 131.68648 105.36173 131.66681 105.24023 131.65625 C 105.11874 131.6404 105.00857 131.63281 104.9082 131.63281 z M 121.04883 131.63281 C 120.39908 131.63281 119.83928 131.76264 119.36914 132.02148 C 118.90428 132.27504 118.51927 132.66511 118.21289 133.19336 L 118.21289 131.84766 L 116.74609 131.84766 L 116.74609 144.09766 L 118.21289 144.09766 L 118.21289 139.39062 C 118.51927 139.91887 118.90428 140.31147 119.36914 140.57031 C 119.83928 140.82387 120.39908 140.95117 121.04883 140.95117 C 122.12645 140.95117 123.001 140.52373 123.67188 139.66797 C 124.34803 138.81221 124.68555 137.68754 124.68555 136.29297 C 124.68555 134.89839 124.34803 133.77178 123.67188 132.91602 C 123.001 132.06025 122.12645 131.63281 121.04883 131.63281 z M 141.41211 131.63281 C 140.13903 131.63281 139.14167 132.04507 138.41797 132.86914 C 137.69955 133.69321 137.33984 134.835 137.33984 136.29297 C 137.33984 137.74565 137.69955 138.88549 138.41797 139.71484 C 139.14167 140.53891 140.13903 140.95117 141.41211 140.95117 C 142.6799 140.95117 143.67669 140.53891 144.40039 139.71484 C 145.12409 138.88549 145.48633 137.74565 145.48633 136.29297 C 145.48633 134.835 145.12409 133.69321 144.40039 132.86914 C 143.67669 132.04507 142.6799 131.63281 141.41211 131.63281 z M 152.17383 131.63281 C 151.55578 131.63281 151.00863 131.76517 150.5332 132.0293 C 150.06306 132.29342 149.65333 132.69303 149.30469 133.22656 L 149.30469 131.84766 L 147.83984 131.84766 L 147.83984 140.7207 L 149.30469 140.7207 L 149.30469 135.70508 C 149.30469 134.83875 149.53203 134.15613 149.98633 133.6543 C 150.44062 133.15246 151.06057 132.90039 151.84766 132.90039 C 152.50268 132.90039 152.99475 133.11003 153.32227 133.52734 C 153.64978 133.94466 153.8125 134.5722 153.8125 135.41211 L 153.8125 140.7207 L 155.27148 140.7207 L 155.27148 135.36523 C 155.27148 134.1397 155.00929 133.2126 154.48633 132.58398 C 153.96336 131.95009 153.19335 131.63281 152.17383 131.63281 z M 172.50586 131.63281 C 171.23278 131.63281 170.23347 132.04507 169.50977 132.86914 C 168.79135 133.69321 168.43359 134.835 168.43359 136.29297 C 168.43359 137.74565 168.79135 138.88549 169.50977 139.71484 C 170.23347 140.53891 171.23278 140.95117 172.50586 140.95117 C 173.77365 140.95117 174.76849 140.53891 175.49219 139.71484 C 176.21589 138.88549 176.57812 137.74565 176.57812 136.29297 C 176.57813 134.835 176.21589 133.69321 175.49219 132.86914 C 174.76849 132.04507 173.77365 131.63281 172.50586 131.63281 z M 183.38477 131.63281 C 182.6822 131.63281 182.08502 131.76517 181.59375 132.0293 C 181.10248 132.28814 180.70482 132.68775 180.39844 133.22656 L 180.39844 131.84766 L 178.93164 131.84766 L 178.93164 140.7207 L 180.39844 140.7207 L 180.39844 136.04688 C 180.39844 135.0432 180.61624 134.27376 181.05469 133.74023 C 181.49842 133.20142 182.13296 132.93164 182.95703 132.93164 C 183.18946 132.93164 183.39967 132.95636 183.58984 133.00391 C 183.7853 133.04617 183.96515 133.1139 184.12891 133.20898 L 184.12109 131.71289 C 183.97318 131.68648 183.83829 131.66681 183.7168 131.65625 C 183.5953 131.6404 183.48513 131.63281 183.38477 131.63281 z M 224.09766 131.63281 C 223.62223 131.63281 223.13269 131.68537 222.63086 131.79102 C 222.12902 131.89138 221.61166 132.04594 221.07812 132.25195 L 221.07812 133.59766 C 221.52185 133.35466 221.98414 133.17228 222.46484 133.05078 C 222.94555 132.92928 223.43819 132.86914 223.94531 132.86914 C 224.74297 132.86914 225.36234 133.05405 225.80078 133.42383 C 226.24451 133.78832 226.4668 134.30569 226.4668 134.97656 L 226.4668 135.11914 L 224.42188 135.11914 C 223.09597 135.11914 222.09666 135.37374 221.42578 135.88086 C 220.76019 136.38798 220.42773 137.14028 220.42773 138.13867 C 220.42773 138.99443 220.69499 139.67901 221.22852 140.19141 C 221.76733 140.69852 222.4918 140.95117 223.40039 140.95117 C 224.11881 140.95117 224.7261 140.82387 225.22266 140.57031 C 225.71921 140.31147 226.134 139.91381 226.4668 139.375 L 226.4668 140.7207 L 227.92383 140.7207 L 227.92383 135.6582 C 227.92383 134.30589 227.60655 133.29645 226.97266 132.63086 C 226.33876 131.96527 225.3813 131.63281 224.09766 131.63281 z M 262.82812 131.63281 C 261.49694 131.63281 260.43748 132.06025 259.65039 132.91602 C 258.86858 133.76649 258.47852 134.91841 258.47852 136.37109 C 258.47852 137.77623 258.89078 138.89078 259.71484 139.71484 C 260.54419 140.53891 261.66633 140.95117 263.08203 140.95117 C 263.64726 140.95117 264.20453 140.89356 264.75391 140.77734 C 265.30328 140.66113 265.83836 140.4914 266.36133 140.26953 L 266.36133 138.89062 C 265.84365 139.16531 265.32122 139.37242 264.79297 139.50977 C 264.27 139.64711 263.72791 139.71484 263.16797 139.71484 C 262.20127 139.71484 261.44644 139.45461 260.90234 138.93164 C 260.36353 138.40339 260.06339 137.63648 260 136.63281 L 266.70312 136.63281 L 266.70312 135.91992 C 266.70312 134.5993 266.35354 133.55502 265.65625 132.78906 C 264.96425 132.01782 264.02197 131.63281 262.82812 131.63281 z M 271.91602 131.63281 C 270.82782 131.63281 269.98812 131.86016 269.39648 132.31445 C 268.80485 132.76875 268.50977 133.41342 268.50977 134.24805 C 268.50977 134.93477 268.70986 135.47686 269.11133 135.87305 C 269.5128 136.26395 270.16506 136.55397 271.06836 136.74414 L 271.57617 136.86328 C 272.47948 137.05873 273.06205 137.26136 273.32617 137.47266 C 273.59558 137.68396 273.73047 137.98858 273.73047 138.38477 C 273.73047 138.81265 273.54555 139.1451 273.17578 139.38281 C 272.80601 139.61524 272.27852 139.73047 271.5918 139.73047 C 271.0794 139.73047 270.56203 139.66274 270.03906 139.52539 C 269.5161 139.38276 268.98413 139.1706 268.44531 138.89062 L 268.44531 140.39648 C 269.01582 140.58137 269.55791 140.71879 270.07031 140.80859 C 270.588 140.90368 271.08512 140.95117 271.56055 140.95117 C 272.70156 140.95117 273.59635 140.71117 274.24609 140.23047 C 274.90112 139.74976 275.22852 139.0975 275.22852 138.27344 C 275.22852 137.54974 275.00876 136.98741 274.57031 136.58594 C 274.13715 136.17919 273.40255 135.86444 272.36719 135.64258 L 271.86914 135.53125 C 271.08733 135.35693 270.56744 135.17454 270.30859 134.98438 C 270.04975 134.78892 269.91992 134.52167 269.91992 134.18359 C 269.91992 133.73987 270.09978 133.40741 270.45898 133.18555 C 270.82348 132.96368 271.36614 132.85352 272.08984 132.85352 C 272.56527 132.85352 273.02502 132.90607 273.46875 133.01172 C 273.91248 133.11737 274.34187 133.27503 274.75391 133.48633 L 274.75391 132.10938 C 274.35244 131.9509 273.91292 131.83119 273.4375 131.75195 C 272.96208 131.67272 272.45483 131.63281 271.91602 131.63281 z M 280.37891 131.63281 C 279.29072 131.63281 278.45101 131.86016 277.85938 132.31445 C 277.26774 132.76875 276.97266 133.41342 276.97266 134.24805 C 276.97266 134.93477 277.17275 135.47686 277.57422 135.87305 C 277.97569 136.26395 278.62795 136.55397 279.53125 136.74414 L 280.03906 136.86328 C 280.94237 137.05873 281.52494 137.26136 281.78906 137.47266 C 282.05847 137.68396 282.19336 137.98858 282.19336 138.38477 C 282.19336 138.81265 282.00845 139.1451 281.63867 139.38281 C 281.2689 139.61524 280.74141 139.73047 280.05469 139.73047 C 279.54229 139.73047 279.02492 139.66274 278.50195 139.52539 C 277.97899 139.38276 277.44702 139.1706 276.9082 138.89062 L 276.9082 140.39648 C 277.47871 140.58137 278.0208 140.71879 278.5332 140.80859 C 279.05089 140.90368 279.54606 140.95117 280.02148 140.95117 C 281.1625 140.95117 282.05924 140.71117 282.70898 140.23047 C 283.36401 139.74976 283.69141 139.0975 283.69141 138.27344 C 283.69141 137.54974 283.47165 136.98741 283.0332 136.58594 C 282.60004 136.17919 281.86544 135.86444 280.83008 135.64258 L 280.33203 135.53125 C 279.55022 135.35693 279.02837 135.17454 278.76953 134.98438 C 278.51069 134.78892 278.38281 134.52167 278.38281 134.18359 C 278.38281 133.73987 278.56267 133.40741 278.92188 133.18555 C 279.28637 132.96368 279.82903 132.85352 280.55273 132.85352 C 281.02816 132.85352 281.48791 132.90607 281.93164 133.01172 C 282.37537 133.11737 282.80281 133.27503 283.21484 133.48633 L 283.21484 132.10938 C 282.81338 131.9509 282.37581 131.83119 281.90039 131.75195 C 281.42497 131.67272 280.91772 131.63281 280.37891 131.63281 z M 289.13477 131.63281 C 288.65934 131.63281 288.1698 131.68537 287.66797 131.79102 C 287.16613 131.89138 286.64876 132.04594 286.11523 132.25195 L 286.11523 133.59766 C 286.55896 133.35466 287.02125 133.17228 287.50195 133.05078 C 287.98266 132.92928 288.47726 132.86914 288.98438 132.86914 C 289.78203 132.86914 290.39944 133.05405 290.83789 133.42383 C 291.28162 133.78832 291.50391 134.30569 291.50391 134.97656 L 291.50391 135.11914 L 289.45898 135.11914 C 288.13308 135.11914 287.13572 135.37374 286.46484 135.88086 C 285.79925 136.38798 285.4668 137.14028 285.4668 138.13867 C 285.4668 138.99443 285.73209 139.67901 286.26562 140.19141 C 286.80444 140.69852 287.52891 140.95117 288.4375 140.95117 C 289.15592 140.95117 289.76321 140.82387 290.25977 140.57031 C 290.75632 140.31147 291.17111 139.91381 291.50391 139.375 L 291.50391 140.7207 L 292.96094 140.7207 L 292.96094 135.6582 C 292.96094 134.30589 292.64562 133.29645 292.01172 132.63086 C 291.37782 131.96527 290.41841 131.63281 289.13477 131.63281 z M 298.96875 131.63281 C 297.88056 131.63281 297.00348 132.0476 296.33789 132.87695 C 295.6723 133.7063 295.33984 134.8082 295.33984 136.18164 C 295.33984 137.5498 295.6723 138.64917 296.33789 139.47852 C 297.00348 140.30786 297.88056 140.7207 298.96875 140.7207 C 299.62378 140.7207 300.18611 140.59283 300.65625 140.33398 C 301.12639 140.07514 301.5114 139.68312 301.8125 139.16016 L 301.8125 139.88086 C 301.8125 140.88981 301.57503 141.64407 301.09961 142.14062 C 300.62419 142.64246 299.90925 142.89258 298.95312 142.89258 C 298.51996 142.89258 298.0931 142.83749 297.67578 142.72656 C 297.25847 142.61563 296.83608 142.44337 296.4082 142.21094 L 296.4082 143.62891 C 296.83608 143.78738 297.27813 143.90456 297.73242 143.97852 C 298.18672 144.05775 298.66924 144.09766 299.18164 144.09766 C 300.56565 144.09766 301.5928 143.72783 302.26367 142.98828 C 302.93455 142.25402 303.27148 141.13188 303.27148 139.62109 L 303.27148 131.84766 L 301.8125 131.84766 L 301.8125 133.19336 C 301.5114 132.67039 301.12639 132.28033 300.65625 132.02148 C 300.18611 131.76264 299.62378 131.63281 298.96875 131.63281 z M 315.05273 131.63281 C 314.43468 131.63281 313.88753 131.76517 313.41211 132.0293 C 312.94197 132.29342 312.53419 132.69303 312.18555 133.22656 L 312.18555 131.84766 L 310.71875 131.84766 L 310.71875 140.7207 L 312.18555 140.7207 L 312.18555 135.70508 C 312.18555 134.83875 312.41289 134.15613 312.86719 133.6543 C 313.32148 133.15246 313.94143 132.90039 314.72852 132.90039 C 315.38354 132.90039 315.87366 133.11003 316.20117 133.52734 C 316.52869 133.94466 316.69336 134.5722 316.69336 135.41211 L 316.69336 140.7207 L 318.15234 140.7207 L 318.15234 135.36523 C 318.15234 134.1397 317.89015 133.2126 317.36719 132.58398 C 316.84422 131.95009 316.07225 131.63281 315.05273 131.63281 z M 324.07031 131.63281 C 322.98212 131.63281 322.10505 132.0476 321.43945 132.87695 C 320.77386 133.7063 320.44141 134.8082 320.44141 136.18164 C 320.44141 137.5498 320.77386 138.64917 321.43945 139.47852 C 322.10505 140.30786 322.98212 140.7207 324.07031 140.7207 C 324.72534 140.7207 325.28767 140.59283 325.75781 140.33398 C 326.22795 140.07514 326.61296 139.68312 326.91406 139.16016 L 326.91406 139.88086 C 326.91406 140.88981 326.6766 141.64407 326.20117 142.14062 C 325.72575 142.64246 325.01082 142.89258 324.05469 142.89258 C 323.62152 142.89258 323.19661 142.83749 322.7793 142.72656 C 322.36198 142.61563 321.9396 142.44337 321.51172 142.21094 L 321.51172 143.62891 C 321.9396 143.78738 322.37969 143.90456 322.83398 143.97852 C 323.28828 144.05775 323.77276 144.09766 324.28516 144.09766 C 325.66917 144.09766 326.69631 143.72783 327.36719 142.98828 C 328.03806 142.25402 328.37305 141.13188 328.37305 139.62109 L 328.37305 131.84766 L 326.91406 131.84766 L 326.91406 133.19336 C 326.61296 132.67039 326.22795 132.28033 325.75781 132.02148 C 325.28767 131.76264 324.72534 131.63281 324.07031 131.63281 z M 106.15234 131.84766 L 109.74219 140.57812 L 109.48047 141.24414 C 109.21106 141.95199 108.966 142.40163 108.74414 142.5918 C 108.52228 142.78197 108.21006 142.87695 107.80859 142.87695 L 106.95312 142.87695 L 106.95312 144.09766 L 108.11719 144.09766 C 108.77221 144.09766 109.29464 143.93551 109.68555 143.61328 C 110.07645 143.29105 110.47859 142.60142 110.89062 141.54492 L 114.78906 131.84766 L 113.24414 131.84766 L 110.4707 138.78906 L 107.69727 131.84766 L 106.15234 131.84766 z M 133.47266 131.84766 L 133.47266 140.7207 L 134.93164 140.7207 L 134.93164 131.84766 L 133.47266 131.84766 z M 230.93555 131.84766 L 230.93555 140.7207 L 232.39258 140.7207 L 232.39258 131.84766 L 230.93555 131.84766 z M 306.27344 131.84766 L 306.27344 140.7207 L 307.73242 140.7207 L 307.73242 131.84766 L 306.27344 131.84766 z M 0.37890625 132.85352 C 1.1501483 132.85352 1.7574436 133.16067 2.2011719 133.77344 C 2.6449002 134.38092 2.8671875 135.22063 2.8671875 136.29297 C 2.8671875 137.36531 2.6449002 138.20754 2.2011719 138.82031 C 1.7574436 139.4278 1.1501483 139.73047 0.37890625 139.73047 C -0.39233578 139.73047 -0.99963108 139.4278 -1.4433594 138.82031 C -1.8818052 138.20754 -2.1015625 137.36531 -2.1015625 136.29297 C -2.1015625 135.22063 -1.8818052 134.38092 -1.4433594 133.77344 C -0.99963108 133.16067 -0.39233578 132.85352 0.37890625 132.85352 z M 58.886719 132.85352 C 59.657961 132.85352 60.265256 133.16067 60.708984 133.77344 C 61.152713 134.38092 61.375 135.22063 61.375 136.29297 C 61.375 137.36531 61.152713 138.20754 60.708984 138.82031 C 60.265256 139.4278 59.657961 139.73047 58.886719 139.73047 C 58.115477 139.73047 57.508181 139.4278 57.064453 138.82031 C 56.626007 138.20754 56.40625 137.36531 56.40625 136.29297 C 56.40625 135.22063 56.626007 134.38092 57.064453 133.77344 C 57.508181 133.16067 58.115477 132.85352 58.886719 132.85352 z M 120.69141 132.85352 C 121.46265 132.85352 122.06741 133.16067 122.50586 133.77344 C 122.94959 134.38092 123.17188 135.22063 123.17188 136.29297 C 123.17188 137.36531 122.94959 138.20754 122.50586 138.82031 C 122.06741 139.4278 121.46265 139.73047 120.69141 139.73047 C 119.92016 139.73047 119.31287 139.4278 118.86914 138.82031 C 118.43069 138.20754 118.21289 137.36531 118.21289 136.29297 C 118.21289 135.22063 118.43069 134.38092 118.86914 133.77344 C 119.31287 133.16067 119.92016 132.85352 120.69141 132.85352 z M 299.32422 132.85352 C 300.11131 132.85352 300.72113 133.14354 301.1543 133.72461 C 301.59274 134.30568 301.8125 135.12514 301.8125 136.18164 C 301.8125 137.23285 301.59274 138.04783 301.1543 138.62891 C 300.72113 139.20998 300.11131 139.50195 299.32422 139.50195 C 298.54241 139.50195 297.93259 139.20998 297.49414 138.62891 C 297.06098 138.04783 296.84375 137.23285 296.84375 136.18164 C 296.84375 135.12514 297.06098 134.30568 297.49414 133.72461 C 297.93259 133.14354 298.54241 132.85352 299.32422 132.85352 z M 324.42773 132.85352 C 325.21482 132.85352 325.82465 133.14354 326.25781 133.72461 C 326.69626 134.30568 326.91406 135.12514 326.91406 136.18164 C 326.91406 137.23285 326.69626 138.04783 326.25781 138.62891 C 325.82465 139.20998 325.21482 139.50195 324.42773 139.50195 C 323.64593 139.50195 323.03415 139.20998 322.5957 138.62891 C 322.16254 138.04783 321.94727 137.23285 321.94727 136.18164 C 321.94727 135.12514 322.16254 134.30568 322.5957 133.72461 C 323.03415 133.14354 323.64593 132.85352 324.42773 132.85352 z M 22.302734 132.86914 C 23.079259 132.86914 23.696097 133.17882 24.150391 133.79688 C 24.604684 134.40964 24.832031 135.24176 24.832031 136.29297 C 24.832031 137.34946 24.604684 138.18411 24.150391 138.79688 C 23.696097 139.40964 23.079259 139.71484 22.302734 139.71484 C 21.515645 139.71484 20.895699 139.41217 20.441406 138.80469 C 19.992395 138.19192 19.767578 137.35475 19.767578 136.29297 C 19.767578 135.23119 19.994926 134.39655 20.449219 133.78906 C 20.903512 133.17629 21.520927 132.86914 22.302734 132.86914 z M 141.41211 132.86914 C 142.18863 132.86914 142.80547 133.17882 143.25977 133.79688 C 143.71406 134.40964 143.94141 135.24176 143.94141 136.29297 C 143.94141 137.34946 143.71406 138.18411 143.25977 138.79688 C 142.80547 139.40964 142.18863 139.71484 141.41211 139.71484 C 140.62502 139.71484 140.00507 139.41217 139.55078 138.80469 C 139.10177 138.19192 138.87695 137.35475 138.87695 136.29297 C 138.87695 135.23119 139.1043 134.39655 139.55859 133.78906 C 140.01289 133.17629 140.6303 132.86914 141.41211 132.86914 z M 172.50586 132.86914 C 173.28238 132.86914 173.89727 133.17882 174.35156 133.79688 C 174.80586 134.40964 175.0332 135.24176 175.0332 136.29297 C 175.0332 137.34946 174.80586 138.18411 174.35156 138.79688 C 173.89727 139.40964 173.28238 139.71484 172.50586 139.71484 C 171.71877 139.71484 171.09687 139.41217 170.64258 138.80469 C 170.19357 138.19192 169.9707 137.35475 169.9707 136.29297 C 169.9707 135.23119 170.1961 134.39655 170.65039 133.78906 C 171.10468 133.17629 171.72405 132.86914 172.50586 132.86914 z M 262.84375 132.86914 C 263.56217 132.86914 264.13715 133.10661 264.57031 133.58203 C 265.00876 134.05745 265.23358 134.69453 265.24414 135.49219 L 260.04688 135.5 C 260.12083 134.66537 260.40073 134.01817 260.88672 133.55859 C 261.37799 133.09902 262.03025 132.86914 262.84375 132.86914 z M 6.5898438 135.62695 L 6.5898438 136.92578 L 10.861328 136.92578 L 10.861328 135.62695 L 6.5898438 135.62695 z M 28.365234 135.62695 L 28.365234 136.92578 L 32.636719 136.92578 L 32.636719 135.62695 L 28.365234 135.62695 z M 200.37305 135.62695 L 200.37305 136.92578 L 204.64453 136.92578 L 204.64453 135.62695 L 200.37305 135.62695 z M 225.01562 136.25977 L 226.4668 136.25977 L 226.4668 136.58594 C 226.4668 137.53678 226.21979 138.29921 225.72852 138.875 C 225.24253 139.44551 224.59533 139.73047 223.78711 139.73047 C 223.20075 139.73047 222.73594 139.5804 222.39258 139.2793 C 222.0545 138.97291 221.88672 138.56065 221.88672 138.04297 C 221.88672 137.39322 222.11407 136.93347 222.56836 136.66406 C 223.02265 136.39466 223.83763 136.25977 225.01562 136.25977 z M 290.05469 136.25977 L 291.50391 136.25977 L 291.50391 136.58594 C 291.50391 137.53678 291.25885 138.29921 290.76758 138.875 C 290.28159 139.44551 289.63439 139.73047 288.82617 139.73047 C 288.23982 139.73047 287.775 139.5804 287.43164 139.2793 C 287.09356 138.97291 286.92383 138.56065 286.92383 138.04297 C 286.92383 137.39322 287.15118 136.93347 287.60547 136.66406 C 288.05976 136.39466 288.87669 136.25977 290.05469 136.25977 z "
         inkscape:radius="4"
         sodipodi:type="inkscape:offset" />
      <text
         id="text995"
         y="140.72162"
         x="-25.072456"
         style="font-style:normal;font-variant:normal;font-weight:normal;font-stretch:normal;font-size:16.22777748px;line-height:23.93969536px;font-family:sans-serif;-inkscape-font-specification:'sans-serif, Normal';text-align:start;letter-spacing:0px;word-spacing:0px;writing-mode:lr-tb;text-anchor:start;fill:#005c94;fill-opacity:1;stroke:none;stroke-width:0.95758778px;stroke-linecap:butt;stroke-linejoin:miter;stroke-opacity:1"
         xml:space="preserve"><tspan
           id="tspan1009"
           style="font-style:normal;font-variant:normal;font-weight:normal;font-stretch:normal;font-size:16.22777748px;font-family:sans-serif;-inkscape-font-specification:'sans-serif, Normal';text-align:start;writing-mode:lr-tb;text-anchor:start;fill:#005c94;stroke-width:0.95758778px"
           y="140.72162"
           x="-25.072456"
           sodipodi:role="line">End-To-End Encryption for E-Mail Messaging</tspan></text>
    </g>
    <g
       id="g5051"
       transform="translate(18.520838,6.3500003)">
      <path
         d="m 66.050781,184.27734 c -1.860833,0.23492 -0.175893,-0.0301 -1.894531,0.37891 -2.636725,0.85404 -2.13099,0.39424 -3.048828,1.79687 -0.709235,3.26526 -1.84805,0.23422 -0.591797,3.67383 -0.756753,-0.5126 -1.538227,-0.80348 -2.332031,-0.92968 a 4.0004,4.0004 0 0 0 -4.779297,-3.91993 c 0.0864,0.0217 -0.01001,-6e-5 0.138672,0.0371 a 4.0004,4.0004 0 0 0 -0.164063,-0.0312 4.0004,4.0004 0 0 0 -0.142578,0.0274 c 0.210895,-0.0492 0.117482,-0.0345 0.126953,-0.0312 a 4.0004,4.0004 0 0 0 -3.917969,1.42773 4.0004,4.0004 0 0 0 -3.824218,-1.45117 c 0.326252,-0.0576 -0.05429,-0.006 -0.369141,-0.006 -0.314848,0 -0.781221,-0.0607 -0.404297,0.006 a 4.0004,4.0004 0 0 0 -2.591797,0.42187 4.0004,4.0004 0 0 0 -2.597656,-0.42187 c 0.191125,-0.0337 0.03946,-0.006 -0.275391,-0.006 -0.314847,0 -0.785982,-0.0612 -0.40625,0.006 a 4.0004,4.0004 0 0 0 -4.539062,5.04297 c 0.282927,0.98537 1.537153,7.64644 2.384766,11.77148 a 4.0004,4.0004 0 0 0 3.917968,3.19531 h 0.513672 a 4.0004,4.0004 0 0 0 2.587891,-0.95312 4.0004,4.0004 0 0 0 2.583984,0.95312 h 0.513672 a 4.0004,4.0004 0 0 0 3.353516,-1.81835 c 1.133554,1.04944 2.670599,1.81837 4.296875,1.81835 2.394922,0 4.626039,-0.89588 6.24414,-2.66796 a 4.0004,4.0004 0 0 0 0.884766,1.34961 c 1.526887,1.52692 2.658845,1.31835 3.341797,1.31835 a 4.0004,4.0004 0 0 0 1.425781,-0.26757 c 0.44806,0.0896 0.799044,0.26758 1.34375,0.26757 1.528538,0 3.080641,-0.5761 4.472656,-1.55078 1.14944,0.90017 2.576586,1.55079 4,1.55078 0.705555,0 1.304082,-0.1324 1.875,-0.29296 0.480953,0.13434 0.883379,0.16406 1.134766,0.16406 a 4.0004,4.0004 0 0 0 0.306641,-0.0117 c 0.454016,-0.0349 0.528711,-0.043 0.408203,-0.043 0.0372,0 0.365997,0.0305 0.21875,0.008 a 4.0004,4.0004 0 0 0 2.054687,-0.22656 4.0004,4.0004 0 0 0 2.111328,0.21875 c -0.386498,0.0644 0.201042,0 0.203125,0 0.0021,0 0.595361,0.065 0.205078,0 a 4.0004,4.0004 0 0 0 2.175782,-0.25 4.0004,4.0004 0 0 0 2.18164,0.25 c -0.386498,0.0644 0.201042,0 0.203125,0 0.0021,0 0.589624,0.0644 0.203125,0 a 4.0004,4.0004 0 0 0 3.001954,-0.70508 c 0.994699,0.53812 2.110178,0.88868 3.287109,0.88867 0.44579,0 0.880621,-0.23669 1.330078,-0.33789 0.722472,0.22884 1.068534,0.20899 1.330078,0.20899 a 4.0004,4.0004 0 0 0 0.306641,-0.0117 c 0.530638,-0.0408 0.438867,-0.043 0.318359,-0.043 0.0372,0 0.360801,0.03 0.216797,0.008 a 4.0004,4.0004 0 0 0 3.91797,-1.70703 l 0.0371,-0.0547 a 4.0004,4.0004 0 0 0 0.0508,-0.0859 4.0004,4.0004 0 0 0 1.81445,1.30078 c 1.54075,0.54062 2.90232,0.72267 4.09375,0.72265 1.50009,0 2.90861,-0.52682 4.125,-1.29101 1.28839,0.77869 2.69642,1.29103 4.13867,1.29101 1.63971,0 3.04216,-0.5973 4.28321,-1.42187 1.27116,0.83491 2.70776,1.42188 4.1914,1.42187 1.23396,0 2.57166,-0.52896 3.80274,-1.26367 1.09609,0.72809 2.35355,1.26368 3.62109,1.26367 0.70186,0 1.29666,-0.13181 1.86524,-0.29101 0.48761,0.13702 0.89435,0.16211 1.14257,0.16211 a 4.0004,4.0004 0 0 0 0.30664,-0.0117 c 0.45402,-0.0349 0.52872,-0.043 0.40821,-0.043 0.0372,0 0.36598,0.0305 0.21875,0.008 a 4.0004,4.0004 0 0 0 2.0293,-0.21679 4.0004,4.0004 0 0 0 2.08203,0.20898 c -0.38646,0.0644 0.20104,0 0.20312,0 0.002,0 0.5954,0.0651 0.20508,0 a 4.0004,4.0004 0 0 0 3.08594,-0.76953 4.0004,4.0004 0 0 0 3.08203,0.76953 c -0.38653,0.0644 0.20105,0 0.20312,0 0.002,0 0.59539,0.065 0.20508,0 a 4.0004,4.0004 0 0 0 2.82227,-0.58594 c 0.86577,0.46341 1.77742,0.76955 2.65625,0.76953 0.27003,0 0.5709,-0.10568 0.85742,-0.14453 a 4.0004,4.0004 0 0 0 4.74805,4.23243 4.0004,4.0004 0 0 0 4.60156,-2.75977 c 0.22921,-0.75398 2.94341,-6.84942 4.20898,-9.66406 0.84105,1.89751 1.69029,3.78455 2.40821,5.65625 a 4.0004,4.0004 0 0 0 4.36718,2.51367 4.0004,4.0004 0 0 0 2.28907,-0.31055 4.0004,4.0004 0 0 0 2.19921,0.30078 4.0004,4.0004 0 0 0 3.24024,-0.96875 4.0004,4.0004 0 0 0 3.31445,0.96094 c -0.39032,0.0651 0.203,0 0.20508,0 0.002,0 0.58958,0.0644 0.20313,0 a 4.0004,4.0004 0 0 0 2.51562,-0.4082 4.0004,4.0004 0 0 0 2.52539,0.4082 c -0.38652,0.0644 0.20103,0 0.20313,0 0.002,0 0.5953,0.065 0.20507,0 a 4.0004,4.0004 0 0 0 2.09961,-0.21875 4.0004,4.0004 0 0 0 2.11133,0.21875 c -0.39032,0.0651 0.203,0 0.20508,0 0.002,0 0.58958,0.0644 0.20312,0 a 4.0004,4.0004 0 0 0 3.06055,-0.74805 c 1.10435,0.55882 2.29435,0.93165 3.5,0.93164 0.92738,0 1.96279,-0.28424 2.94336,-0.71484 a 4.0004,4.0004 0 0 0 2.73633,0.53125 c -0.38653,0.0644 0.20105,0 0.20312,0 0.002,0 0.59531,0.065 0.20508,0 a 4.0004,4.0004 0 0 0 2.51563,-0.4082 4.0004,4.0004 0 0 0 2.52343,0.4082 c -0.39032,0.0651 0.20301,0 0.20508,0 0.002,0 0.58965,0.0644 0.20313,0 a 4.0004,4.0004 0 0 0 3.33594,-0.97461 c 0.31604,1.89535 1.67672,3.6472 3.02929,4.36328 1.53224,0.8112 2.96051,0.95899 4.36133,0.95899 1.98698,0 3.8693,-0.36632 5.54883,-1.4668 1.02052,-0.66867 1.78492,-1.77326 2.33008,-2.99414 0.50974,0.0903 1.0054,0.29688 1.51367,0.29687 1.49091,0 2.81081,-0.46667 3.98047,-1.16015 1.01709,0.73402 2.17459,1.16017 3.26757,1.16015 0.89041,10e-6 1.85956,-0.26759 2.7793,-0.62304 1.2859,0.38353 2.50214,0.62306 3.5293,0.62304 2.05829,0 4.14421,-0.75129 5.44922,-2.16601 1.305,-1.41472 1.66992,-3.06665 1.66992,-4.34766 0,-0.93561 -0.28296,-1.89583 -0.71484,-2.75586 l 0.35546,-1.3164 a 4.0004,4.0004 0 0 0 -0.51562,-3.23633 l -0.0371,-0.0566 a 4.0004,4.0004 0 0 0 -1.50781,-1.36133 c -1.40392,-0.72615 -2.59887,-0.99609 -4.31446,-0.99609 -0.91675,0 -1.85444,0.22756 -2.78906,0.60351 a 4.0004,4.0004 0 0 0 -0.0391,-0.0195 c -0.11866,-0.59016 -0.34369,-1.25062 -0.95313,-1.91797 -0.96082,-1.05212 -2.35271,-1.3457 -3.07617,-1.3457 a 4.0004,4.0004 0 0 0 -1.43554,0.26758 c -1.00929,0.38818 -0.53329,0.2461 -0.34571,0.22265 a 4.0004,4.0004 0 0 0 -2.86914,1.80469 l -0.0351,0.0547 a 4.0004,4.0004 0 0 0 -0.39454,0.81445 c -0.65934,-0.19783 -1.29722,-0.48437 -1.98437,-0.48437 -1.0159,0 -2.00977,0.23599 -2.93164,0.65625 a 4.0004,4.0004 0 0 0 -2.85938,-0.81836 c -1.1701,0.12189 -1.61386,0.25608 -2.59179,0.31836 -0.32758,-0.0379 -0.68975,-0.15625 -1.01172,-0.15625 -1.61798,0 -3.1733,0.4677 -4.57227,1.5664 -0.84478,0.66347 -1.48765,1.69734 -1.95117,2.84571 -0.19191,-0.68229 -0.44993,-1.37712 -0.9668,-2.07032 -0.96887,-1.2994 -2.58252,-1.91892 -4.04296,-2.14062 0.0117,-0.14989 0.008,-0.28458 0.0215,-0.44727 a 4.0004,4.0004 0 0 0 0.0137,-0.32226 c 0,-0.62481 -0.12716,-1.78578 -1.08789,-2.83789 -0.96073,-1.05212 -2.35259,-1.34571 -3.07617,-1.34571 a 4.0004,4.0004 0 0 0 -1.43555,0.26758 c -0.38896,0.14961 -0.085,0.0833 -0.45898,0.11133 a 4.0004,4.0004 0 0 0 -3.01172,1.74219 l -0.0371,0.0547 a 4.0004,4.0004 0 0 0 -0.66797,2.64649 c -0.26462,-0.0154 -0.5037,-0.0703 -0.78516,-0.0703 -0.74353,0 -1.44961,0.22816 -2.15429,0.4414 -0.30813,-2.49708 -2.18572,-4.27539 -4.8125,-4.27539 -2.57448,0 -4.41913,1.71343 -4.78516,4.13086 -0.14856,-0.0327 -0.29181,-0.0736 -0.4375,-0.0957 0.0118,-0.15033 0.008,-0.28393 0.0215,-0.44727 a 4.0004,4.0004 0 0 0 0.0137,-0.32226 c 0,-0.64516 -0.14777,-1.8267 -1.11133,-2.86328 -0.96357,-1.03658 -2.33111,-1.32032 -3.05469,-1.32032 a 4.0004,4.0004 0 0 0 -1.43555,0.26758 c -0.38893,0.1496 -0.085,0.0833 -0.45898,0.11133 a 4.0004,4.0004 0 0 0 -3.06641,1.82422 l -0.0351,0.0547 a 4.0004,4.0004 0 0 0 -0.60156,2.68359 4.0004,4.0004 0 0 0 -1.39258,0.52539 4.0004,4.0004 0 0 0 -2.98438,-0.48633 c 0.74925,-0.1729 0.22448,-0.0449 -0.0156,-0.0449 -0.27888,0 -0.79286,-0.0754 -0.32813,0.0117 a 4.0004,4.0004 0 0 0 -2.24219,0.23047 4.0004,4.0004 0 0 0 -2.36328,-0.17774 c 0.77399,-0.1786 0.24082,-0.0469 -0.0195,-0.0469 -0.2966,0 -0.80974,-0.0766 -0.32812,0.0137 a 4.0004,4.0004 0 0 0 -3.45703,1.00586 4.0004,4.0004 0 0 0 -3.38672,-1.03906 c -0.0426,9.9e-4 -0.0876,0.002 -0.14453,0.002 -0.0196,0 0.08,0.0191 0.0527,0.0137 a 4.0004,4.0004 0 0 0 -0.008,0.002 4.0004,4.0004 0 0 0 -3.20508,0.76757 4.0004,4.0004 0 0 0 -3.35352,-0.73828 c 0.71194,-0.16429 0.24012,-0.0449 0,-0.0449 -0.22046,0 -0.79508,-0.11442 -0.11523,0.0312 a 4.0004,4.0004 0 0 0 -0.52148,-0.0703 c -0.16114,-0.48608 -0.41387,-1.00997 -0.87305,-1.50391 -0.96366,-1.03659 -2.33123,-1.32031 -3.05469,-1.32031 a 4.0004,4.0004 0 0 0 -1.43555,0.26758 c -1.0127,0.38949 -0.53241,0.24623 -0.34375,0.22265 a 4.0004,4.0004 0 0 0 -0.01,0.002 c -0.88277,-1.00857 -2.15984,-1.64649 -3.70899,-1.64649 -2.56112,0 -4.39903,1.69662 -4.77929,4.09375 -0.11753,0.0293 -0.22614,0.0343 -0.34375,0.0703 -0.28772,-0.0806 -0.61482,-0.25782 -0.84766,-0.25782 a 4.0004,4.0004 0 0 0 -0.84961,0.0918 c 0.31912,-0.0694 -0.38697,-0.0397 -0.0957,0 a 4.0004,4.0004 0 0 0 -2.0332,0.25586 4.0004,4.0004 0 0 0 -2.15821,-0.23828 c 0.36379,-0.0606 -0.22467,0.002 -0.20312,0.002 0.0215,0 -0.57271,-0.0632 -0.20508,-0.002 a 4.0004,4.0004 0 0 0 -2.40234,0.34961 4.0004,4.0004 0 0 0 -2.39844,-0.34961 c 0.36765,-0.0613 -0.22663,0.002 -0.20508,0.002 0.0215,0 -0.56691,-0.0626 -0.20313,-0.002 a 4.0004,4.0004 0 0 0 -2.33398,0.31445 c -0.96285,-0.31482 -1.91205,-0.49609 -2.99609,-0.49609 -1.61713,0 -3.11955,0.6531 -4.4336,1.58789 -1.21445,-0.89496 -2.66014,-1.58789 -4.24218,-1.58789 -1.24247,0 -2.40458,0.43701 -3.48829,1.05078 a 4.0004,4.0004 0 0 0 -0.0957,-0.0547 c -1.40392,-0.72615 -2.59887,-0.99609 -4.31445,-0.99609 -1.37979,0 -2.81358,0.30173 -4.19922,1.27929 -0.6786,0.47875 -1.30105,1.20825 -1.76758,2.05274 v -0.45117 c 0,-1.21155 0.0611,-1.99581 0.15235,-3.12696 a 4.0004,4.0004 0 0 0 0.0137,-0.32226 c 0,-0.64515 -0.14778,-1.8267 -1.11133,-2.86328 -0.96355,-1.03659 -2.33109,-1.32032 -3.054689,-1.32032 a 4.0004,4.0004 0 0 0 -1.435547,0.26758 c -0.388947,0.1496 -0.085,0.0833 -0.458984,0.11133 a 4.0004,4.0004 0 0 0 -3.066406,1.82617 l -0.03516,0.0547 a 4.0004,4.0004 0 0 0 -0.527344,1.26562 c -0.08458,-0.63573 -0.282811,-1.40287 -0.992188,-2.17968 -0.960727,-1.05207 -2.352576,-1.34571 -3.076172,-1.34571 a 4.0004,4.0004 0 0 0 -1.435546,0.26758 c -0.388948,0.1496 -0.085,0.0833 -0.458985,0.11133 a 4.0004,4.0004 0 0 0 -2.126953,0.81055 c -0.465802,-0.13245 -0.931256,-0.27149 -1.458984,-0.27149 -2.533474,0 -4.354613,1.66229 -4.763672,4.01758 -0.0153,0.002 -0.03022,0 -0.02734,0 0.02154,0 -0.566961,-0.0626 -0.203125,-0.002 a 4.0004,4.0004 0 0 0 -2.404297,0.34961 4.0004,4.0004 0 0 0 -2.398437,-0.34961 c 0.363827,-0.0606 -0.224664,0.002 -0.203125,0.002 0.02154,0 -0.57269,-0.0632 -0.205078,-0.002 a 4.0004,4.0004 0 0 0 -2.896485,0.63476 c -0.421303,-0.21663 -0.88755,-0.29542 -1.349609,-0.42382 0.01163,-0.19453 0.003,-0.43358 0.01953,-0.63868 a 4.0004,4.0004 0 0 0 0.01367,-0.32226 c 0,-0.64515 -0.147778,-1.8267 -1.111328,-2.86328 -0.96355,-1.03659 -2.331092,-1.32032 -3.054688,-1.32032 z m -13.044922,0.89649 c -0.07403,-0.014 0.163069,0.0448 0.38086,0.0996 -0.01385,0.005 0.178146,-0.0234 0.101562,-0.0234 -0.103207,0 -0.378014,-0.0564 -0.482422,-0.0762 z m 111.955081,4.06055 c 0.11653,0.0299 0.11133,0.0312 -0.008,0.002 -2.9e-4,3.3e-4 0.008,-0.002 0.008,-0.002 z m -48.59375,3.88281 2.14258,2.52148 a 4.0004,4.0004 0 0 0 -1.07227,0.82617 c 0.16373,-0.17775 0.61029,-0.28125 0.42773,-0.28125 0.16122,0 0.39143,0.0595 0.625,0.16797 -0.024,0.25508 -0.15039,0.46715 -0.15039,0.73047 0,0.10013 0.044,0.19662 0.0469,0.29688 -0.2593,0.15889 -0.45605,0.38281 -0.81445,0.38281 -0.69635,0 -1.17526,-0.2766 -1.55665,-0.60156 -0.11737,-0.39666 -0.13802,-0.79717 -0.32226,-1.16407 l 0.35547,-1.3164 a 4.0004,4.0004 0 0 0 0.11523,-1.43164 c 0.0621,-0.0649 0.13822,-0.0726 0.20313,-0.13086 z m 117.33984,0 1.64649,1.93945 a 4.0004,4.0004 0 0 0 0.2832,0.70703 4.0004,4.0004 0 0 0 -0.85938,0.70117 c 0.16373,-0.17775 0.61028,-0.28125 0.42774,-0.28125 0.32723,0 0.89821,0.21319 1.30273,0.75977 -0.2531,0.28673 -0.71917,0.81836 -1.5957,0.81836 -1.36883,0 -1.92666,-0.84831 -2.18945,-1.42578 a 4.0004,4.0004 0 0 0 0.83789,-2.95703 4.0004,4.0004 0 0 0 0.0137,-0.17774 c 0.0411,-0.0407 0.0906,-0.0461 0.13281,-0.084 z m -8.15234,0.73633 c 1.94016,0.7371 1.71513,0.7441 2.01172,1.32226 -0.0796,0.29899 -0.13756,0.60256 -0.1836,0.91406 -0.19776,0.0155 -0.54664,0.002 -0.67187,0.002 -0.6219,0 -1.19481,0.0242 -1.97266,0.125 0.0133,5e-5 -0.0311,-3e-5 -0.0137,0 0.0176,2e-5 -0.0358,0.002 -0.0137,0.002 -0.0686,0 0.31617,-0.15335 1.27734,0.40234 0.2002,0.11575 0.32272,0.38193 0.4961,0.57227 -0.39677,0.19698 -0.79689,0.5332 -1.03907,0.5332 -0.34542,0 -1.50576,-0.4389 -1.96875,-1.08398 -0.46299,-0.64509 -0.36328,-0.93585 -0.36328,-0.77149 0,0.0139 -0.0617,-0.29425 0.36914,-0.90234 0.43088,-0.60809 1.57666,-1.11523 2.07227,-1.11523 z m -170.087893,0.97265 0.335937,0.41406 a 4.0004,4.0004 0 0 0 -1.265625,1.26758 c -0.043,0.0221 -0.128687,-0.12304 0.732422,-0.12304 0.714193,0 1.624709,0.50317 2.050781,1.01757 -0.284211,0.12184 -0.577986,0.28711 -0.767578,0.28711 -0.195067,0 -0.914644,0.0166 -1.804687,-0.69531 -0.126151,-0.1009 -0.16914,-0.26158 -0.275391,-0.38281 a 4.0004,4.0004 0 0 0 -0.0332,0.0566 c 0.06709,-0.11981 0.0159,-0.0361 0.03125,-0.0586 -0.01574,-0.018 -0.02571,-0.0383 -0.04102,-0.0566 0.324799,-0.56682 0.708746,-1.16974 1.037109,-1.72656 z m 40.517578,1.48438 c 0.702321,0 1.44076,0.48201 1.833984,0.87109 -0.0064,0.007 -0.0031,0.009 -0.0098,0.0156 -0.437083,0.43514 -0.997613,0.56445 -1.310547,0.56445 -0.13701,0 -0.743113,-0.10725 -1.166016,-0.38477 -0.360602,-0.23663 -0.413191,-0.36299 -0.404297,-0.35351 l 0.169922,-0.49024 c -0.09228,0.11722 0.01947,-0.22265 0.886719,-0.22265 z m -28.263672,0.2207 c 1.586504,0 1.268021,0.19216 1.484375,0.52539 l -0.171875,0.42383 c -0.264697,0.13265 -0.77856,0.28125 -1.001953,0.28125 -0.413568,0 -0.887741,-0.34013 -1.287109,-0.63477 0.414906,-0.26138 0.904618,-0.5957 0.976562,-0.5957 z m 158.146487,4.2207 c 0.0358,0.0182 0.44336,0.44271 0.61133,0.63672 l -1.25977,0.13672 c 0.26129,-0.40835 0.48684,-0.65663 0.64844,-0.77344 z m -150.628909,0.33008 c 0,0.12027 0.09347,0.35475 0.119141,0.51758 l -0.101563,-0.0781 -0.01172,-0.21484 z m 19.13086,0 c -1.755788,-0.4894 6.431569,9.32361 1.322265,2.93555 h -1.083984 l -0.222656,-2.5918 z m 38.085939,0.32031 c 0.006,0.063 0.0378,0.15162 0.0488,0.22266 l -0.0977,-0.0723 -0.002,-0.0332 a 4.0004,4.0004 0 0 0 0.0508,-0.11719 z m 94.5293,0.875 c 0.61811,0.97262 -2.41636,2.73285 -1.06836,2.70508 -0.77023,-0.51362 -1.1875,-1.52482 -1.1875,-2.04883 0,-0.14617 0.10276,-0.23548 0.1289,-0.37304 0.21064,0.002 0.39145,0.0254 0.64258,0.0254 0.51593,0 0.99044,-0.1923 1.48438,-0.3086 z m -115.45704,0.29493 c 0.0112,0.0138 0.0298,0.0156 0.041,0.0293 0.0116,0.0138 0.01,0.0292 0.0215,0.043 z m 117.33985,0 c 0.0112,0.0138 0.0298,0.0156 0.041,0.0293 0.0116,0.0138 0.01,0.0292 0.0215,0.043 z m -49.41602,2.48437 a 4.0004,4.0004 0 0 0 0.12305,0.0215 c 0.005,1.1e-4 -0.03,0.004 -0.0234,0.004 0.032,0 -0.14318,-0.0377 -0.0996,-0.0254 z m -4.38672,0.0273 a 4.0004,4.0004 0 0 0 0.0801,0.0137 c 0.004,-1.3e-4 -0.0183,0.002 -0.0137,0.002 0.0206,0 -0.0913,-0.0209 -0.0664,-0.0156 z m -94.775388,4.21485 c -2.42814,0 -4.597046,0.9682 -6.148437,2.9375 -0.539219,0.68239 -0.977956,1.51158 -1.302734,2.38476 -0.935985,-0.34677 -1.92435,-0.57031 -2.894532,-0.57031 -2.138153,0 -4.34689,0.8592 -5.822265,2.45703 -0.175822,0.19042 -0.233641,0.44561 -0.386719,0.65039 a 4.0004,4.0004 0 0 0 -0.564453,-1.15234 l -0.0918,-0.12891 A 4.0004,4.0004 0 0 0 61.625,214.63086 c -0.123762,-0.60348 -0.354146,-1.27426 -0.970703,-1.9375 -0.963639,-1.0366 -2.331213,-1.32031 -3.054688,-1.32031 a 4.0004,4.0004 0 0 0 -1.435547,0.26757 c -1.012666,0.38948 -0.532341,0.24624 -0.34375,0.22266 a 4.0004,4.0004 0 0 0 -2.814453,1.72266 l -0.03711,0.0547 a 4.0004,4.0004 0 0 0 -0.306641,0.55274 4.0004,4.0004 0 0 0 -0.380859,0.041 c 0.390292,-0.0651 -0.202995,0 -0.205078,0 -0.0021,0 -0.589632,-0.0644 -0.203125,0 a 4.0004,4.0004 0 0 0 -2.400391,0.34765 4.0004,4.0004 0 0 0 -2.402344,-0.34765 c 0.386499,-0.0644 -0.201041,-10e-6 -0.203124,0 -0.0021,0 -0.595361,-0.065 -0.205079,0 a 4.0004,4.0004 0 0 0 -3.009765,0.71093 c -1.126934,-0.5429 -2.338454,-0.89453 -3.554688,-0.89453 -2.138154,0 -4.34689,0.8592 -5.822265,2.45703 -1.475376,1.59783 -2.140625,3.73511 -2.140625,5.83594 0,1.97823 0.677117,4.00539 2.113281,5.53516 1.436164,1.52976 3.603482,2.4082 5.775391,2.4082 1.623337,0 3.169677,-0.63502 4.503906,-1.55469 1.150379,0.9031 2.582303,1.55469 4.007812,1.55469 0.698991,0 1.290658,-0.13322 1.857422,-0.29102 0.476942,0.13573 0.88452,0.16407 1.152344,0.16407 a 4.0004,4.0004 0 0 0 0.30664,-0.0117 c 0.475631,-0.0366 0.548957,-0.0449 0.408204,-0.0449 0.01539,0 0.344946,0.0292 0.21875,0.01 a 4.0004,4.0004 0 0 0 2.705078,-0.54883 c 0.845445,0.43537 1.730131,0.72266 2.582031,0.72266 1.401911,0 3.118363,-0.55992 4.289063,-1.3125 a 4.0004,4.0004 0 0 0 1.552734,-1.88867 c 0.183978,0.25444 0.26734,0.55971 0.486328,0.79297 1.436164,1.52976 3.603482,2.4082 5.775391,2.4082 1.308801,0 2.568642,-0.41844 3.732421,-1.02539 a 4.0004,4.0004 0 0 0 3.181641,0.84375 c -0.401682,0.0669 0.244195,-0.002 0.222656,-0.002 -0.02154,0 0.62433,0.0689 0.222657,0.002 a 4.0004,4.0004 0 0 0 4.003906,-1.75391 l 0.03711,-0.0566 A 4.0004,4.0004 0 0 0 81.875,225.48047 c -0.09535,-0.60389 -0.131564,-1.66792 -0.132812,-2.97656 a 4.0004,4.0004 0 0 0 0.824218,-0.65821 c 0.714547,1.59588 1.324771,2.98556 1.890625,4.30274 -0.375795,0.74603 -0.706966,1.4758 -1.167969,2.24414 a 4.0004,4.0004 0 0 0 4.195313,5.98242 4.0004,4.0004 0 0 0 4.601563,-2.75977 c 0.07667,-0.25219 0.868612,-1.97711 1.408203,-3.23437 1.398361,1.1523 3.173518,1.90625 5.039062,1.90625 1.623527,0 3.169677,-0.63638 4.503907,-1.55664 1.15047,0.90354 2.58191,1.55664 4.00781,1.55664 0.69601,0 1.28475,-0.13232 1.84961,-0.28906 0.48331,0.13839 0.89392,0.16211 1.1582,0.16211 a 4.0004,4.0004 0 0 0 0.30665,-0.0117 c 0.47396,-0.0365 0.55091,-0.0449 0.41015,-0.0449 0.0154,0 0.33973,0.0287 0.2168,0.01 a 4.0004,4.0004 0 0 0 2.03125,-0.21875 4.0004,4.0004 0 0 0 2.08008,0.21094 c -0.36756,0.0613 0.22662,-0.002 0.20507,-0.002 -0.0215,0 0.56698,0.0626 0.20313,0.002 a 4.0004,4.0004 0 0 0 4.00391,-1.75391 l 0.0371,-0.0566 a 4.0004,4.0004 0 0 0 0.61523,-2.74804 c -0.0873,-0.62226 -0.0913,-1.3104 -0.0996,-2.1504 a 4.0004,4.0004 0 0 0 1.75,-1.17382 c 0.79525,1.80296 1.60927,3.60422 2.29297,5.38672 a 4.0004,4.0004 0 0 0 4.36719,2.51367 4.0004,4.0004 0 0 0 2.28906,-0.31055 4.0004,4.0004 0 0 0 2.19922,0.30078 4.0004,4.0004 0 0 0 3.42578,-1.14258 c 1.33442,1.03348 2.80761,1.31641 4.06836,1.31641 0.63836,0 1.38288,-0.24045 2.10742,-0.48438 0.51593,0.22663 1.0154,0.3574 1.50586,0.40821 a 4.0004,4.0004 0 0 0 4.75391,4.16406 4.0004,4.0004 0 0 0 4.60156,-2.75977 c 0.0438,-0.14426 0.58688,-1.32195 0.80664,-1.84961 0.46547,0.2207 0.90625,0.3545 1.25,0.42969 a 4.0004,4.0004 0 0 0 0.85547,0.0918 h 0.0723 a 4.0004,4.0004 0 0 0 0.97071,-0.11914 c 0.70069,-0.17517 1.68917,-0.60087 2.44531,-1.34375 0.75614,-0.74289 1.1503,-1.59936 1.37109,-2.26172 a 4.0004,4.0004 0 0 0 0.20508,-1.26562 v -0.0723 a 4.0004,4.0004 0 0 0 -0.23242,-1.3457 c -0.41949,-1.17461 -1.82075,-2.54718 -3.00391,-3.14844 0.0595,-0.1294 0.31625,-0.73134 0.3418,-0.7832 a 4.0004,4.0004 0 0 0 -4.22852,-5.71485 c -0.043,8.4e-4 -0.0833,0.002 -0.14843,0.002 -0.0247,0 0.0885,0.0218 0.0566,0.0156 a 4.0004,4.0004 0 0 0 -0.01,0.002 4.0004,4.0004 0 0 0 -0.002,0 4.0004,4.0004 0 0 0 -3.20508,0.76758 4.0004,4.0004 0 0 0 -3.35352,-0.73828 c 0.72746,-0.16787 0.26231,-0.0469 0.002,-0.0469 -0.24228,0 -0.81401,-0.11653 -0.11524,0.0332 a 4.0004,4.0004 0 0 0 -2.93164,0.50976 c -1.15089,-0.49785 -2.25993,-0.72656 -3.10742,-0.72656 -1.00901,0 -1.79904,0.32673 -2.58008,0.62305 a 4.0004,4.0004 0 0 0 -2.53906,-0.44141 c -0.0433,0.001 -0.0974,0.002 -0.16797,0.002 a 4.0004,4.0004 0 0 0 -2.71094,0.5332 4.0004,4.0004 0 0 0 -2.98242,-0.48633 c 0.77399,-0.1786 0.24082,-0.0469 -0.0195,-0.0469 -0.2966,0 -0.80974,-0.0766 -0.32812,0.0137 a 4.0004,4.0004 0 0 0 -2.24024,0.23047 4.0004,4.0004 0 0 0 -2.36719,-0.17969 c 0.77418,-0.17865 0.24288,-0.0469 -0.0176,-0.0469 -0.2967,0 -0.80983,-0.0766 -0.32813,0.0137 a 4.0004,4.0004 0 0 0 -3.41016,0.96094 4.0004,4.0004 0 0 0 -1.5625,-0.88476 c -0.0712,-0.021 -1.15851,-0.29102 -1.78906,-0.29102 -0.50742,0 -1.08758,0.15682 -1.65234,0.33008 -0.28576,-0.0797 -0.61041,-0.25586 -0.8418,-0.25586 a 4.0004,4.0004 0 0 0 -0.84961,0.0918 c 0.31912,-0.0694 -0.38697,-0.0397 -0.0957,0 a 4.0004,4.0004 0 0 0 -2.03516,0.25586 4.0004,4.0004 0 0 0 -2.15625,-0.23828 c 0.38646,-0.0644 -0.20105,0 -0.20312,0 -0.002,0 -0.59538,-0.0651 -0.20508,0 a 4.0004,4.0004 0 0 0 -2.40234,0.3496 4.0004,4.0004 0 0 0 -2.39844,-0.3496 c 0.39032,-0.0651 -0.203,0 -0.20508,0 -0.002,0 -0.58958,-0.0644 -0.20312,0 a 4.0004,4.0004 0 0 0 -3.01172,0.71093 c -1.12694,-0.5429 -2.338458,-0.89453 -3.554691,-0.89453 -1.053827,0 -2.123515,0.21619 -3.115235,0.61914 a 4.0004,4.0004 0 0 0 -2.550781,-0.4375 c -0.043,8.4e-4 -0.08336,0.002 -0.148437,0.002 -0.0248,0 0.08897,0.0219 0.05664,0.0156 a 4.0004,4.0004 0 0 0 -0.01172,0.002 4.0004,4.0004 0 0 0 -3.205079,0.76758 4.0004,4.0004 0 0 0 -3.351562,-0.73828 c 0.732052,-0.16893 0.258399,-0.0469 -0.002,-0.0469 -0.24228,0 -0.813983,-0.11652 -0.115235,0.0332 a 4.0004,4.0004 0 0 0 -1.082031,-0.0762 4.0004,4.0004 0 0 0 -0.126953,-1.83789 l -0.01758,-0.0566 a 4.0004,4.0004 0 0 0 -1.701172,-2.20704 c -1.420161,-0.88758 -1.893884,-0.79101 -2.945313,-0.79101 z m 12.591797,4.95898 c 0.113933,0.0299 0.10612,0.0312 -0.01172,0.002 -3.67e-4,4.8e-4 0.01219,-0.002 0.01172,-0.002 z m 61.337891,0 c 0.11458,0.0299 0.10677,0.0312 -0.0117,0.002 -3.7e-4,4.8e-4 0.0122,-0.002 0.0117,-0.002 z m -34.21484,3.57813 c 0.19902,1.21852 0.0917,1.615 0,0 z m 21,3.51562 c 2.69321,1.21793 3.57991,2.09689 2.25,3.8418 l -1.79297,-1.42188 a 4.0004,4.0004 0 0 0 1.19726,-1.22265 c 0.15394,-0.2474 0.26322,-0.32701 0.0957,-0.18164 -0.16752,0.14536 -0.80481,0.50976 -1.47461,0.50976 0.14619,0 -0.53273,0.0876 -1.34571,-0.55273 -0.12624,-0.0994 -0.0454,-0.0899 -0.13867,-0.19922 0.19,-0.27724 0.40738,-0.6195 0.49805,-0.6875 -0.14288,0.10716 -0.33588,-0.0859 0.71094,-0.0859 z m -100.814457,0.20313 c 0.279171,0 0.579716,0.29376 0.939453,0.54101 -0.424306,0.3067 -0.884771,0.68946 -1.160156,0.68946 -0.03842,0 -0.614872,-0.41321 -1.089844,-0.74219 0.352654,-0.25118 0.800346,-0.48828 1.310547,-0.48828 z m 29.845703,0 c 0.279171,0 0.579716,0.29376 0.939453,0.54101 -0.424306,0.3067 -0.884771,0.68946 -1.160156,0.68946 -0.03842,0 -0.614872,-0.41321 -1.089844,-0.74219 0.352654,-0.25118 0.800346,-0.48828 1.310547,-0.48828 z m 28.66211,0 c 0.279607,0 0.581454,0.2934 0.941406,0.54101 -0.423767,0.30646 -0.884407,0.68946 -1.160156,0.68946 -0.03846,0 -0.61656,-0.41271 -1.091797,-0.74219 0.351988,-0.2509 0.799751,-0.48828 1.310547,-0.48828 z m -51.226563,4.54883 c 0,0.12212 0.0891,0.34966 0.113281,0.51171 l -0.0957,-0.0723 -0.01172,-0.21485 z m 58.509767,0 c 0,0.12122 0.0843,0.36536 0.10937,0.5371 l -0.0898,-0.0664 -0.0137,-0.2461 z m 26.80469,3.98046 a 4.0004,4.0004 0 0 0 0.0996,0.0156 c 0.003,8e-5 -0.0242,0.004 -0.0195,0.004 0.0219,0 -0.11192,-0.0279 -0.0801,-0.0195 z m -4.40625,0.0234 a 4.0004,4.0004 0 0 0 0.0801,0.0137 c 0.004,-1.2e-4 -0.0183,0.002 -0.0137,0.002 0.0206,0 -0.0913,-0.0209 -0.0664,-0.0156 z"
         inkscape:href="#text999"
         id="path1338"
         style="font-style:normal;font-variant:normal;font-weight:normal;font-stretch:normal;font-size:18.34444427px;line-height:25.02251434px;font-family:'Linux Biolinum O';-inkscape-font-specification:'Linux Biolinum O, Normal';font-variant-ligatures:normal;font-variant-caps:normal;font-variant-numeric:normal;font-feature-settings:normal;text-align:start;letter-spacing:0px;word-spacing:0px;writing-mode:lr-tb;text-anchor:start;opacity:0.8;fill:#ffffff;fill-opacity:1;stroke:none;stroke-width:1.00090063px;stroke-linecap:butt;stroke-linejoin:miter;stroke-opacity:1;filter:url(#filter5035)"
         xlink:href="#text999"
         inkscape:original=""
         inkscape:radius="4"
         sodipodi:type="inkscape:offset" />
      <text
         id="text999"
         y="201.08171"
         x="35.438164"
         style="font-style:normal;font-variant:normal;font-weight:normal;font-stretch:normal;font-size:16.22777748px;line-height:25.02251434px;font-family:sans-serif;-inkscape-font-specification:'sans-serif, Normal';text-align:start;letter-spacing:0px;word-spacing:0px;writing-mode:lr-tb;text-anchor:start;fill:#005c94;fill-opacity:1;stroke:none;stroke-width:1.00090063px;stroke-linecap:butt;stroke-linejoin:miter;stroke-opacity:1"
         xml:space="preserve"><tspan
           style="font-style:normal;font-variant:normal;font-weight:normal;font-stretch:normal;font-size:16.22777748px;font-family:sans-serif;-inkscape-font-specification:'sans-serif, Normal';text-align:start;writing-mode:lr-tb;text-anchor:start;fill:#005c94;stroke-width:1.00090063px"
           y="201.08171"
           x="35.438164"
           sodipodi:role="line"
           id="tspan5060" /></text>
    </g>
    <g
       id="g5058"
       transform="translate(-15.345831,19.050005)">
      <path
         d="m 350.875,225.39258 a 4.0004,4.0004 0 0 0 -4,4 v 12.33008 a 4.0004,4.0004 0 0 0 4,4 h 1.4668 a 4.0004,4.0004 0 0 0 2.25781,-0.69922 4.0004,4.0004 0 0 0 2.25,0.69922 h 1.45898 a 4.0004,4.0004 0 0 0 2.61133,-0.97461 c 1.35011,0.71712 2.81335,1.20312 4.28125,1.20312 0.83703,0 1.67663,-0.0856 2.5,-0.25976 0.53297,-0.11274 1.04014,-0.31067 1.55274,-0.49024 a 4.0004,4.0004 0 0 0 1.96289,0.52149 h 0.5 a 4.0004,4.0004 0 0 0 3.94531,3.375 h 1.46484 a 4.0004,4.0004 0 0 0 3.95313,-3.41993 c 1.78285,-0.3134 3.56453,-1.15631 4.64844,-2.53515 1.32607,-1.68152 1.87304,-3.80819 1.87304,-5.84961 0,-2.04143 -0.54698,-4.16811 -1.87304,-5.84961 -1.31227,-1.66936 -3.6281,-2.81055 -5.76563,-2.81055 -0.6706,0 -1.36592,0.11142 -2.05664,0.29688 a 4.0004,4.0004 0 0 0 -0.7793,-0.082 h -0.49414 a 4.0004,4.0004 0 0 0 -3.95898,-3.45508 h -1.45703 a 4.0004,4.0004 0 0 0 -3.98828,3.70312 c -0.76014,-0.22451 -1.5297,-0.46289 -2.2793,-0.46289 -1.78756,0 -3.59728,0.73873 -5.08203,1.8711 -1.03968,-0.91029 -2.27695,-1.44808 -3.56641,-1.64649 a 4.0004,4.0004 0 0 0 -3.95898,-3.46484 z m -68.3418,0.5 a 4.0004,4.0004 0 0 0 -3.60547,5.73047 l 2.40039,5.0039 -0.83593,4.33789 a 4.0004,4.0004 0 0 0 3.92773,4.75782 h 1.59961 a 4.0004,4.0004 0 0 0 3.11719,-1.49414 c 1.35325,1.0714 3.05121,1.72265 4.64062,1.72265 1.367,0 2.79086,-0.29682 4.06055,-0.96289 0.31611,-0.16583 0.57293,-0.40026 0.85938,-0.60156 1.26246,1.06094 2.88615,1.56445 4.27148,1.56445 0.61011,0 1.18365,-0.27605 1.78711,-0.41601 a 4.0004,4.0004 0 0 0 1.20117,0.1875 h 1.45703 a 4.0004,4.0004 0 0 0 3.92774,-3.24024 l 0.78711,-4.0625 c 0.20555,1.81101 0.78629,3.63149 2.07421,5.00586 1.55987,1.66454 3.92932,2.52539 6.10352,2.52539 0.74576,0 1.49465,-0.0728 2.23438,-0.23437 l 0.004,-0.002 c 0.69624,-0.1513 1.37457,-0.38549 2.02344,-0.68164 1.09231,0.5516 2.25705,0.91797 3.36133,0.91797 0.72486,0 1.47631,-0.12225 2.22656,-0.32226 a 4.0004,4.0004 0 0 0 0.83984,0.0937 h 1.45703 a 4.0004,4.0004 0 0 0 1.47461,-0.28516 4.0004,4.0004 0 0 0 1.48047,0.28516 h 1.4668 a 4.0004,4.0004 0 0 0 2.25781,-0.69922 4.0004,4.0004 0 0 0 2.25,0.69922 h 1.45899 a 4.0004,4.0004 0 0 0 4,-4 v -5.35743 c 0,-1.79336 -0.37268,-3.72369 -1.70703,-5.33203 -1.33637,-1.61385 -3.5461,-2.40039 -5.39258,-2.40039 -0.54523,0 -1.08438,0.28851 -1.64258,0.41211 a 4.0004,4.0004 0 0 0 -1.22461,-0.19726 h -1.4668 a 4.0004,4.0004 0 0 0 -2.63281,0.99414 c -1.31964,-0.74515 -2.75855,-1.20899 -4.14844,-1.20899 -0.76367,0 -1.52437,0.0862 -2.27148,0.24219 -0.68506,0.13822 -1.3468,0.346 -1.99805,0.58789 -0.58103,-0.24703 -1.17809,-0.46235 -1.79687,-0.59375 -0.71136,-0.15627 -1.43687,-0.23633 -2.16016,-0.23633 -2.18321,0 -4.5567,0.80962 -6.1543,2.47071 a 4.0004,4.0004 0 0 0 -0.01,0.01 c -0.50683,0.53047 -0.77674,1.20396 -1.10938,1.8418 a 4.0004,4.0004 0 0 0 -3.99414,-4.10742 h -1.45703 a 4.0004,4.0004 0 0 0 -2.25586,0.69922 4.0004,4.0004 0 0 0 -0.002,0 4.0004,4.0004 0 0 0 -2.25,-0.69922 h -1.4668 a 4.0004,4.0004 0 0 0 -2.52539,0.90234 c -0.91226,-0.51161 -1.85427,-0.83385 -2.85156,-0.95117 a 4.0004,4.0004 0 0 0 -3.8457,-2.90625 h -1.79883 a 4.0004,4.0004 0 0 0 -3.02344,1.38086 l -0.19727,0.22851 a 4.0004,4.0004 0 0 0 -3.20507,-1.60937 z m 18.21289,4.86719 c 0.004,0.004 0.007,0.009 0.004,0.008 -0.002,-0.002 -0.002,-0.006 -0.004,-0.008 z m 59.85157,0.26562 c 0.004,0.005 0.007,0.01 0.004,0.008 -0.002,-0.002 -0.002,-0.005 -0.004,-0.008 z m 10.13672,0.0723 c 0.007,0.007 0.0117,0.0163 0.008,0.0137 -0.004,-0.004 -0.004,-0.01 -0.008,-0.0137 z m -6.07227,4.13086 1.28125,1.39648 c -0.0107,0.003 -0.0246,0.0109 -0.0352,0.0137 a 4.0004,4.0004 0 0 0 -0.01,0.002 c -0.17862,0.0469 -0.37198,0.0742 -0.60938,0.0742 -0.24883,0 0.19533,0.0335 0.50586,0.33204 l 0.0293,0.0293 c 0.11744,0.11514 0.0655,0.0292 0.10937,0.11524 -0.0622,0.12721 -0.0349,0.13839 -0.17773,0.27343 l -0.0156,0.0156 c -0.31267,0.2925 -0.83534,0.38867 -0.77539,0.38867 -0.16199,0 -0.91185,-0.25602 -1.22265,-0.58984 -0.29286,-0.33209 -0.37792,-0.80743 -0.37696,-0.73438 z m -70.71875,1.48632 c 1.57792,0.55776 1.27772,0.4496 1.66797,1.0586 -0.1152,0.0312 -0.26401,0.0957 -0.30469,0.0957 -0.11579,0 -0.98826,-0.19973 -1.49219,-0.77344 -0.15183,-0.17286 -0.0715,-0.1262 -0.14257,-0.26758 0.12731,-0.0593 0.20737,-0.11328 0.27148,-0.11328 z m 34.37305,0.0176 c 1.22005,2.21421 5.39265,-1.39858 1.59961,3.44922 l -2.16407,-2.16406 c 0.0728,-0.0285 0.14315,-0.0658 0.22266,-0.0859 0.16523,-0.0418 0.31943,-0.0625 0.5,-0.0625 0.17182,0 -0.23879,-0.0183 -0.69141,-0.37109 -0.1246,-0.10619 -0.1084,-0.24464 -0.20703,-0.39844 0.29715,-0.16389 0.64743,-0.36719 0.74024,-0.36719 z m 51.29101,0 c 0.21677,0 0.72542,0.31042 1.08203,0.56055 -0.35714,0.24924 -0.86013,0.56055 -1.08203,0.56055 -0.21694,0 -0.7084,-0.30959 -1.07422,-0.56055 0.36547,-0.25177 0.86232,-0.56055 1.07422,-0.56055 z m -289.644529,10.4336 a 4.0004,4.0004 0 0 0 -4,4 v 12.33007 a 4.0004,4.0004 0 0 0 4,4 h 1.466797 a 4.0004,4.0004 0 0 0 1.15625,-0.17382 c 0.568286,0.12063 1.12935,0.40429 1.679687,0.40429 1.597876,0 3.163204,-0.76566 4.466797,-1.78515 1.327698,1.10676 3.012718,1.78515 4.550778,1.78515 0.67715,0 1.37795,-0.12028 2.07032,-0.31445 a 4.0004,4.0004 0 0 0 0.79101,0.084 h 1.45703 a 4.0004,4.0004 0 0 0 1.50977,-0.29882 4.0004,4.0004 0 0 0 1.50976,0.29882 h 1.45703 a 4.0004,4.0004 0 0 0 1.52344,-0.30273 4.0004,4.0004 0 0 0 1.51953,0.30273 h 1.45899 a 4.0004,4.0004 0 0 0 2.45898,-0.85351 c 1.12096,0.63776 2.34707,1.08398 3.57813,1.08398 0.68064,0 1.38836,-0.1141 2.09179,-0.30468 a 4.0004,4.0004 0 0 0 0.75196,0.0742 h 1.45898 a 4.0004,4.0004 0 0 0 1.50196,-0.29492 4.0004,4.0004 0 0 0 1.50195,0.29492 h 1.45703 a 4.0004,4.0004 0 0 0 1.49219,-0.29297 4.0004,4.0004 0 0 0 1.49414,0.29297 h 1.46679 a 4.0004,4.0004 0 0 0 2.25782,-0.69921 4.0004,4.0004 0 0 0 2.25,0.69921 h 0.97461 a 4.0004,4.0004 0 0 0 2.45507,2.66016 c 0.67316,0.24931 1.36411,0.42525 2.0586,0.53906 0.69213,0.11864 1.39463,0.17578 2.10351,0.17578 2.0944,0 4.44901,-0.66912 6.03907,-2.41797 1.51683,-1.66361 1.96893,-3.75922 2.00976,-5.77343 0.3063,1.17092 0.79807,2.31946 1.6836,3.16992 a 4.0004,4.0004 0 0 0 0.0293,0.0273 c 1.35185,1.27234 3.25629,1.84961 4.91211,1.84961 0.61051,0 1.23897,-0.28431 1.86719,-0.41992 a 4.0004,4.0004 0 0 0 1.19922,0.18945 h 1.45898 a 4.0004,4.0004 0 0 0 4,-4 v -5.0625 c 0,-0.54662 -0.15522,-1.10796 -0.24219,-1.66797 l 2.02344,7.74219 a 4.0004,4.0004 0 0 0 3.86914,2.98828 h 1.72071 a 4.0004,4.0004 0 0 0 1.91601,-0.48828 4.0004,4.0004 0 0 0 1.91016,0.48828 h 1.7207 a 4.0004,4.0004 0 0 0 3.15234,-1.54297 c 1.42968,1.06508 3.14463,1.77344 4.82618,1.77344 1.32497,0 2.66355,-0.46199 3.90234,-1.13086 a 4.0004,4.0004 0 0 0 2.52344,0.90039 h 1.4668 a 4.0004,4.0004 0 0 0 2.63867,-1 4.0004,4.0004 0 0 0 2.63867,1 h 1.45703 a 4.0004,4.0004 0 0 0 2.46094,-0.85351 c 1.12013,0.63732 2.34588,1.08398 3.57617,1.08398 0.68121,0 1.38974,-0.11376 2.09375,-0.30468 a 4.0004,4.0004 0 0 0 0.75195,0.0742 h 1.45703 a 4.0004,4.0004 0 0 0 4,-4 v -5.11718 a 4.0004,4.0004 0 0 0 0.40821,0.40429 v 4.71289 a 4.0004,4.0004 0 0 0 4,4 h 1.46484 a 4.0004,4.0004 0 0 0 1.97656,-0.52539 4.0004,4.0004 0 0 0 1.97071,0.52539 h 1.46484 a 4.0004,4.0004 0 0 0 3.32422,-1.7832 c 1.59028,1.29153 3.61504,2.01367 5.57422,2.01367 0.84622,0 1.68549,-0.0894 2.5,-0.26172 0.79566,-0.1683 1.58187,-0.41505 2.34375,-0.73828 a 4.0004,4.0004 0 0 0 0.63476,-0.34375 c 1.40398,0.80444 2.95265,1.34375 4.50586,1.34375 0.84623,0 1.68549,-0.0894 2.5,-0.26172 0.79755,-0.1687 1.58323,-0.41646 2.3418,-0.73828 a 4.0004,4.0004 0 0 0 2.4375,-3.68164 v -0.33398 c 0.32614,0.84798 0.70303,1.68585 1.32031,2.39844 a 4.0004,4.0004 0 0 0 0.0176,0.0195 c 1.49196,1.69888 3.86533,2.59765 6.00195,2.59765 1.38771,0 2.78518,-0.51187 4.06446,-1.24414 a 4.0004,4.0004 0 0 0 2.65429,1.01367 h 1.4668 a 4.0004,4.0004 0 0 0 4,-4 v -4.07812 a 4.0004,4.0004 0 0 0 0.92383,-0.56641 c 0.0691,0.23816 0.11237,0.45201 0.20898,0.68555 a 4.0004,4.0004 0 0 0 -0.61523,2.12891 v 1.50586 a 4.0004,4.0004 0 0 0 2.76758,3.80468 c 0.71859,0.23287 1.43096,0.41629 2.14843,0.54297 0.72627,0.13265 1.46008,0.20703 2.19727,0.20703 1.65131,0 3.39176,-0.37171 4.90625,-1.43164 1.2573,0.85808 2.70071,1.43164 4.05664,1.43164 0.55012,0 1.10016,-0.29158 1.66602,-0.41797 a 4.0004,4.0004 0 0 0 1.19336,0.1875 h 1.45898 a 4.0004,4.0004 0 0 0 1.47852,-0.28711 4.0004,4.0004 0 0 0 1.48437,0.28711 h 1.4668 a 4.0004,4.0004 0 0 0 3.77539,-2.69336 l 0.0371,0.0977 a 4.0004,4.0004 0 0 0 3.74609,2.5957 h 1.98047 a 4.0004,4.0004 0 0 0 3.43945,-1.96875 c 1.61852,1.44801 3.79921,2.19922 5.8711,2.19922 0.84622,0 1.68548,-0.0894 2.5,-0.26172 0.52704,-0.11148 1.03829,-0.30892 1.55273,-0.48828 a 4.0004,4.0004 0 0 0 1.96094,0.51953 h 1.45898 a 4.0004,4.0004 0 0 0 1.52344,-0.30273 4.0004,4.0004 0 0 0 1.51953,0.30273 h 1.45703 a 4.0004,4.0004 0 0 0 1.52344,-0.30273 4.0004,4.0004 0 0 0 1.51953,0.30273 h 1.45703 a 4.0004,4.0004 0 0 0 2.17188,-0.64648 c 1.07103,0.52556 2.2071,0.87695 3.28906,0.87695 0.61082,0 1.23869,-0.28392 1.86719,-0.41992 a 4.0004,4.0004 0 0 0 1.19922,0.18945 h 1.45703 a 4.0004,4.0004 0 0 0 1.47461,-0.28515 4.0004,4.0004 0 0 0 1.48047,0.28515 h 1.46679 a 4.0004,4.0004 0 0 0 2.25782,-0.69921 4.0004,4.0004 0 0 0 2.25,0.69921 h 1.45898 a 4.0004,4.0004 0 0 0 2.57617,-0.9414 c 1.29009,0.69273 2.6858,1.17187 4.08008,1.17187 0.74576,0 1.49467,-0.0728 2.23437,-0.23437 l 0.004,-0.002 c 0.72582,-0.15773 1.43587,-0.39605 2.10938,-0.71093 a 4.0004,4.0004 0 0 0 0.5,-0.28516 c 1.36221,0.73475 2.84262,1.23242 4.32812,1.23242 0.84623,0 1.68549,-0.0894 2.5,-0.26172 0.57341,-0.12129 1.12808,-0.33046 1.68359,-0.53125 a 4.0004,4.0004 0 0 0 2.03516,0.5625 h 1.67188 a 4.0004,4.0004 0 0 0 4,-4 v -2.01171 a 4.0004,4.0004 0 0 0 -4,-4 h -0.46485 c -0.20359,-1.64929 -0.71721,-3.309 -1.88672,-4.59961 -1.45596,-1.61535 -3.74358,-2.47657 -5.79297,-2.47657 -1.40197,0 -2.8034,0.49094 -4.0957,1.19727 a 4.0004,4.0004 0 0 0 -0.49805,-0.27539 c -0.66136,-0.30458 -1.35991,-0.53387 -2.07421,-0.68555 -0.71134,-0.15626 -1.43687,-0.23633 -2.16016,-0.23633 -1.82282,0 -3.68514,0.70416 -5.21094,1.85742 -1.33333,-1.15806 -3.06824,-1.85742 -4.63672,-1.85742 -0.54434,0 -1.0834,0.28922 -1.64062,0.41211 a 4.0004,4.0004 0 0 0 -1.22852,-0.19922 h -1.46679 a 4.0004,4.0004 0 0 0 -2.63282,0.99414 c -1.32091,-0.74507 -2.7611,-1.20703 -4.14843,-1.20703 -0.73873,0 -1.47371,0.088 -2.19727,0.23438 a 4.0004,4.0004 0 0 0 -3.96094,-3.47656 h -1.45703 a 4.0004,4.0004 0 0 0 -1.52344,0.30273 4.0004,4.0004 0 0 0 -1.51953,-0.30273 h -1.45703 a 4.0004,4.0004 0 0 0 -1.52344,0.30273 4.0004,4.0004 0 0 0 -1.51953,-0.30273 h -1.45898 a 4.0004,4.0004 0 0 0 -3.98828,3.70312 c -0.76048,-0.22385 -1.53078,-0.46094 -2.2793,-0.46094 -1.20139,0 -2.42862,0.32427 -3.57813,0.84571 a 4.0004,4.0004 0 0 0 -2.15039,-0.63282 h -1.54492 a 4.0004,4.0004 0 0 0 -2.77343,1.125 4.0004,4.0004 0 0 0 -2.77344,-1.125 h -1.0293 a 4.0004,4.0004 0 0 0 -0.32031,-0.0723 c -0.22582,-0.0403 -0.44558,-0.068 -0.66602,-0.0899 -0.24507,-0.0295 -0.4985,-0.0508 -0.77343,-0.0508 -0.70039,0 -1.42501,0.11496 -2.14649,0.30664 a 4.0004,4.0004 0 0 0 -0.83984,-0.0937 h -1.4668 a 4.0004,4.0004 0 0 0 -1.47852,0.28711 4.0004,4.0004 0 0 0 -1.48437,-0.28711 h -1.45898 a 4.0004,4.0004 0 0 0 -2.26172,0.70118 4.0004,4.0004 0 0 0 -2.25391,-0.70118 h -1.45898 a 4.0004,4.0004 0 0 0 -1.72071,0.39453 c -0.52627,-0.17316 -1.05363,-0.34422 -1.58984,-0.43359 -0.71564,-0.11926 -1.44336,-0.17383 -2.17969,-0.17383 -1.64532,0 -3.42469,0.33466 -4.95508,1.50977 -0.10327,0.0793 -0.14643,0.22657 -0.24414,0.31445 v -1.0664 a 4.0004,4.0004 0 0 0 -4,-4 h -1.3789 c -1.60242,0 -3.50131,0.36619 -4.99024,1.83203 -0.64818,0.63654 -1.01253,1.37597 -1.30273,2.11914 -1.06574,-0.45795 -2.21034,-0.70899 -3.30274,-0.70899 -2.13662,0 -4.50999,0.89878 -6.00195,2.59766 a 4.0004,4.0004 0 0 0 -0.01,0.01 c -0.68934,0.79073 -1.14191,1.71121 -1.47265,2.66407 -0.33687,-1.0149 -0.85619,-1.97883 -1.59571,-2.79492 -1.45596,-1.61537 -3.74357,-2.47657 -5.79296,-2.47657 -1.78195,0 -3.59081,0.73371 -5.07618,1.86328 -1.42203,-1.13674 -3.19872,-1.86328 -4.9082,-1.86328 -0.98504,0 -2.00172,0.23925 -2.97266,0.5918 a 4.0004,4.0004 0 0 0 -1.24414,-0.45117 c -0.22654,-0.0405 -0.44876,-0.068 -0.66992,-0.0899 -0.24399,-0.0293 -0.49598,-0.0508 -0.76953,-0.0508 -0.54072,0 -1.10005,0.0681 -1.6582,0.17774 a 4.0004,4.0004 0 0 0 -3.95313,-3.41992 h -1.3789 c -1.60242,0 -3.50338,0.3702 -4.98828,1.83203 -0.677,0.66484 -1.07198,1.43477 -1.36133,2.21289 a 4.0004,4.0004 0 0 0 -0.9336,0.78711 v -0.83203 a 4.0004,4.0004 0 0 0 -4,-4 h -1.45703 a 4.0004,4.0004 0 0 0 -3.96484,3.51562 c -0.31526,0.0557 -0.61935,0.13078 -0.92969,0.22852 a 4.0004,4.0004 0 0 0 -3.98828,-3.74414 h -1.45703 a 4.0004,4.0004 0 0 0 -3.95313,3.41992 c -0.1635,0.0322 -0.3212,0.0856 -0.48437,0.1289 a 4.0004,4.0004 0 0 0 -0.83984,-0.0937 h -1.4668 a 4.0004,4.0004 0 0 0 -2.53516,0.91016 c -1.2358,-0.66445 -2.57012,-1.12305 -3.89062,-1.12305 -1.1705,0 -2.37719,0.32463 -3.50586,0.84766 a 4.0004,4.0004 0 0 0 -2.15235,-0.63477 h -1.45703 a 4.0004,4.0004 0 0 0 -1.81836,0.44336 4.0004,4.0004 0 0 0 -1.81836,-0.44336 h -1.7207 a 4.0004,4.0004 0 0 0 -1.81836,0.44336 4.0004,4.0004 0 0 0 -1.81836,-0.44336 h -1.45703 a 4.0004,4.0004 0 0 0 -3.97266,4.44727 c -0.3219,-0.85838 -0.72699,-1.70056 -1.41211,-2.41992 -1.56521,-1.64347 -3.79913,-2.24024 -5.77343,-2.24024 -0.76367,0 -1.52443,0.0866 -2.26953,0.24219 -0.74117,0.14951 -1.47091,0.36512 -2.18946,0.64258 a 4.0004,4.0004 0 0 0 -2.55859,3.73242 v 1.34766 a 4.0004,4.0004 0 0 0 0.22656,1.30859 c -0.25535,0.50129 -0.35578,0.98232 -0.49219,1.51172 v -4.57227 a 4.0004,4.0004 0 0 0 -4,-4 h -1.45703 a 4.0004,4.0004 0 0 0 -0.79101,0.0801 c -0.69302,-0.18402 -1.38803,-0.29297 -2.05469,-0.29297 -1.5938,0 -3.17862,0.75232 -4.49414,1.77344 -1.32291,-1.09538 -2.99567,-1.77344 -4.52149,-1.77344 -0.54434,0 -1.0834,0.28922 -1.64062,0.41211 a 4.0004,4.0004 0 0 0 -1.22852,-0.19922 h -0.49414 a 4.0004,4.0004 0 0 0 -3.95898,-3.45507 h -1.45703 a 4.0004,4.0004 0 0 0 -1.50195,0.29492 4.0004,4.0004 0 0 0 -1.50196,-0.29492 h -1.45898 a 4.0004,4.0004 0 0 0 -3.96485,3.51562 c -0.31433,0.0555 -0.61827,0.12931 -0.92773,0.22656 a 4.0004,4.0004 0 0 0 -3.98828,-3.74218 h -1.45899 a 4.0004,4.0004 0 0 0 -1.52343,0.30273 4.0004,4.0004 0 0 0 -1.51954,-0.30273 h -1.45703 a 4.0004,4.0004 0 0 0 -3.95703,3.45507 h -0.51953 a 4.0004,4.0004 0 0 0 -2.26172,0.70313 4.0004,4.0004 0 0 0 -2.25586,-0.70313 h -1.45703 a 4.0004,4.0004 0 0 0 -2.402342,0.81055 c -0.754161,-0.41619 -1.542552,-0.60074 -2.371094,-0.74805 a 4.0004,4.0004 0 0 0 -3.966796,-3.51757 z m 113.623049,3.28125 c 0.0573,0.006 0.11849,0.0137 0.0918,0.0117 -0.0303,-0.003 -0.0615,-0.009 -0.0918,-0.0117 z m 138.95312,0.19726 c -0.007,0.001 -0.0129,0.005 -0.0195,0.006 -0.006,0.001 -0.0131,6e-4 -0.0195,0.002 z m -143.28711,0.62109 c -0.005,0.003 -0.009,0.007 -0.0137,0.01 -0.005,0.003 -0.0105,0.003 -0.0156,0.006 z m 103.38867,0 c -0.005,0.003 -0.009,0.007 -0.0137,0.01 -0.005,0.003 -0.0106,0.003 -0.0156,0.006 z m -86.36914,0.008 c 0.0156,0.009 0.0326,0.0221 0.0254,0.0195 -0.01,-0.005 -0.0159,-0.0144 -0.0254,-0.0195 z m -72.18164,1.52734 c 0.004,0.005 0.007,0.01 0.004,0.008 -0.002,-0.002 -0.002,-0.005 -0.004,-0.008 z m 217.20508,0 c 0.004,0.005 0.007,0.01 0.004,0.008 -0.002,-0.002 -0.002,-0.005 -0.004,-0.008 z m -114.58203,0.0703 c 0.007,0.007 0.0117,0.0163 0.008,0.0137 -0.004,-0.004 -0.004,-0.01 -0.008,-0.0137 z m -6.07227,4.13086 1.2793,1.39649 c -0.0107,0.003 -0.0245,0.0109 -0.0351,0.0137 a 4.0004,4.0004 0 0 0 -0.01,0.002 c -0.18994,0.0499 -0.37933,0.0762 -0.60742,0.0762 -0.24344,0 0.19357,0.0318 0.5039,0.33008 l 0.0293,0.0293 c 0.11665,0.11436 0.065,0.0283 0.10938,0.11523 -0.0625,0.12806 -0.0364,0.14172 -0.17774,0.27539 l -0.0156,0.0156 c -0.31266,0.29248 -0.83536,0.38867 -0.77539,0.38867 -0.16202,0 -0.90598,-0.25169 -1.22071,-0.58984 -0.28948,-0.32847 -0.37792,-0.80929 -0.37695,-0.73633 z m 9.98243,0 1.28125,1.39649 c -0.0107,0.003 -0.0246,0.0109 -0.0352,0.0137 a 4.0004,4.0004 0 0 0 -0.01,0.002 c -0.18761,0.0493 -0.38129,0.0762 -0.60938,0.0762 -0.24342,0 0.19893,0.0351 0.50586,0.33008 l 0.0293,0.0293 c 0.11664,0.11436 0.065,0.0283 0.10937,0.11523 -0.0625,0.12806 -0.0364,0.14172 -0.17773,0.27539 l -0.0156,0.0156 c -0.31267,0.2925 -0.83534,0.38867 -0.77539,0.38867 -0.16199,0 -0.90602,-0.25175 -1.2207,-0.58984 -0.29321,-0.33265 -0.37996,-0.81568 -0.37891,-0.73633 z m 70.99804,0 1.2793,1.39649 c -0.0108,0.003 -0.0245,0.0109 -0.0352,0.0137 a 4.0004,4.0004 0 0 0 -0.01,0.002 c -0.18994,0.0499 -0.37933,0.0762 -0.60742,0.0762 -0.24345,0 0.19353,0.0318 0.5039,0.33008 l 0.0293,0.0293 c 0.11664,0.11435 0.065,0.0283 0.10937,0.11523 -0.0625,0.12805 -0.0364,0.14173 -0.17773,0.27539 l -0.0156,0.0156 c -0.31268,0.2925 -0.83536,0.38867 -0.77539,0.38867 -0.16202,0 -0.90598,-0.25169 -1.22071,-0.58984 -0.2895,-0.3285 -0.37792,-0.80935 -0.37695,-0.73633 z m 52.67579,0 1.28124,1.39649 c -0.0106,0.003 -0.0246,0.0109 -0.0351,0.0137 a 4.0004,4.0004 0 0 0 -0.01,0.002 c -0.1876,0.0493 -0.38128,0.0762 -0.60937,0.0762 -0.24344,0 0.19897,0.0351 0.50586,0.33008 l 0.0293,0.0293 c 0.11675,0.11446 0.0654,0.0306 0.10938,0.11719 -0.0625,0.12776 -0.0371,0.14043 -0.17774,0.27343 l -0.0156,0.0156 c -0.31267,0.2925 -0.83534,0.38867 -0.77539,0.38867 -0.16199,0 -0.91182,-0.25599 -1.22266,-0.58984 -0.28948,-0.32847 -0.37792,-0.80929 -0.37695,-0.73633 z m -226.22071,1.27344 c 0.19519,0 0.97947,0.35892 1.28321,0.67578 -0.30074,0.31429 -1.08161,0.67578 -1.28321,0.67578 -0.18529,0 -0.93312,-0.35433 -1.26172,-0.67578 0.33145,-0.32371 1.08263,-0.67578 1.26172,-0.67578 z m 43.95313,0.21484 c 0.20494,0 0.79015,0.31948 1.12109,0.57813 -0.33351,0.25379 -0.90737,0.57617 -1.12109,0.57617 -0.22978,0 -0.79692,-0.32725 -1.12891,-0.57812 0.32868,-0.25068 0.8991,-0.57618 1.12891,-0.57618 z m 73.7539,0 c 0.20471,0 0.79052,0.32128 1.1211,0.57813 -0.33351,0.25379 -0.90736,0.57617 -1.1211,0.57617 -0.22976,0 -0.79693,-0.32728 -1.1289,-0.57812 0.32866,-0.25066 0.89911,-0.57618 1.1289,-0.57618 z m -171.873044,0.0156 c 0.216761,0 0.725429,0.31043 1.082032,0.56055 -0.357122,0.24922 -0.860112,0.56054 -1.082032,0.56054 -0.216966,0 -0.708406,-0.30958 -1.074218,-0.56054 0.36547,-0.25178 0.862321,-0.56055 1.074218,-0.56055 z m 29.064454,0 c 0.217,0 0.72549,0.30936 1.08203,0.56055 -0.35701,0.25022 -0.85987,0.56054 -1.08203,0.56054 -0.22192,0 -0.72491,-0.31132 -1.08203,-0.56054 0.3566,-0.25012 0.86526,-0.56055 1.08203,-0.56055 z m 40.02148,0 c 1.23594,2.21739 5.35226,-1.38957 1.59961,3.45117 l -2.16406,-2.16406 c 0.0731,-0.0289 0.14796,-0.069 0.22266,-0.0879 0.15523,-0.0392 0.30912,-0.0606 0.5,-0.0606 0.17216,0 -0.23947,-0.0159 -0.69336,-0.37109 -0.12535,-0.107 -0.10633,-0.24427 -0.20508,-0.39844 0.29866,-0.16457 0.65171,-0.36914 0.74023,-0.36914 z m 50.05469,0 c 0.21677,0 0.72542,0.31042 1.08203,0.56055 -0.35713,0.24923 -0.8601,0.56054 -1.08203,0.56054 -0.22192,0 -0.72491,-0.31132 -1.08203,-0.56054 0.3566,-0.25012 0.86527,-0.56055 1.08203,-0.56055 z m 131.42969,0 c 1.23563,2.21663 5.35217,-1.38738 1.60156,3.45117 l -2.16406,-2.16406 c 0.0726,-0.0286 0.14657,-0.0692 0.2207,-0.0879 0.15277,-0.0386 0.31109,-0.0606 0.50195,-0.0606 0.1722,0 -0.24485,-0.0189 -0.69531,-0.37109 -0.1243,-0.10611 -0.10665,-0.24495 -0.20508,-0.39844 0.29866,-0.16457 0.65172,-0.36914 0.74024,-0.36914 z"
         inkscape:href="#text1003"
         id="path1344"
         style="font-style:normal;font-variant:normal;font-weight:normal;font-stretch:normal;font-size:18.34444427px;line-height:21.77405548px;font-family:'Linux Biolinum O';-inkscape-font-specification:'Linux Biolinum O, Normal';font-variant-ligatures:normal;font-variant-caps:normal;font-variant-numeric:normal;font-feature-settings:normal;text-align:end;letter-spacing:0px;word-spacing:0px;writing-mode:lr-tb;text-anchor:end;opacity:0.8;fill:#f9f9f9;fill-opacity:1;stroke:none;stroke-width:0.87096226px;stroke-linecap:butt;stroke-linejoin:miter;stroke-opacity:1;filter:url(#filter5035)"
         xlink:href="#text1003"
         inkscape:original=""
         inkscape:radius="4"
         sodipodi:type="inkscape:offset" />
      <text
         id="text1003"
         y="241.72202"
         x="384.48825"
         style="font-style:normal;font-variant:normal;font-weight:normal;font-stretch:normal;font-size:16.22777748px;line-height:21.77405548px;font-family:sans-serif;-inkscape-font-specification:'sans-serif, Normal';text-align:end;letter-spacing:0px;word-spacing:0px;writing-mode:lr-tb;text-anchor:end;fill:#005c94;fill-opacity:1;stroke:none;stroke-width:0.87096226px;stroke-linecap:butt;stroke-linejoin:miter;stroke-opacity:1"
         xml:space="preserve"><tspan
           id="tspan1007"
           style="font-style:normal;font-variant:normal;font-weight:normal;font-stretch:normal;font-size:16.22777748px;font-family:sans-serif;-inkscape-font-specification:'sans-serif, Normal';text-align:end;writing-mode:lr-tb;text-anchor:end;fill:#005c94;stroke-width:0.87096226px"
           y="241.72202"
           x="384.48825"
           sodipodi:role="line" /></text>
    </g>
  </g>
</svg>
